<svg width="36" height="36" viewBox="0 0 36 36" fill="none" xmlns="http://www.w3.org/2000/svg">
<path fill-rule="evenodd" clip-rule="evenodd" d="M36 16.2633C36 16.1758 36 16.0881 36 16L36 -1.90735e-05L28 -1.87238e-05L28 16C28 19.8843 27.9915 22.3951 27.7428 24.2452C27.5095 25.9801 27.1329 26.5239 26.8284 26.8284C26.5239 27.1329 25.9801 27.5095 24.2452 27.7428C22.3951 27.9915 19.8843 28 16 28L-1.94232e-05 28L-1.90735e-05 36L16 36C16.0881 36 16.1758 36 16.2633 36C19.8092 36.0002 22.8645 36.0004 25.3111 35.6714C27.9332 35.3189 30.4466 34.5239 32.4853 32.4853C34.5239 30.4466 35.3189 27.9332 35.6714 25.3111C36.0004 22.8645 36.0002 19.8092 36 16.2633Z" fill="#F1C0B2"/>
</svg>
