<svg width="56" height="56" viewBox="0 0 56 56" fill="none" xmlns="http://www.w3.org/2000/svg">
<path d="M54.8327 50.3367C54.8327 52.8101 53.2192 54.8331 51.2498 54.8331H4.74768C2.77952 54.8331 1.16602 52.8101 1.16602 50.3367V12.3139C1.16602 9.83941 2.77952 7.81641 4.74768 7.81641H51.2487C53.218 7.81641 54.8315 9.83941 54.8315 12.3139V50.3367H54.8327Z" stroke="black" stroke-width="2.33333" stroke-miterlimit="10" stroke-linecap="round" stroke-linejoin="round"/>
<path d="M12.3467 1.1665V13.0793" stroke="black" stroke-width="2.33333" stroke-miterlimit="10" stroke-linecap="round" stroke-linejoin="round"/>
<path d="M43.6533 1.16602V13.0789" stroke="black" stroke-width="2.33333" stroke-miterlimit="10" stroke-linecap="round" stroke-linejoin="round"/>
<path d="M2.06006 18.8076H53.9394" stroke="black" stroke-width="2.33333" stroke-miterlimit="10" stroke-linecap="round" stroke-linejoin="round"/>
<path d="M25.993 40.2733V42H18.5263V40.2733H21.261V32.4053C21.261 32.0942 21.2703 31.7738 21.289 31.444L19.3477 33.068C19.2357 33.1551 19.1237 33.2111 19.0117 33.236C18.9059 33.2547 18.8032 33.2547 18.7037 33.236C18.6103 33.2173 18.5263 33.1862 18.4517 33.1427C18.377 33.0929 18.321 33.04 18.2837 32.984L17.5557 31.9853L21.6717 28.4853H23.5663V40.2733H25.993ZM37.5211 35.252C37.5211 36.428 37.3936 37.4516 37.1385 38.3227C36.8896 39.1876 36.5411 39.9031 36.0931 40.4693C35.6514 41.0356 35.1256 41.4587 34.5158 41.7387C33.9122 42.0124 33.2589 42.1493 32.5558 42.1493C31.8527 42.1493 31.1994 42.0124 30.5958 41.7387C29.9985 41.4587 29.4789 41.0356 29.0371 40.4693C28.5954 39.9031 28.25 39.1876 28.0011 38.3227C27.7522 37.4516 27.6278 36.428 27.6278 35.252C27.6278 34.0698 27.7522 33.0462 28.0011 32.1813C28.25 31.3164 28.5954 30.6009 29.0371 30.0347C29.4789 29.4684 29.9985 29.0484 30.5958 28.7747C31.1994 28.4947 31.8527 28.3547 32.5558 28.3547C33.2589 28.3547 33.9122 28.4947 34.5158 28.7747C35.1256 29.0484 35.6514 29.4684 36.0931 30.0347C36.5411 30.6009 36.8896 31.3164 37.1385 32.1813C37.3936 33.0462 37.5211 34.0698 37.5211 35.252ZM35.1411 35.252C35.1411 34.2751 35.0696 33.4662 34.9265 32.8253C34.7834 32.1844 34.5905 31.6742 34.3478 31.2947C34.1114 30.9151 33.8376 30.6507 33.5265 30.5013C33.2154 30.3458 32.8918 30.268 32.5558 30.268C32.226 30.268 31.9056 30.3458 31.5945 30.5013C31.2896 30.6507 31.0189 30.9151 30.7825 31.2947C30.546 31.6742 30.3562 32.1844 30.2131 32.8253C30.0762 33.4662 30.0078 34.2751 30.0078 35.252C30.0078 36.2289 30.0762 37.0378 30.2131 37.6787C30.3562 38.3196 30.546 38.8298 30.7825 39.2093C31.0189 39.5889 31.2896 39.8564 31.5945 40.012C31.9056 40.1613 32.226 40.236 32.5558 40.236C32.8918 40.236 33.2154 40.1613 33.5265 40.012C33.8376 39.8564 34.1114 39.5889 34.3478 39.2093C34.5905 38.8298 34.7834 38.3196 34.9265 37.6787C35.0696 37.0378 35.1411 36.2289 35.1411 35.252Z" fill="#232325"/>
</svg>
