<svg width="56" height="56" viewBox="0 0 56 56" fill="none" xmlns="http://www.w3.org/2000/svg">
<mask id="mask0_1078_74737" style="mask-type:alpha" maskUnits="userSpaceOnUse" x="0" y="0" width="56" height="56">
<rect width="56" height="56" fill="#555555"/>
</mask>
<g mask="url(#mask0_1078_74737)">
</g>
<g clip-path="url(#clip0_1078_74737)">
<path d="M21.4444 35.4844C21.4444 35.5356 21.4444 35.6378 21.4444 35.6889C21.4444 35.9444 21.3422 36.2 21.1378 36.4044C21.0356 36.5067 20.9333 36.5578 20.8311 36.6089C20.6778 36.7111 20.5756 36.7111 20.4222 36.7111C20.2689 36.7111 20.1667 36.7111 20.0133 36.6089C19.9111 36.5578 19.7578 36.5067 19.6556 36.4044C19.5022 36.2 19.4 35.9444 19.4 35.6889C19.4 35.6378 19.4 35.5356 19.4 35.4844C19.4 35.4333 19.4511 35.3311 19.4511 35.28C19.4511 35.2289 19.5022 35.1778 19.5533 35.1267C19.6044 35.0756 19.6044 35.0244 19.6556 34.9733C19.7067 34.9222 19.7578 34.8711 19.8089 34.8711C19.86 34.82 19.9111 34.82 20.0133 34.7689C20.0644 34.7689 20.1156 34.7178 20.2178 34.7178C20.5244 34.6667 20.8822 34.7689 21.1378 34.9733C21.1889 35.0244 21.24 35.0756 21.24 35.1267C21.2911 35.1778 21.2911 35.2289 21.3422 35.28C21.3933 35.3311 21.3933 35.4333 21.4444 35.4844ZM27.4756 35.28C27.4756 35.2289 27.4244 35.1778 27.3733 35.1267C27.3222 35.0756 27.2711 35.0244 27.2711 34.9733C27.22 34.9222 27.1689 34.8711 27.1178 34.8711C27.0667 34.82 27.0156 34.82 26.9644 34.7689C26.9133 34.7689 26.8622 34.7178 26.76 34.7178C26.6067 34.7178 26.5044 34.7178 26.3511 34.7178C26.3 34.7178 26.2489 34.7689 26.1467 34.7689C26.0956 34.82 26.0444 34.82 25.9933 34.8711C25.9422 34.9222 25.8911 34.9733 25.84 34.9733C25.7889 35.0244 25.7378 35.0756 25.7378 35.1267C25.6867 35.1778 25.6867 35.2289 25.6356 35.28C25.6356 35.3311 25.5844 35.3822 25.5844 35.4844C25.5844 35.5356 25.5844 35.6378 25.5844 35.6889C25.5844 35.9444 25.6867 36.2 25.8911 36.4044C25.9933 36.5067 26.0956 36.5578 26.1978 36.6089C26.3 36.7111 26.4022 36.7111 26.5556 36.7111C26.8111 36.7111 27.0667 36.6089 27.2711 36.4044C27.3733 36.3022 27.4244 36.2 27.4756 36.0978C27.5778 35.9444 27.5778 35.8422 27.5778 35.6889C27.5778 35.6378 27.5778 35.5356 27.5778 35.4844C27.5267 35.4333 27.5267 35.3311 27.4756 35.28ZM39.7422 35.28C39.7422 35.2289 39.6911 35.1778 39.64 35.1267C39.5889 35.0756 39.5378 35.0244 39.5378 34.9733C39.4867 34.9222 39.4356 34.8711 39.3844 34.8711C39.3333 34.82 39.2822 34.82 39.2311 34.7689C39.18 34.7689 39.1289 34.7178 39.0267 34.7178C38.72 34.6667 38.3622 34.7689 38.1067 34.9733C38.0556 35.0244 38.0044 35.0756 38.0044 35.1267C37.9533 35.1778 37.9533 35.2289 37.9022 35.28C37.9022 35.3311 37.8511 35.3822 37.8511 35.4844C37.8511 35.5356 37.8511 35.6378 37.8511 35.6889C37.8511 35.74 37.8511 35.8422 37.8511 35.8933C37.8511 35.9444 37.9022 36.0467 37.9022 36.0978C37.9533 36.1489 37.9533 36.2 38.0044 36.2511C38.0556 36.3022 38.1067 36.3533 38.1067 36.4044C38.2089 36.5067 38.3111 36.5578 38.4133 36.6089C38.5667 36.7111 38.6689 36.7111 38.8222 36.7111C38.8733 36.7111 38.9756 36.7111 39.0267 36.7111C39.0778 36.7111 39.18 36.66 39.2311 36.66C39.2822 36.66 39.3333 36.6089 39.3844 36.5578C39.4356 36.5067 39.4867 36.4556 39.5378 36.4556C39.5889 36.4044 39.64 36.3533 39.64 36.3022C39.6911 36.2511 39.6911 36.2 39.7422 36.1489C39.7933 36.0978 39.7933 36.0467 39.7933 35.9444C39.7933 35.8933 39.7933 35.7911 39.7933 35.74C39.7933 35.6889 39.7933 35.5867 39.7933 35.5356C39.7933 35.4333 39.7933 35.3311 39.7422 35.28ZM45.9778 31.6V46.9333C45.9778 48.62 44.5978 50 42.9111 50H14.2889H8.15556H4.06667C2.38 50 1 48.62 1 46.9333V25.4667C1 25.1089 1.20444 24.7511 1.56222 24.5467C1.92 24.3933 2.27778 24.3933 2.63556 24.5978L7.18444 27.6133V25.4667C7.18444 25.1089 7.38889 24.7511 7.74667 24.5467C8.10445 24.3933 8.46222 24.3933 8.82 24.5978L14.5956 28.5333H16.9467L18.6844 7.47556C18.8378 5.53333 20.5244 4 22.4667 4C24.4089 4 26.0956 5.53333 26.2489 7.47556L27.9867 28.5333H31.2067L32.9444 7.47556C33.1489 5.53333 34.8356 4 36.7778 4C38.72 4 40.4067 5.53333 40.56 7.47556L42.2978 28.5333H42.9111C44.5978 28.5333 45.9778 29.9133 45.9778 31.6ZM7.13333 30.1178L3.04444 27.4089V46.9333C3.04444 47.4956 3.50444 47.9556 4.06667 47.9556H7.13333V30.1178ZM13.2667 30.1178L9.17778 27.4089V29.5556V47.9556H13.2667V30.1178ZM34.8867 9.11111H38.6178L38.5156 7.62889C38.4644 6.76 37.6978 6.04444 36.7778 6.04444C35.8578 6.04444 35.0911 6.76 35.04 7.62889L34.8867 9.11111ZM33.3022 28.5333H40.3044L38.8222 11.1556H34.7333L33.3022 28.5333ZM20.5756 9.11111H24.3067L24.2044 7.62889C24.1533 6.76 23.3867 6.04444 22.4667 6.04444C21.5467 6.04444 20.78 6.76 20.7289 7.62889L20.5756 9.11111ZM18.9911 28.5333H25.9933L24.5111 11.1556H20.4222L18.9911 28.5333ZM43.9333 31.6C43.9333 31.0378 43.4733 30.5778 42.9111 30.5778H41.3778H32.1778H27.0667H17.8667H15.3111V47.9556H42.9111C43.4733 47.9556 43.9333 47.4956 43.9333 46.9333V31.6ZM33.6089 35.28C33.6089 35.2289 33.5578 35.1778 33.5067 35.1267C33.4556 35.0756 33.4044 35.0244 33.4044 34.9733C33.3533 34.9222 33.3022 34.8711 33.2511 34.8711C33.2 34.82 33.1489 34.82 33.0978 34.7689C33.0467 34.7689 32.9956 34.7178 32.8933 34.7178C32.5867 34.6667 32.2289 34.7689 31.9733 34.9733C31.9222 35.0244 31.8711 35.0756 31.8711 35.1267C31.82 35.1778 31.82 35.2289 31.7689 35.28C31.7689 35.3311 31.7178 35.3822 31.7178 35.4844C31.7178 35.5356 31.7178 35.6378 31.7178 35.6889C31.7178 35.8422 31.7178 35.9444 31.7689 36.0978C31.82 36.2 31.8711 36.3533 31.9733 36.4044C32.0756 36.5067 32.1778 36.5578 32.28 36.6089C32.4333 36.7111 32.5356 36.7111 32.6889 36.7111C32.9444 36.7111 33.2 36.6089 33.4044 36.4044C33.5067 36.3022 33.5578 36.2 33.6089 36.0978C33.7111 35.9444 33.7111 35.8422 33.7111 35.6889C33.7111 35.6378 33.7111 35.5356 33.7111 35.4844C33.66 35.4333 33.66 35.3311 33.6089 35.28Z" fill="black"/>
</g>
<defs>
<clipPath id="clip0_1078_74737">
<rect width="44.9778" height="46" fill="white" transform="translate(1 4)"/>
</clipPath>
</defs>
</svg>
