<svg width="56" height="56" viewBox="0 0 56 56" fill="none" xmlns="http://www.w3.org/2000/svg">
<mask id="mask0_1078_74745" style="mask-type:alpha" maskUnits="userSpaceOnUse" x="0" y="0" width="56" height="56">
<rect width="56" height="56" fill="#555555"/>
<rect width="56" height="56" fill="#555555"/>
</mask>
<g mask="url(#mask0_1078_74745)">
</g>
<path d="M1.38135 37.0493H2.24117V26.7164V15.3714V4.01923C2.24117 3.45653 2.70155 3 3.26974 3H16.0666C16.6348 3 17.0952 3.45653 17.0952 4.01923V8.97023L18.5175 5.14131C18.6119 4.88783 18.8038 4.68147 19.0515 4.568C19.299 4.45519 19.5819 4.44325 19.8384 4.53747L31.8481 8.92096C32.1039 9.01386 32.3121 9.2043 32.4263 9.44982C32.5408 9.69534 32.5519 9.97602 32.4575 10.2295L28.4956 20.8773C28.4953 20.8783 28.4952 20.8793 28.4949 20.8803L28.2812 21.4555L28.7446 20.9971L36.851 12.9839C37.2534 12.5845 37.9043 12.5858 38.3055 12.9853L47.3463 21.9566C47.5392 22.1477 47.6473 22.4072 47.647 22.6773C47.6466 22.948 47.5382 23.2068 47.345 23.3979L39.2383 31.4177L31.1316 39.4309L23.748 46.7296L24.3605 47.3379C24.5533 47.529 24.6618 47.7891 24.6615 48.0598C24.6611 48.3299 24.5523 48.5893 24.3588 48.7804L17.3463 55.7027C17.1457 55.9011 16.8829 56 16.6204 56C16.3569 56 16.0931 55.9005 15.8922 55.7007L10.0105 49.8596L7.36276 48.8926H1.38135C0.813154 48.8926 0.352775 48.4361 0.352775 47.8734V38.0686C0.352775 37.5059 0.813154 37.0493 1.38135 37.0493ZM17.346 50.3664L17.8944 48.8926H13.3074L17.346 50.3664ZM4.29831 25.6971H15.038V16.3907H4.29831V25.6971ZM24.8649 20.6411L17.0952 17.8047V26.7164V27.7255L21.188 29.2233C21.2101 29.2293 21.2322 29.2366 21.2537 29.2445L22.9595 29.869L24.7361 25.0953C24.7367 25.0938 24.7377 25.0925 24.7383 25.0909L26.209 21.1318L24.8649 20.6411ZM19.0099 45.8963L19.5056 44.5648C19.5056 44.5647 19.5058 44.5644 19.5059 44.5642L20.0624 43.0751L19.0481 42.7052L18.9836 42.6817V45.9669L19.0099 45.8963ZM17.955 37.0493C18.5232 37.0493 18.9836 37.5059 18.9836 38.0686V40.5105L18.9997 40.5165L22.1551 32.037L22.2495 31.7833L20.5998 31.1781C20.578 31.1722 20.5559 31.1649 20.5345 31.1569L17.0952 29.8988V37.0493H17.955V37.0493ZM15.038 28.4356V27.7356H4.29831V37.0493H15.038V28.4356ZM15.038 5.03846H4.29831V14.3522H15.038V5.03846ZM20.0925 6.80221L17.0952 14.8718V15.3714V15.6322L26.9202 19.2194L30.1716 10.481L20.0925 6.80221ZM24.5636 31.463L24.5607 31.4708L25.8091 32.709L30.4065 37.2688L37.0567 30.6946L29.4696 23.16L26.59 26.008L24.5636 31.463ZM37.5762 15.1465L30.9262 21.7202L37.2298 27.9803L38.513 29.2545L45.1636 22.6753L37.5762 15.1465ZM28.9497 38.7084L23.7748 33.5758L20.9306 41.2198L21.7402 41.5158C21.9966 41.6093 22.2046 41.7998 22.3187 42.046C22.4332 42.2915 22.444 42.5722 22.3492 42.8256L21.6651 44.6614L22.295 45.2868L28.9497 38.7084ZM21.5695 47.4537C21.5676 47.4518 21.5653 47.4505 21.5634 47.4487L20.8798 46.7689L19.3657 50.8318L22.1771 48.0572L21.5695 47.4537ZM16.6228 53.5402L17.5582 52.6165L14.6085 51.5395L16.6228 53.5402ZM2.40992 46.8541H7.54641H16.9264V41.2225V39.0878H16.0666H3.26974H2.40992V46.8541V46.8541Z" fill="black"/>
</svg>
