<svg width="167" height="47" viewBox="0 0 167 47" xmlns="http://www.w3.org/2000/svg">

  <path
    d="M88.3702 39.2538H88.2327C82.996 39.2538 77.648 37.121 72.9087 35.2434C70.8336 34.419 68.9091 33.6601 67.1417 33.1237C68.8148 29.7147 70.2411 26.1903 71.4097 22.5775L71.881 21.269C74.3279 21.3023 76.7042 20.4494 78.5709 18.868C79.8107 17.8748 80.6329 16.4531 80.8751 14.8837C80.9356 14.3689 80.8844 13.847 80.7252 13.3537C80.5659 12.8604 80.3023 12.4071 79.9521 12.0247C79.5856 11.6716 79.1495 11.3985 78.6717 11.2228C78.1939 11.0471 77.6848 10.9726 77.1767 11.0041C74.6826 11.0761 72.2606 13.5752 70.5325 17.8604C70.4278 18.1178 70.323 18.386 70.2183 18.6651C67.3381 18.0109 64.9816 15.3547 64.0193 13.3724C63.1094 11.5471 60.8707 12.3126 61.689 14.1575C62.8279 16.7744 65.6623 20.0456 69.3804 20.9877L69.0924 21.8055C67.9927 24.9589 66.474 29.2572 64.6739 32.5545C64.0026 32.43 63.3208 32.3709 62.6381 32.3778C58.2785 32.4498 55.6929 34.8247 55.7125 37.0752C55.7125 38.4949 56.8581 39.9211 59.3651 39.9211C61.8722 39.9211 64.0782 38.05 65.8653 35.3415C67.9483 35.971 69.9977 36.7069 72.0054 37.5463C76.9541 39.509 82.5509 41.7203 88.2262 41.7203H88.3833C93.1095 41.6876 96.6443 40.4118 99.0008 37.6902C100.218 36.2836 98.7259 34.4648 97.037 36.1789C95.0798 38.2201 92.337 39.2538 88.3702 39.2538ZM77.2421 13.4248H77.3076C77.6241 13.403 77.9372 13.5011 78.1847 13.6995C78.39 13.9901 78.4744 14.3489 78.4204 14.7005C78.2202 15.6129 77.7117 16.4285 76.9803 17.0099C75.8155 18.0085 74.3658 18.615 72.8367 18.7437C74.4012 14.8837 76.2013 13.4705 77.2748 13.4444L77.2421 13.4248ZM59.3913 37.4612C58.7367 37.4612 58.1869 37.278 58.1869 37.0425C58.1869 36.4341 59.4961 34.8705 62.7101 34.8181H62.841C62.9851 34.8181 63.1356 34.8181 63.2862 34.8181C62.0621 36.4275 60.7725 37.4612 59.3913 37.4612Z"
    fill="#1D1D1B" />
  <path
    d="M111.523 19.0379C111.877 19.0392 112.224 18.9354 112.518 18.7396C112.813 18.5439 113.043 18.265 113.179 17.9384C113.316 17.6118 113.351 17.2521 113.283 16.905C113.214 16.558 113.044 16.2391 112.793 15.9889C112.543 15.7388 112.224 15.5685 111.877 15.4998C111.529 15.4311 111.17 15.467 110.843 15.603C110.516 15.739 110.237 15.969 110.041 16.2637C109.845 16.5584 109.741 16.9046 109.743 17.2584C109.743 17.7304 109.93 18.183 110.264 18.5167C110.598 18.8504 111.051 19.0379 111.523 19.0379V19.0379ZM111.523 16.8332C111.608 16.8319 111.691 16.8557 111.761 16.9016C111.832 16.9475 111.888 17.0135 111.921 17.0911C111.954 17.1687 111.963 17.2544 111.948 17.3373C111.932 17.4202 111.892 17.4966 111.833 17.5567C111.774 17.6168 111.698 17.658 111.615 17.6749C111.532 17.6919 111.447 17.6839 111.368 17.6519C111.29 17.6199 111.223 17.5654 111.176 17.4953C111.129 17.4253 111.104 17.3428 111.104 17.2584C111.104 17.1467 111.148 17.0396 111.227 16.96C111.305 16.8804 111.411 16.8349 111.523 16.8332V16.8332Z"
    fill="#1D1D1B" />
  <path
    d="M164.748 29.5384C164.441 31.645 162.7 33.3787 160.919 32.2992C159.571 31.4815 159.963 28.4785 161.043 25.9597C161.698 24.4419 159.531 23.4017 159.04 25.3055C158.176 28.6094 156.167 31.9263 153.018 31.8478C152.623 31.8131 152.241 31.689 151.901 31.485C151.56 31.281 151.271 31.0024 151.054 30.6702C150.4 29.7608 150.315 28.4851 150.74 26.9869C150.997 25.9335 151.512 24.9605 152.239 24.1554C152.966 23.3503 153.881 22.7383 154.903 22.3745C155.879 22.0877 156.905 22.0211 157.91 22.1795C158.914 22.3379 159.87 22.7174 160.71 23.2905C162.313 24.3045 163.132 22.3353 161.809 21.5371C160.682 20.8191 159.411 20.3562 158.086 20.1811C156.76 20.0059 155.413 20.1226 154.137 20.5231C152.793 20.9558 151.581 21.7233 150.616 22.7535C149.651 23.7836 148.963 25.0423 148.619 26.4112C148.502 26.8076 148.415 27.2122 148.357 27.6215C147.886 31.3506 144.391 33.4245 143.435 31.3441C143.33 31.0644 143.296 30.7629 143.337 30.4669C143.379 30.171 143.493 29.89 143.671 29.6496C145.719 26.4242 146.348 24.298 145.693 22.7605C145.473 22.2783 145.134 21.8597 144.709 21.544C144.283 21.2282 143.784 21.0255 143.258 20.9549C141.294 20.5427 139.481 21.6941 137.923 24.3896C136.889 26.1756 135.959 29.9571 135.305 31.6188C135.01 32.3647 134.284 32.2142 134.46 31.3768C134.761 29.9571 136.195 26.8364 137.21 24.0232C138.401 20.6932 134.382 19.9473 133.478 22.8914C130.611 32.2207 128.045 33.2871 126.854 31.5534C126.101 30.4543 126.913 28.1318 127.561 26.228C128.288 24.5204 126.075 23.7681 125.702 25.3578C124.641 29.8197 122.023 31.9002 119.536 31.9002C119.17 31.8819 118.813 31.7797 118.493 31.6016C118.173 31.4235 117.898 31.1742 117.69 30.873C116.996 29.9375 116.871 28.5897 117.343 27.0654C118.043 24.7887 119.667 22.0736 123.444 22.0736C124.773 22.0988 126.052 22.5844 127.063 23.4475C128.32 24.6055 130.042 23.2185 128.51 21.7661C127.201 20.51 125.283 20.0913 123.417 20.0913C119.49 20.0913 116.511 22.2502 115.228 26.3981C113.677 31.1478 111.412 31.9394 110.758 32.0703C110.474 32.1455 110.176 32.1419 109.894 32.0601C109.613 31.9782 109.359 31.8211 109.16 31.6058C108.676 31.0366 108.624 30.1076 109.016 29.0608C109.769 27.0392 111.137 24.4288 111.523 23.1727C111.66 22.9197 111.726 22.6342 111.713 22.3468C111.7 22.0594 111.608 21.7811 111.449 21.5416C111.289 21.3021 111.068 21.1106 110.807 20.9876C110.547 20.8647 110.258 20.8149 109.972 20.8436C108.388 20.8436 107.282 21.6941 106.503 23.8597C105.193 27.4841 102.647 31.8151 100.238 31.8151C99.5378 31.8151 99.2891 31.5796 99.1516 31.3702C98.5952 30.5394 98.8374 28.5374 99.42 26.7906C99.4789 26.6401 103.066 17.8146 104.002 15.2434C104.369 14.2032 104.153 12.4564 102.516 12.4564H100.552C100.4 12.4447 100.248 12.4645 100.104 12.5146C99.9597 12.5647 99.8277 12.644 99.7158 12.7475C99.6039 12.851 99.5147 12.9765 99.4537 13.1161C99.3926 13.2557 99.3611 13.4064 99.3611 13.5588C99.3611 13.7111 99.3926 13.8618 99.4537 14.0015C99.5147 14.1411 99.6039 14.2666 99.7158 14.3701C99.8277 14.4736 99.9597 14.5529 100.104 14.603C100.248 14.6531 100.4 14.6729 100.552 14.6612H101.128C101.217 14.6502 101.307 14.6639 101.388 14.7006C101.469 14.7374 101.539 14.7959 101.589 14.8697C101.639 14.9434 101.668 15.0296 101.672 15.1186C101.676 15.2076 101.656 15.2961 101.613 15.3743C100.631 17.8669 97.5347 25.6065 97.5347 25.6065C96.2256 29.4337 93.9607 31.8674 91.7809 31.802C91.3855 31.7709 91.0026 31.649 90.662 31.4459C90.3214 31.2428 90.0323 30.9639 89.8171 30.631C89.4776 30.0668 89.279 29.4293 89.238 28.7723C89.1969 28.1152 89.3148 27.458 89.5814 26.856C89.8048 26.0731 90.2126 25.3551 90.7706 24.7621C91.3287 24.1691 92.0208 23.7183 92.7889 23.4475C93.7838 23.1081 94.8576 23.074 95.8721 23.3494C97.4627 23.8662 98.2024 21.7399 96.7361 21.2951C95.2579 20.8581 93.6846 20.8581 92.2063 21.2951C90.6681 21.7727 88.6061 22.9895 87.4998 26.0906C86.0335 30.1861 82.5642 32.6329 79.0686 32.1161C77.838 31.9263 75.0363 31.0889 75.5731 27.4841C76.0051 24.6055 78.0409 22.5316 80.4367 22.5316H80.476C82.0732 22.5316 82.7998 23.1858 82.9046 24.0167C82.9693 24.477 82.9022 24.9463 82.711 25.37C82.5199 25.7938 82.2125 26.1548 81.8245 26.4112C80.7896 27.03 79.5792 27.2899 78.3813 27.1504C76.5223 26.8429 76.2604 29.1131 78.1064 29.3159C79.8685 29.5486 81.6559 29.1449 83.1468 28.1776C83.7949 27.6963 84.3136 27.062 84.6563 26.3312C84.999 25.6005 85.1551 24.7963 85.1106 23.9905C85.0713 22.2568 83.2973 20.3791 80.5284 20.353H80.4695C76.9739 20.353 74.0152 23.212 73.426 27.1831C72.8631 30.9319 74.9578 33.7255 78.761 34.3274C79.1944 34.3923 79.632 34.4251 80.0702 34.4255C81.4819 34.3843 82.8674 34.0336 84.1286 33.3983C85.3898 32.7629 86.496 31.8584 87.3689 30.7487C87.5204 31.1518 87.7181 31.536 87.958 31.8936C88.3703 32.5164 88.9235 33.0334 89.5729 33.4028C90.2222 33.7722 90.9495 33.9836 91.6958 34.0199H91.8398C93.6268 34.0199 95.3484 33.0843 96.8016 31.4029C96.9063 31.8248 97.0788 32.2269 97.3122 32.5936C97.6358 33.063 98.0752 33.441 98.5878 33.6908C99.1004 33.9407 99.6689 34.054 100.238 34.0199C104.166 34.0199 106.961 27.0654 108.041 24.0625C108.499 22.7998 109.154 23.1269 108.833 23.8531C108.237 25.1616 107.465 26.8102 106.948 28.1972C106.293 30.0094 106.457 31.7366 107.478 32.9404C107.83 33.3549 108.268 33.687 108.762 33.9131C109.257 34.1393 109.795 34.2539 110.339 34.2489C110.622 34.2462 110.905 34.2177 111.183 34.1638C112.027 34.0002 113.742 33.3853 115.34 31.1347C115.49 31.4799 115.679 31.8069 115.903 32.1095C116.317 32.6875 116.861 33.161 117.49 33.4926C118.12 33.8242 118.818 34.0047 119.529 34.0199C120.727 34.0199 122.593 33.5685 124.537 31.3571C124.589 31.7182 124.69 32.0704 124.838 32.4039C125.005 32.7838 125.254 33.1217 125.567 33.3933C125.881 33.6649 126.251 33.8633 126.651 33.9741C126.953 34.0628 127.266 34.1069 127.581 34.1049C128.209 34.1006 128.825 33.9314 129.368 33.6142C131.43 32.4497 133.184 28.8514 134.794 23.2512C135.069 22.283 135.612 22.6755 135.357 23.5914C134.925 25.155 133.073 28.9823 132.516 31.6319C131.862 34.8311 136.391 34.8311 137.164 31.7301C138.336 27.0654 140.869 22.2502 142.806 23.0484C143.762 23.4475 144.417 24.5989 141.811 28.4066C141.383 28.9759 141.129 29.6576 141.081 30.3686C141.034 31.0796 141.194 31.7891 141.543 32.4105C141.867 32.9331 142.332 33.3539 142.884 33.6247C143.436 33.8955 144.054 34.0052 144.666 33.9414C145.471 33.8759 147.192 33.4572 148.855 31.2067C148.97 31.4477 149.104 31.6795 149.254 31.9002C149.664 32.4942 150.198 32.9917 150.82 33.3578C151.442 33.724 152.136 33.9499 152.854 34.0199C153.018 34.0199 153.175 34.0199 153.339 34.0199C155.113 34.0199 156.684 33.1694 158.124 31.4029C158.214 31.9088 158.411 32.3896 158.702 32.8128C158.993 33.236 159.372 33.5919 159.813 33.8563C160.429 34.2074 161.126 34.3901 161.835 34.3862C162.608 34.3791 163.366 34.1861 164.048 33.8236C164.757 33.4411 165.378 32.9156 165.873 32.2804C166.367 31.6452 166.725 30.9142 166.922 30.1337C167.517 27.8374 165.089 27.1962 164.748 29.5384Z"
    fill="#1D1D1B" />
  <path
    d="M25.7187 9.81262L13.2814 27.5685C10.7547 31.1798 7.10202 31.0751 4.77167 29.4527C2.44132 27.8302 1.16486 24.5001 3.70468 20.8691C3.70468 20.8691 15.939 3.45349 16.9537 1.96184C17.9683 0.470189 16.0176 -0.772851 15.0553 0.653374L1.80636 19.541C1.07933 20.4992 0.556667 21.5962 0.270686 22.7642C-0.0152959 23.9323 -0.0585181 25.1466 0.143691 26.332C0.54532 28.3211 1.68989 30.0826 3.34466 31.2583V31.2583L23.7483 45.5206C27.0868 47.83 32.173 47.7188 35.4459 43.041L47.8832 25.2525C48.9502 23.9048 48.7211 22.3281 47.5756 21.5495C47.5756 21.5495 31.9308 10.5715 29.5153 8.93595C28.0818 7.96114 26.7137 8.40602 25.7187 9.81262ZM46.1616 23.6954L39.4455 33.293L35.4459 30.4994C36.0786 29.1338 36.2105 27.5893 35.8186 26.1363C35.4266 24.6833 34.5357 23.4144 33.3019 22.5518C32.0681 21.6892 30.5701 21.2878 29.07 21.4179C27.5699 21.5481 26.1634 22.2014 25.0968 23.2636L21.0972 20.4701L27.8723 10.7874C27.8852 10.7723 27.9012 10.7601 27.9193 10.7517C27.9374 10.7433 27.9571 10.739 27.977 10.739C27.997 10.739 28.0166 10.7433 28.0347 10.7517C28.0528 10.7601 28.0689 10.7723 28.0818 10.7874C29.679 11.9062 46.0045 23.2898 46.1093 23.3879C46.154 23.424 46.184 23.4751 46.1937 23.5318C46.2033 23.5884 46.1919 23.6466 46.1616 23.6954V23.6954ZM32.9716 30.1854C32.5049 30.8506 31.8513 31.3626 31.0934 31.6566C30.3356 31.9506 29.5076 32.0135 28.714 31.8373C27.9205 31.661 27.197 31.2536 26.6351 30.6664C26.0732 30.0793 25.6981 29.3389 25.5571 28.5387C25.4162 27.7385 25.5159 26.9145 25.8434 26.171C26.171 25.4274 26.7118 24.7975 27.3975 24.3611C28.0832 23.9246 28.8829 23.7012 29.6956 23.7189C30.5084 23.7367 31.2976 23.9949 31.9635 24.4609C32.4059 24.7705 32.783 25.1642 33.0731 25.6195C33.3633 26.0748 33.5608 26.5827 33.6544 27.1144C33.748 27.646 33.7359 28.1908 33.6187 28.7178C33.5016 29.2447 33.2817 29.7434 32.9716 30.1854V30.1854ZM25.0641 43.6233L9.49129 32.7434C10.6527 32.5213 11.7572 32.0665 12.7381 31.4065C13.7191 30.7465 14.5563 29.895 15.1994 28.9031L19.7815 22.3608L23.7811 25.1544C23.162 26.5175 23.0392 28.054 23.4338 29.498C23.8285 30.9421 24.7158 32.2028 25.9422 33.0622C27.1686 33.9215 28.657 34.3253 30.1498 34.2038C31.6426 34.0823 33.046 33.4431 34.1171 32.3967L38.1167 35.1903L33.5345 41.7326C31.0274 45.3178 27.3879 45.2327 25.0641 43.6233Z"
    fill="#F1C0B2" />
  <path
    d="M20.0961 5.58706C20.2808 5.33493 20.3608 5.02116 20.3193 4.71143C20.2778 4.4017 20.1181 4.12001 19.8735 3.92531C19.6023 3.75301 19.274 3.69484 18.9601 3.76347C18.6462 3.83209 18.3722 4.02196 18.1978 4.29168L4.71312 23.5523C4.52069 23.8081 4.43684 24.1293 4.47972 24.4465C4.5226 24.7636 4.68877 25.0511 4.94223 25.2467C5.07717 25.331 5.22741 25.3878 5.38434 25.414C5.54128 25.4402 5.70185 25.4353 5.85687 25.3994C6.01189 25.3636 6.15832 25.2976 6.28779 25.2051C6.41727 25.1127 6.52725 24.9957 6.61144 24.8607L20.0961 5.58706Z"
    fill="#F1C0B2" />
  <path
    d="M23.9322 8.26257C24.0367 8.13916 24.1142 7.99523 24.1597 7.84007C24.2052 7.6849 24.2177 7.52194 24.1963 7.36166C24.175 7.20139 24.1203 7.04735 24.0358 6.90948C23.9512 6.77161 23.8388 6.65296 23.7056 6.56116C23.5724 6.46937 23.4215 6.40646 23.2625 6.3765C23.1035 6.34654 22.94 6.35018 22.7826 6.3872C22.6251 6.42422 22.4771 6.49378 22.3481 6.59142C22.2192 6.68906 22.1121 6.81261 22.0338 6.95411L8.54921 26.2147C8.43542 26.3371 8.34933 26.4826 8.29679 26.6413C8.24426 26.8 8.22651 26.9681 8.24474 27.1342C8.26298 27.3003 8.31678 27.4606 8.40249 27.6041C8.4882 27.7476 8.60381 27.871 8.74146 27.9658C8.87911 28.0607 9.03559 28.1249 9.20025 28.1539C9.36492 28.183 9.53392 28.1763 9.69577 28.1343C9.85762 28.0923 10.0085 28.016 10.1382 27.9106C10.268 27.8051 10.3734 27.673 10.4475 27.5231L23.9322 8.26257Z"
    fill="#F1C0B2" />
  <path
    d="M42.6535 24.5467C42.8283 24.295 42.8962 23.9842 42.8422 23.6825C42.7882 23.3809 42.6168 23.1129 42.3654 22.9373L41.4228 22.2831C41.1717 22.1077 40.8613 22.0388 40.5596 22.0915C40.2578 22.1442 39.9892 22.3143 39.8125 22.5644V22.5644C39.7205 22.6897 39.6546 22.8323 39.6189 22.9836C39.5831 23.135 39.5783 23.2919 39.6045 23.4452C39.6308 23.5984 39.6877 23.7448 39.7718 23.8756C39.8559 24.0064 39.9654 24.119 40.094 24.2065L41.0432 24.8608C41.2951 25.0355 41.606 25.1033 41.9078 25.0494C42.2097 24.9954 42.4778 24.8241 42.6535 24.5729V24.5467Z"
    fill="#F1C0B2" />
  <path
    d="M102.771 37.5199H104.205C104.378 37.4975 104.555 37.5124 104.722 37.5638C104.889 37.6151 105.043 37.7017 105.174 37.8176C105.305 37.9335 105.409 38.0761 105.481 38.2358C105.552 38.3955 105.588 38.5685 105.586 38.7433C105.586 39.5611 104.932 39.9863 104.133 39.9863H103.426V41.1509H102.771V37.5199ZM104.153 39.4106C104.637 39.4106 104.938 39.1358 104.938 38.7564C104.938 38.3769 104.631 38.1022 104.153 38.1022H103.426V39.4106H104.153Z"
    fill="#1D1D1B" />
  <path
    d="M109.429 37.5195H110.083V39.0308H111.818V37.5195H112.473V41.1505H111.818V39.6196H110.083V41.1505H109.429V37.5195Z"
    fill="#1D1D1B" />
  <path
    d="M116.406 39.3388C116.402 38.9624 116.511 38.5934 116.717 38.2787C116.924 37.964 117.219 37.7178 117.566 37.5714C117.913 37.4249 118.296 37.3849 118.665 37.4564C119.035 37.5279 119.375 37.7077 119.642 37.9729C119.909 38.2381 120.092 38.5767 120.166 38.9457C120.24 39.3147 120.203 39.6974 120.058 40.0451C119.914 40.3928 119.67 40.6899 119.357 40.8984C119.043 41.107 118.675 41.2177 118.298 41.2164C118.05 41.2208 117.803 41.1753 117.572 41.0827C117.341 40.99 117.132 40.8521 116.955 40.6771C116.779 40.502 116.639 40.2934 116.545 40.0635C116.451 39.8336 116.404 39.5872 116.406 39.3388V39.3388ZM119.535 39.3388C119.544 39.1707 119.519 39.0025 119.461 38.8445C119.403 38.6865 119.313 38.5419 119.197 38.4196C119.082 38.2972 118.942 38.1996 118.788 38.1327C118.633 38.0658 118.467 38.031 118.298 38.0303C118.13 38.0309 117.964 38.0657 117.81 38.1328C117.656 38.1998 117.518 38.2977 117.403 38.4202C117.289 38.5428 117.2 38.6875 117.144 38.8455C117.087 39.0034 117.063 39.1713 117.074 39.3388C117.065 39.5069 117.091 39.675 117.149 39.833C117.207 39.991 117.296 40.1356 117.412 40.258C117.528 40.3803 117.667 40.4779 117.822 40.5448C117.976 40.6117 118.143 40.6466 118.311 40.6472C118.479 40.6467 118.645 40.6118 118.799 40.5447C118.953 40.4777 119.091 40.3799 119.206 40.2573C119.321 40.1347 119.409 39.99 119.466 39.8321C119.522 39.6741 119.546 39.5062 119.535 39.3388V39.3388Z"
    fill="#1D1D1B" />
  <path d="M124.89 38.1083H123.718V37.5195H126.67V38.1083H125.518V41.1505H124.864L124.89 38.1083Z" fill="#1D1D1B" />
  <path
    d="M130.218 39.3388C130.214 38.9624 130.323 38.5934 130.529 38.2787C130.736 37.964 131.031 37.7178 131.378 37.5714C131.725 37.4249 132.108 37.3849 132.477 37.4564C132.847 37.5279 133.187 37.7077 133.454 37.9729C133.721 38.2381 133.904 38.5767 133.978 38.9457C134.052 39.3147 134.015 39.6974 133.87 40.0451C133.726 40.3928 133.482 40.6899 133.169 40.8984C132.855 41.107 132.487 41.2177 132.11 41.2164C131.862 41.2208 131.615 41.1753 131.384 41.0827C131.153 40.99 130.944 40.8521 130.767 40.6771C130.591 40.502 130.452 40.2934 130.357 40.0635C130.263 39.8336 130.216 39.5872 130.218 39.3388V39.3388ZM133.347 39.3388C133.355 39.1709 133.329 39.0031 133.271 38.8455C133.212 38.6879 133.123 38.5437 133.007 38.4216C132.892 38.2994 132.753 38.2018 132.599 38.1346C132.444 38.0673 132.278 38.0319 132.11 38.0303C131.849 38.0159 131.589 38.0802 131.364 38.215C131.14 38.3497 130.961 38.5487 130.851 38.7862C130.74 39.0236 130.704 39.2887 130.746 39.547C130.788 39.8054 130.907 40.0452 131.087 40.2355C131.267 40.4257 131.499 40.5577 131.755 40.6143C132.011 40.6709 132.278 40.6495 132.521 40.553C132.765 40.4564 132.973 40.2891 133.121 40.0726C133.268 39.8562 133.347 39.6005 133.347 39.3388Z"
    fill="#1D1D1B" />
  <path
    d="M137.988 37.5195H139.618C139.965 37.4964 140.306 37.6117 140.567 37.8401C140.647 37.921 140.71 38.0172 140.751 38.1229C140.793 38.2286 140.813 38.3416 140.81 38.4551C140.813 38.6254 140.766 38.7929 140.674 38.9362C140.582 39.0796 140.449 39.1922 140.292 39.2598C140.498 39.3023 140.682 39.415 140.814 39.5786C140.945 39.7422 141.015 39.9463 141.013 40.1561C141.013 40.8103 140.476 41.1505 139.703 41.1505H137.988V37.5195ZM139.487 39.0504C139.893 39.0504 140.142 38.8869 140.142 38.5467C140.142 38.2065 139.913 38.0887 139.487 38.0887H138.564V39.0504H139.487ZM139.671 40.5879C140.109 40.5879 140.371 40.4178 140.371 40.0776C140.371 39.7374 140.129 39.5869 139.625 39.5869H138.61V40.5617L139.671 40.5879Z"
    fill="#1D1D1B" />
  <path
    d="M144.744 39.3387C144.74 38.9621 144.848 38.5929 145.055 38.278C145.262 37.9632 145.558 37.7169 145.905 37.5707C146.252 37.4245 146.635 37.3849 147.005 37.4569C147.375 37.5289 147.715 37.7094 147.982 37.9752C148.249 38.2411 148.431 38.5803 148.504 38.9498C148.577 39.3192 148.539 39.7021 148.394 40.0497C148.249 40.3973 148.004 40.6938 147.689 40.9016C147.375 41.1094 147.006 41.219 146.629 41.2164C146.381 41.2199 146.135 41.1738 145.905 41.0807C145.675 40.9877 145.466 40.8496 145.29 40.6746C145.115 40.4997 144.976 40.2913 144.882 40.0619C144.788 39.8325 144.741 39.5866 144.744 39.3387V39.3387ZM147.873 39.3387C147.882 39.1706 147.856 39.0025 147.798 38.8445C147.74 38.6864 147.65 38.5419 147.535 38.4195C147.419 38.2972 147.28 38.1996 147.125 38.1327C146.971 38.0658 146.804 38.0309 146.636 38.0303C146.468 38.0308 146.302 38.0657 146.148 38.1328C145.994 38.1998 145.855 38.2976 145.741 38.4202C145.626 38.5428 145.538 38.6875 145.481 38.8454C145.424 39.0034 145.401 39.1713 145.411 39.3387C145.403 39.5068 145.428 39.675 145.486 39.833C145.544 39.991 145.634 40.1356 145.749 40.2579C145.865 40.3803 146.005 40.4779 146.159 40.5448C146.314 40.6117 146.48 40.6465 146.649 40.6472C146.817 40.6466 146.983 40.6118 147.136 40.5447C147.29 40.4777 147.429 40.3798 147.544 40.2573C147.658 40.1347 147.747 39.99 147.803 39.832C147.86 39.6741 147.883 39.5062 147.873 39.3387V39.3387Z"
    fill="#1D1D1B" />
  <path
    d="M152.318 39.3382C152.312 38.9603 152.42 38.5894 152.626 38.2728C152.833 37.9561 153.129 37.708 153.477 37.5601C153.825 37.4122 154.209 37.3711 154.58 37.4421C154.952 37.5131 155.293 37.693 155.562 37.9588C155.831 38.2247 156.014 38.5644 156.089 38.9349C156.164 39.3053 156.127 39.6896 155.983 40.0389C155.838 40.3882 155.593 40.6867 155.279 40.8963C154.964 41.1058 154.594 41.2171 154.216 41.2158C153.967 41.2211 153.719 41.1763 153.488 41.084C153.256 40.9918 153.046 40.854 152.869 40.6788C152.692 40.5037 152.552 40.2948 152.457 40.0645C152.362 39.8341 152.315 39.5872 152.318 39.3382V39.3382ZM155.447 39.3382C155.455 39.1706 155.43 39.003 155.372 38.8454C155.315 38.6879 155.226 38.5436 155.111 38.4213C154.996 38.2991 154.857 38.2013 154.703 38.134C154.55 38.0667 154.384 38.0312 154.216 38.0297C153.954 38.014 153.694 38.0772 153.468 38.2111C153.243 38.3449 153.063 38.5434 152.952 38.7807C152.841 39.0179 152.803 39.2831 152.844 39.5419C152.886 39.8007 153.004 40.0411 153.183 40.232C153.363 40.4229 153.596 40.5556 153.852 40.6127C154.108 40.6699 154.375 40.649 154.618 40.5527C154.862 40.4564 155.072 40.2892 155.219 40.0726C155.367 39.8561 155.446 39.6002 155.447 39.3382Z"
    fill="#1D1D1B" />
  <path
    d="M160.087 37.5195H160.742V39.3448L162.47 37.5195H163.256L161.743 39.0831L163.321 41.1505H162.536L161.292 39.5149L160.729 40.0972V41.1505H160.074L160.087 37.5195Z"
    fill="#1D1D1B" />


</svg>