<svg width="48" height="48" viewBox="0 0 48 48" fill="none" xmlns="http://www.w3.org/2000/svg">
<path d="M0 24C0 10.7452 10.7452 0 24 0C37.2548 0 48 10.7452 48 24C48 37.2548 37.2548 48 24 48C10.7452 48 0 37.2548 0 24Z" fill="#F68634"/>
<path d="M26.5958 29.4388L30.1824 32.9014C30.9172 33.6091 30.9172 34.7586 30.1824 35.4671C29.4484 36.1757 28.2588 36.1757 27.5255 35.4671L23.9991 32.0646L20.4758 35.4671C20.1084 35.821 19.627 35.9982 19.1456 35.9982C18.665 35.9982 18.1844 35.821 17.817 35.4671C17.083 34.7586 17.083 33.6099 17.8162 32.9014L21.4033 29.4388C20.0973 29.1516 18.8378 28.6521 17.6777 27.9495C16.7997 27.4152 16.536 26.2957 17.0892 25.4475C17.6408 24.5982 18.8009 24.3425 19.6804 24.8768C22.307 26.4717 25.6906 26.4721 28.3187 24.8768C29.1981 24.3425 30.3579 24.5982 30.9107 25.4475C31.4639 26.295 31.1994 27.4152 30.3214 27.9495C29.1613 28.6529 27.9018 29.1516 26.5958 29.4388Z" fill="white"/>
<path fill-rule="evenodd" clip-rule="evenodd" d="M17.5679 18.1936C17.5679 21.6079 20.4455 24.3853 23.9838 24.3853C27.5229 24.3853 30.3997 21.6079 30.3997 18.1936C30.3997 14.7781 27.5229 12 23.9838 12C20.4455 12 17.5679 14.7781 17.5679 18.1936ZM26.6403 18.1936C26.6403 16.7795 25.4487 15.6297 23.9838 15.6297C22.52 15.6297 21.3273 16.7795 21.3273 18.1936C21.3273 19.6065 22.52 20.7571 23.9838 20.7571C25.4487 20.7571 26.6403 19.6065 26.6403 18.1936Z" fill="white"/>
</svg>
