<svg width="60" height="49" viewBox="0 0 60 49" fill="none" xmlns="http://www.w3.org/2000/svg">
  <rect opacity="0.3" width="60" height="49" rx="3" fill="white" />
  <path fill-rule="evenodd" clip-rule="evenodd"
    d="M44 17C45.6569 17 47 15.6569 47 14C47 12.3431 45.6569 11 44 11C42.3431 11 41 12.3431 41 14C41 15.6569 42.3431 17 44 17ZM44 20C47.3137 20 50 17.3137 50 14C50 10.6863 47.3137 8 44 8C40.6863 8 38 10.6863 38 14C38 17.3137 40.6863 20 44 20ZM24.6483 22.1217L11.0608 35.7092L8.93945 33.5879L24.6483 17.879L33.8944 27.1251L38.6611 22.3584L50.0608 33.758L47.9395 35.8794L38.6611 26.601L36.0157 29.2464L40.3572 33.5879L38.2359 35.7092L24.6483 22.1217Z"
    fill="white" />
</svg>