<svg width="1920" height="241" viewBox="0 0 1920 241" fill="none" xmlns="http://www.w3.org/2000/svg">
<path fill-rule="evenodd" clip-rule="evenodd" d="M1920 191.414L1840 200.56C1760 208.792 1600 226.17 1440 235.316C1280 244.463 1120 244.463 960 217.938C800 191.414 640 138.365 480 103.609C320 68.8534 160 50.5608 80 42.3291L0 33.1828V0.000244141H80C160 0.000244141 320 0.000244141 480 0.000244141C640 0.000244141 800 0.000244141 960 0.000244141C1120 0.000244141 1280 0.000244141 1440 0.000244141C1600 0.000244141 1760 0.000244141 1840 0.000244141H1920V191.414Z" fill="white"/>
</svg>
