<svg width="36" height="36" viewBox="0 0 36 36" fill="none" xmlns="http://www.w3.org/2000/svg">
<path fill-rule="evenodd" clip-rule="evenodd" d="M19.7367 9.75965e-06C19.8242 1.4528e-05 19.9119 1.92964e-05 20 1.92964e-05H36V8.00002H20C16.1157 8.00002 13.6049 8.00851 11.7548 8.25724C10.0199 8.4905 9.47609 8.8671 9.17159 9.17159C8.8671 9.47609 8.4905 10.0199 8.25724 11.7548C8.00851 13.6049 8.00002 16.1157 8.00002 20V36H1.92964e-05V20C1.92964e-05 19.9119 1.4528e-05 19.8242 9.75965e-06 19.7367C-0.000189558 16.1908 -0.000360757 13.1355 0.328581 10.6889C0.681109 8.06679 1.47609 5.55339 3.51474 3.51474C5.55339 1.47609 8.06679 0.681109 10.6889 0.328581C13.1355 -0.000360757 16.1908 -0.000189558 19.7367 9.75965e-06Z" fill="#F1C0B2"/>
</svg>
