<svg width="36" height="36" viewBox="0 0 36 36" fill="none" xmlns="http://www.w3.org/2000/svg">
<path fill-rule="evenodd" clip-rule="evenodd" d="M36 19.7367C36 19.8242 36 19.9119 36 20L36 36L28 36L28 20C28 16.1157 27.9915 13.6049 27.7428 11.7548C27.5095 10.0199 27.1329 9.47609 26.8284 9.17159C26.5239 8.8671 25.9801 8.4905 24.2452 8.25724C22.3951 8.00851 19.8843 8.00002 16 8.00002L-1.94232e-05 8.00002L-1.90735e-05 1.77228e-05L16 1.84222e-05C16.0881 1.8426e-05 16.1758 1.36615e-05 16.2633 8.89694e-06C19.8092 -0.000190266 22.8645 -0.000361331 25.3111 0.328581C27.9332 0.681109 30.4466 1.47609 32.4853 3.51474C34.5239 5.55339 35.3189 8.06679 35.6714 10.6889C36.0004 13.1355 36.0002 16.1908 36 19.7367Z" fill="#F1C0B2"/>
</svg>
