<svg width="36" height="36" viewBox="0 0 36 36" fill="none" xmlns="http://www.w3.org/2000/svg">
<path fill-rule="evenodd" clip-rule="evenodd" d="M19.7367 36C19.8242 36 19.9119 36 20 36H36V28H20C16.1157 28 13.6049 27.9915 11.7548 27.7428C10.0199 27.5095 9.47609 27.1329 9.17159 26.8284C8.8671 26.5239 8.4905 25.9801 8.25724 24.2452C8.00851 22.3951 8.00002 19.8843 8.00002 16V-1.90735e-05H1.92964e-05V16C1.92964e-05 16.0881 1.4528e-05 16.1758 9.75965e-06 16.2633C-0.000189558 19.8092 -0.000360757 22.8645 0.328581 25.3111C0.681109 27.9332 1.47609 30.4466 3.51474 32.4853C5.55339 34.5239 8.06679 35.3189 10.6889 35.6714C13.1355 36.0004 16.1908 36.0002 19.7367 36Z" fill="#F1C0B2"/>
</svg>
