<svg width="113" height="81" viewBox="0 0 113 81" fill="none" xmlns="http://www.w3.org/2000/svg">
  <path fill-rule="evenodd" clip-rule="evenodd"
    d="M33.2327 78.2538H33.3702C37.337 78.2538 40.0798 77.2201 42.037 75.1789C43.7259 73.4648 45.2184 75.2836 44.0008 76.6902C41.6443 79.4118 38.1095 80.6876 33.3833 80.7203H33.2262C27.5509 80.7203 21.9541 78.509 17.0054 76.5463C14.9977 75.7069 12.9483 74.971 10.8653 74.3415C9.07823 77.05 6.87224 78.9211 4.36515 78.9211C1.85805 78.9211 0.712513 77.4949 0.712513 76.0752C0.692876 73.8247 3.27852 71.4498 7.63812 71.3778C8.32083 71.3709 9.00261 71.43 9.67391 71.5545C11.474 68.2572 12.9927 63.9589 14.0924 60.8055L14.3804 59.9877C10.6623 59.0456 7.82795 55.7744 6.68895 53.1575C5.87071 51.3126 8.10943 50.5471 9.01931 52.3724C9.98157 54.3547 12.3381 57.0109 15.2183 57.6651C15.323 57.386 15.4278 57.1178 15.5325 56.8604C17.2606 52.5752 19.6826 50.0761 22.1767 50.0041C22.6848 49.9726 23.1939 50.0471 23.6717 50.2228C24.1495 50.3985 24.5856 50.6716 24.9521 51.0247C25.3023 51.4071 25.5659 51.8604 25.7252 52.3537C25.8844 52.847 25.9356 53.3689 25.8751 53.8837C25.6329 55.4531 24.8107 56.8748 23.5709 57.868C21.7042 59.4494 19.3279 60.3023 16.881 60.269L16.4097 61.5775C15.2411 65.1903 13.8148 68.7147 12.1417 72.1237C13.9091 72.6601 15.8336 73.419 17.9087 74.2434L18.0031 74.2808L18.0031 74.2808C22.7189 76.1492 28.0307 78.2538 33.2327 78.2538ZM22.3076 52.4248H22.2421L22.2748 52.4444C21.2013 52.4705 19.4012 53.8837 17.8367 57.7437C19.3658 57.615 20.8155 57.0085 21.9803 56.0099C22.7117 55.4285 23.2202 54.6129 23.4204 53.7005C23.4744 53.3489 23.39 52.9901 23.1847 52.6995C22.9372 52.5011 22.6241 52.403 22.3076 52.4248ZM3.18688 76.0425C3.18688 76.278 3.73674 76.4612 4.39133 76.4612C5.77253 76.4612 7.06208 75.4275 8.28617 73.8181H7.84104H7.71012C4.49607 73.8705 3.18688 75.4341 3.18688 76.0425ZM57.5185 57.7396C57.2236 57.9354 56.8772 58.0392 56.5232 58.0379C56.051 58.0379 55.5981 57.8504 55.2642 57.5167C54.9303 57.183 54.7427 56.7304 54.7427 56.2584C54.7414 55.9046 54.8453 55.5584 55.0411 55.2637C55.237 54.969 55.516 54.739 55.8428 54.603C56.1696 54.467 56.5295 54.4311 56.8768 54.4998C57.224 54.5685 57.543 54.7388 57.7933 54.9889C58.0437 55.2391 58.214 55.558 58.2827 55.905C58.3515 56.2521 58.3155 56.6118 58.1795 56.9384C58.0434 57.265 57.8133 57.5439 57.5185 57.7396ZM56.7613 55.9016C56.6905 55.8557 56.6076 55.8319 56.5232 55.8332C56.4115 55.8349 56.3049 55.8804 56.2265 55.96C56.1482 56.0396 56.1042 56.1467 56.1042 56.2584C56.1043 56.3428 56.1294 56.4253 56.1764 56.4953C56.2235 56.5654 56.2903 56.6199 56.3685 56.6519C56.4466 56.6839 56.5325 56.6919 56.6152 56.6749C56.6979 56.658 56.7737 56.6168 56.8329 56.5567C56.8922 56.4966 56.9322 56.4202 56.9478 56.3373C56.9635 56.2544 56.9541 56.1687 56.9209 56.0911C56.8877 56.0135 56.8322 55.9475 56.7613 55.9016ZM109.748 68.5384C109.441 70.645 107.7 72.3787 105.919 71.2992C104.571 70.4815 104.963 67.4785 106.043 64.9597C106.698 63.4419 104.531 62.4017 104.04 64.3055C103.176 67.6094 101.167 70.9263 98.0181 70.8478C97.6229 70.8131 97.2408 70.689 96.9006 70.485C96.5604 70.281 96.271 70.0024 96.0543 69.6702C95.3997 68.7608 95.3147 67.4851 95.7401 65.9869C95.9973 64.9335 96.5124 63.9605 97.2391 63.1554C97.9658 62.3503 98.8813 61.7383 99.9034 61.3745C100.879 61.0877 101.905 61.0211 102.91 61.1795C103.914 61.3379 104.87 61.7174 105.71 62.2905C107.313 63.3045 108.132 61.3353 106.809 60.5371C105.682 59.8191 104.411 59.3562 103.086 59.1811C101.76 59.0059 100.413 59.1226 99.1375 59.5231C97.7933 59.9558 96.5814 60.7233 95.616 61.7535C94.6506 62.7836 93.9635 64.0423 93.6192 65.4112C93.5024 65.8076 93.4149 66.2122 93.3574 66.6215C92.8861 70.3506 89.3906 72.4245 88.4349 70.3441C88.3297 70.0644 88.2962 69.7629 88.3374 69.4669C88.3786 69.171 88.4931 68.89 88.6705 68.6496C90.7194 65.4242 91.3478 63.298 90.6932 61.7605C90.4732 61.2783 90.1344 60.8597 89.7086 60.544C89.2827 60.2282 88.7837 60.0255 88.2581 59.9549C86.2943 59.5427 84.4811 60.6941 82.9232 63.3896C82.2483 64.5551 81.618 66.5702 81.0796 68.2916L81.0795 68.2917C80.7929 69.2082 80.5322 70.0415 80.3048 70.6188C80.0102 71.3647 79.2836 71.2142 79.4604 70.3768C79.6419 69.5211 80.2348 68.0475 80.8993 66.3957L80.8995 66.3952L80.8996 66.395C81.3376 65.3065 81.8067 64.1406 82.2097 63.0232C83.401 59.6932 79.3818 58.9473 78.4785 61.8914C75.6114 71.2207 73.0454 72.2871 71.854 70.5534C71.1148 69.4741 71.8842 67.215 72.5258 65.3312L72.561 65.228C73.2876 63.5204 71.075 62.7681 70.7019 64.3578C69.6415 68.8197 67.0231 70.9002 64.5356 70.9002C64.1698 70.8819 63.813 70.7797 63.4929 70.6016C63.1728 70.4235 62.898 70.1742 62.6897 69.873C61.9958 68.9375 61.8714 67.5897 62.3427 66.0654C63.0432 63.7887 64.6666 61.0736 68.4436 61.0736C69.773 61.0988 71.0524 61.5844 72.0635 62.4475C73.3203 63.6055 75.0419 62.2185 73.5101 60.7661C72.2009 59.51 70.283 59.0913 68.4174 59.0913C64.4898 59.0913 61.5114 61.2502 60.2284 65.3981C58.677 70.1478 56.4121 70.9394 55.7575 71.0703C55.4742 71.1455 55.1757 71.1419 54.8943 71.0601C54.6128 70.9782 54.359 70.8211 54.1603 70.6058C53.6759 70.0366 53.6236 69.1076 54.0163 68.0608C54.3834 67.0749 54.8969 65.9489 55.3715 64.9083L55.3715 64.9083C55.87 63.8152 56.3256 62.8162 56.5234 62.1727C56.6604 61.9197 56.7259 61.6342 56.7128 61.3468C56.6997 61.0594 56.6085 60.7811 56.449 60.5416C56.2895 60.3021 56.0677 60.1106 55.8075 59.9876C55.5472 59.8647 55.2584 59.8149 54.972 59.8436C53.3879 59.8436 52.2816 60.6941 51.5027 62.8597C50.1935 66.4841 47.6471 70.8151 45.2382 70.8151C44.5378 70.8151 44.2891 70.5796 44.1516 70.3702C43.5952 69.5394 43.8374 67.5374 44.42 65.7906C44.4271 65.7723 44.4863 65.6263 44.5863 65.3791L44.5866 65.3784C45.3113 63.5881 48.1798 56.5022 49.0021 54.2434C49.3687 53.2032 49.1527 51.4564 47.5162 51.4564H45.5524C45.4004 51.4447 45.2477 51.4645 45.1037 51.5146C44.9597 51.5647 44.8277 51.644 44.7158 51.7475C44.6039 51.851 44.5147 51.9765 44.4537 52.1161C44.3926 52.2557 44.3611 52.4064 44.3611 52.5588C44.3611 52.7111 44.3926 52.8618 44.4537 53.0015C44.5147 53.1411 44.6039 53.2666 44.7158 53.3701C44.8277 53.4736 44.9597 53.5529 45.1037 53.603C45.2477 53.6531 45.4004 53.6729 45.5524 53.6612H46.1285C46.217 53.6502 46.3068 53.6639 46.388 53.7006C46.4692 53.7374 46.5387 53.7959 46.5888 53.8697C46.6389 53.9434 46.6677 54.0296 46.6719 54.1186C46.6762 54.2076 46.6557 54.2961 46.6129 54.3743C45.631 56.8669 42.5347 64.6065 42.5347 64.6065C41.2256 68.4337 38.9607 70.8674 36.7809 70.802C36.3855 70.7709 36.0026 70.649 35.662 70.4459C35.3214 70.2428 35.0323 69.9639 34.8171 69.631C34.4776 69.0668 34.279 68.4293 34.238 67.7723C34.1969 67.1152 34.3148 66.458 34.5814 65.856C34.8048 65.0731 35.2126 64.3551 35.7706 63.7621C36.3287 63.1691 37.0208 62.7183 37.7889 62.4475C38.7838 62.1081 39.8576 62.074 40.8721 62.3494C42.4627 62.8662 43.2024 60.7399 41.7361 60.2951C40.2579 59.8581 38.6846 59.8581 37.2063 60.2951C35.668 60.7727 33.6061 61.9895 32.4998 65.0906C31.0335 69.1861 27.5642 71.6329 24.0686 71.1161C22.838 70.9263 20.0363 70.0889 20.5731 66.4841C21.0051 63.6055 23.0409 61.5316 25.4367 61.5316H25.476C27.0732 61.5316 27.7998 62.1858 27.9046 63.0167C27.9693 63.477 27.9022 63.9463 27.711 64.37C27.5199 64.7938 27.2125 65.1548 26.8245 65.4112C25.7896 66.03 24.5792 66.2899 23.3813 66.1504C21.5223 65.8429 21.2604 68.1131 23.1064 68.3159C24.8685 68.5485 26.6559 68.1449 28.1468 67.1776C28.7949 66.6963 29.3136 66.062 29.6563 65.3312C29.999 64.6005 30.1551 63.7963 30.1105 62.9905C30.0713 61.2568 28.2973 59.3791 25.5284 59.353H25.4695C21.9739 59.353 19.0152 62.212 18.426 66.1831C17.8631 69.9319 19.9578 72.7255 23.761 73.3274C24.1944 73.3923 24.632 73.4251 25.0702 73.4255C26.4819 73.3843 27.8674 73.0336 29.1286 72.3983C30.3898 71.7629 31.496 70.8584 32.3689 69.7487C32.5204 70.1518 32.7181 70.536 32.958 70.8936C33.3703 71.5164 33.9235 72.0334 34.5729 72.4028C35.2222 72.7722 35.9495 72.9836 36.6958 73.0199H36.8398C38.6268 73.0199 40.3484 72.0843 41.8016 70.4029C41.9063 70.8248 42.0788 71.2269 42.3122 71.5936C42.6358 72.063 43.0752 72.441 43.5878 72.6908C44.1004 72.9407 44.6689 73.054 45.2382 73.0199C49.1658 73.0199 51.9609 66.0654 53.041 63.0625C53.4992 61.7998 54.1538 62.1269 53.833 62.8531C53.7529 63.029 53.6696 63.2111 53.5842 63.3979L53.5836 63.3992C53.0338 64.6012 52.3952 65.9972 51.9478 67.1972C51.2932 69.0094 51.4569 70.7366 52.478 71.9404C52.8296 72.3549 53.2681 72.687 53.7625 72.9131C54.2568 73.1393 54.7949 73.2539 55.3386 73.2488C55.6221 73.2462 55.9047 73.2177 56.183 73.1638C57.0275 73.0002 58.7425 72.3853 60.3397 70.1347C60.4898 70.4799 60.6787 70.8069 60.9026 71.1095C61.3172 71.6875 61.8607 72.161 62.4902 72.4926C63.1196 72.8242 63.8177 73.0047 64.5291 73.0199C65.727 73.0199 67.5926 72.5685 69.5367 70.3571C69.5886 70.7182 69.6899 71.0704 69.8379 71.4039C70.0045 71.7838 70.2537 72.1217 70.5673 72.3933C70.881 72.6649 71.2512 72.8633 71.6511 72.9741C71.9529 73.0628 72.266 73.1069 72.5806 73.1049C73.209 73.1006 73.8252 72.9314 74.3676 72.6142C76.4296 71.4497 78.1839 67.8514 79.7942 62.2512C80.0692 61.283 80.6125 61.6755 80.3572 62.5914C80.1916 63.1906 79.8175 64.122 79.3877 65.1923L79.3877 65.1923C78.6958 66.9152 77.8594 68.9976 77.5162 70.6319C76.8616 73.8311 81.3914 73.8311 82.1638 70.7301C83.3356 66.0654 85.8689 61.2502 87.8065 62.0484C88.7622 62.4475 89.4168 63.5989 86.8115 67.4066C86.3827 67.9759 86.129 68.6576 86.0813 69.3686C86.0336 70.0796 86.1941 70.7891 86.5431 71.4105C86.867 71.9331 87.3317 72.3539 87.884 72.6247C88.4363 72.8955 89.0537 73.0052 89.6655 72.9414C90.4707 72.8759 92.1922 72.4572 93.8549 70.2067C93.9701 70.4477 94.1036 70.6795 94.2542 70.9002C94.6636 71.4942 95.198 71.9917 95.8199 72.3578C96.4417 72.724 97.1361 72.9499 97.8545 73.0199H98.3389C100.113 73.0199 101.684 72.1694 103.124 70.4029C103.214 70.9088 103.411 71.3896 103.702 71.8128C103.993 72.236 104.372 72.5919 104.813 72.8563C105.429 73.2074 106.126 73.3901 106.836 73.3862C107.608 73.3791 108.366 73.1861 109.048 72.8236C109.757 72.4411 110.378 71.9156 110.873 71.2804C111.367 70.6452 111.725 69.9142 111.922 69.1337C112.517 66.8374 110.089 66.1962 109.748 68.5384ZM49.2051 76.5199H47.7715V80.1509H48.4261V78.9863H49.133C49.9317 78.9863 50.5862 78.5611 50.5862 77.7433C50.5877 77.5685 50.5517 77.3955 50.4806 77.2358C50.4095 77.0761 50.305 76.9335 50.1741 76.8176C50.0432 76.7017 49.889 76.6151 49.7219 76.5638C49.5547 76.5124 49.3785 76.4975 49.2051 76.5199ZM49.9382 77.7564C49.9382 78.1358 49.6371 78.4106 49.1527 78.4106H48.4261V77.1022H49.1527C49.6305 77.1022 49.9382 77.3769 49.9382 77.7564ZM54.4287 76.5205H55.0833V78.0318H56.818V76.5205H57.4726V80.1515H56.818V78.6206H55.0833V80.1515H54.4287V76.5205ZM61.7171 77.2787C61.5106 77.5934 61.4025 77.9624 61.4064 78.3388C61.4037 78.5872 61.4509 78.8336 61.5452 79.0635C61.6395 79.2934 61.7789 79.502 61.9553 79.6771C62.1317 79.8521 62.3414 79.99 62.5721 80.0827C62.8027 80.1753 63.0496 80.2208 63.2981 80.2164C63.6747 80.2177 64.0431 80.107 64.3566 79.8984C64.67 79.6899 64.9143 79.3928 65.0584 79.0451C65.2025 78.6974 65.2399 78.3147 65.1658 77.9457C65.0916 77.5767 64.9094 77.2381 64.6422 76.9729C64.375 76.7077 64.035 76.5279 63.6652 76.4564C63.2955 76.3849 62.9129 76.4249 62.566 76.5714C62.2191 76.7178 61.9236 76.964 61.7171 77.2787ZM64.4607 77.8445C64.5188 78.0025 64.5442 78.1707 64.5353 78.3388C64.546 78.5062 64.5223 78.6741 64.4657 78.8321C64.4091 78.99 64.3208 79.1347 64.2061 79.2573C64.0914 79.3799 63.9529 79.4777 63.799 79.5447C63.6451 79.6118 63.4791 79.6467 63.3112 79.6472C63.1428 79.6466 62.9762 79.6117 62.8217 79.5448C62.6671 79.4779 62.5278 79.3803 62.4121 79.258C62.2964 79.1356 62.2068 78.991 62.1487 78.833C62.0906 78.675 62.0652 78.5069 62.074 78.3388C62.0633 78.1713 62.087 78.0034 62.1436 77.8455C62.2002 77.6875 62.2886 77.5428 62.4032 77.4202C62.5179 77.2977 62.6565 77.1998 62.8104 77.1328C62.9642 77.0657 63.1302 77.0309 63.2981 77.0303C63.4666 77.031 63.6331 77.0658 63.7877 77.1327C63.9422 77.1996 64.0816 77.2972 64.1973 77.4196C64.313 77.5419 64.4026 77.6865 64.4607 77.8445ZM69.89 77.1093H68.7183V76.5205H71.6705V77.1093H70.5184V80.1515H69.8638L69.89 77.1093ZM75.5292 77.2787C75.3227 77.5934 75.2145 77.9624 75.2184 78.3388C75.2157 78.5872 75.2629 78.8336 75.3572 79.0635C75.4515 79.2934 75.591 79.502 75.7673 79.6771C75.9437 79.8521 76.1534 79.99 76.3841 80.0827C76.6147 80.1753 76.8616 80.2208 77.1101 80.2164C77.4867 80.2177 77.8551 80.107 78.1686 79.8984C78.482 79.6899 78.7263 79.3928 78.8704 79.0451C79.0145 78.6974 79.0519 78.3147 78.9778 77.9457C78.9037 77.5767 78.7214 77.2381 78.4542 76.9729C78.187 76.7077 77.847 76.5279 77.4773 76.4564C77.1076 76.3849 76.7249 76.4249 76.378 76.5714C76.0311 76.7178 75.7357 76.964 75.5292 77.2787ZM78.2708 77.8455C78.3292 78.0031 78.3553 78.1709 78.3473 78.3388C78.3469 78.6005 78.268 78.8562 78.1207 79.0726C77.9734 79.2891 77.7645 79.4564 77.5211 79.553C77.2776 79.6495 77.0108 79.6709 76.7551 79.6143C76.4994 79.5577 76.2665 79.4257 76.0866 79.2355C75.9067 79.0452 75.7881 78.8054 75.746 78.547C75.7039 78.2887 75.7403 78.0236 75.8505 77.7862C75.9607 77.5487 76.1397 77.3497 76.3642 77.215C76.5888 77.0802 76.8486 77.0159 77.1101 77.0303C77.2783 77.0319 77.4444 77.0673 77.5985 77.1346C77.7527 77.2018 77.8917 77.2994 78.0072 77.4216C78.1227 77.5437 78.2123 77.6879 78.2708 77.8455ZM82.9883 76.5205H84.6182C84.9646 76.4973 85.306 76.6127 85.5674 76.8411C85.6471 76.922 85.7096 77.0182 85.7512 77.1239C85.7928 77.2295 85.8127 77.3425 85.8096 77.456C85.8132 77.6264 85.7659 77.7939 85.6738 77.9372C85.5817 78.0805 85.4489 78.1932 85.2925 78.2608C85.498 78.3033 85.6822 78.416 85.8136 78.5796C85.945 78.7431 86.0153 78.9473 86.0125 79.1571C86.0125 79.8113 85.4757 80.1515 84.7033 80.1515H82.9883V76.5205ZM84.4873 78.0514C84.8932 78.0514 85.1419 77.8878 85.1419 77.5476C85.1419 77.2074 84.9128 77.0897 84.4873 77.0897H83.5643V78.0514H84.4873ZM84.6706 79.5888C85.1092 79.5888 85.371 79.4187 85.371 79.0785C85.371 78.7383 85.1288 78.5879 84.6248 78.5879H83.6101V79.5627L84.6706 79.5888ZM90.055 77.278C89.8482 77.5929 89.7399 77.9621 89.7438 78.3387C89.7411 78.5866 89.7881 78.8325 89.882 79.0619C89.9759 79.2913 90.1148 79.4997 90.2905 79.6746C90.4661 79.8496 90.6751 79.9877 90.9049 80.0807C91.1348 80.1738 91.381 80.2199 91.629 80.2164C92.0058 80.219 92.3749 80.1094 92.6892 79.9016C93.0035 79.6938 93.2488 79.3973 93.3939 79.0497C93.539 78.7021 93.5773 78.3192 93.504 77.9498C93.4306 77.5803 93.2489 77.2411 92.982 76.9752C92.715 76.7094 92.375 76.5289 92.0051 76.4569C91.6352 76.3849 91.2522 76.4245 90.905 76.5707C90.5577 76.7169 90.2618 76.9632 90.055 77.278ZM92.7981 77.8445C92.8562 78.0025 92.8816 78.1706 92.8727 78.3387C92.8834 78.5062 92.8598 78.6741 92.8031 78.832C92.7465 78.99 92.6582 79.1347 92.5435 79.2573C92.4288 79.3798 92.2903 79.4776 92.1364 79.5447C91.9825 79.6118 91.8165 79.6466 91.6486 79.6472C91.4802 79.6465 91.3136 79.6117 91.1591 79.5448C91.0045 79.4779 90.8652 79.3803 90.7495 79.2579C90.6338 79.1356 90.5442 78.991 90.4861 78.833C90.428 78.675 90.4026 78.5068 90.4114 78.3387C90.4007 78.1713 90.4244 78.0034 90.481 77.8454C90.5376 77.6875 90.626 77.5428 90.7407 77.4202C90.8553 77.2976 90.9939 77.1998 91.1478 77.1328C91.3017 77.0657 91.4676 77.0308 91.6355 77.0303C91.804 77.0309 91.9705 77.0658 92.1251 77.1327C92.2796 77.1996 92.419 77.2972 92.5347 77.4195C92.6504 77.5419 92.74 77.6864 92.7981 77.8445ZM97.3176 78.3392C97.3124 77.9613 97.4198 77.5904 97.6262 77.2737C97.8326 76.9571 98.1287 76.709 98.4767 76.5611C98.8246 76.4132 99.2088 76.3721 99.5802 76.4431C99.9516 76.5141 100.293 76.694 100.562 76.9598C100.831 77.2257 101.014 77.5654 101.089 77.9359C101.164 78.3063 101.127 78.6906 100.983 79.0399C100.838 79.3892 100.593 79.6876 100.279 79.8972C99.964 80.1068 99.594 80.2181 99.2159 80.2168C98.9668 80.2221 98.7192 80.1773 98.4878 80.085C98.2564 79.9928 98.0459 79.855 97.8688 79.6798C97.6917 79.5047 97.5517 79.2957 97.457 79.0654C97.3623 78.8351 97.3149 78.5881 97.3176 78.3392ZM100.447 78.3392C100.455 78.1716 100.43 78.004 100.372 77.8464C100.315 77.6888 100.226 77.5446 100.111 77.4223C99.9958 77.3 99.8572 77.2023 99.7034 77.135C99.5496 77.0677 99.3838 77.0322 99.2159 77.0307C98.9542 77.015 98.6938 77.0781 98.4684 77.212C98.243 77.3459 98.0631 77.5443 97.9518 77.7816C97.8406 78.0189 97.8032 78.2841 97.8445 78.5429C97.8858 78.8016 98.0039 79.042 98.1834 79.233C98.363 79.4239 98.5958 79.5565 98.8516 79.6137C99.1075 79.6709 99.3747 79.65 99.6185 79.5537C99.8623 79.4574 100.072 79.2901 100.219 79.0736C100.367 78.857 100.446 78.6012 100.447 78.3392ZM105.742 76.5205H105.087L105.074 80.1515H105.729V79.0982L106.292 78.5159L107.535 80.1515H108.321L106.743 78.0841L108.256 76.5205H107.47L105.742 78.3458V76.5205Z"
    fill="black" />
  <path fill-rule="evenodd" clip-rule="evenodd"
    d="M49.2628 27.5441L61.7001 9.7882C62.6951 8.38161 64.0632 7.93673 65.4968 8.91153C67.9122 10.5471 83.557 21.5251 83.557 21.5251C84.7026 22.3037 84.9317 23.8804 83.8647 25.2281L71.4274 43.0166C68.1544 47.6944 63.0682 47.8056 59.7298 45.4962L39.3261 31.2339C37.6713 30.0582 36.5268 28.2966 36.1251 26.3076C35.9229 25.1221 35.9661 23.9079 36.2521 22.7398C36.5381 21.5718 37.0608 20.4748 37.7878 19.5166L51.0368 0.62896C51.999 -0.797265 53.9497 0.445775 52.9351 1.93742C51.9205 3.42907 39.6861 20.8447 39.6861 20.8447C37.1463 24.4757 38.4228 27.8057 40.7531 29.4282C43.0835 31.0507 46.7361 31.1554 49.2628 27.5441ZM75.427 33.2686L82.1431 23.671C82.1734 23.6222 82.1848 23.564 82.1751 23.5074C82.1655 23.4507 82.1355 23.3996 82.0907 23.3635C82.016 23.2935 73.6851 17.4793 68.3365 13.7465L68.3341 13.7449C66.1869 12.2463 64.5207 11.0835 64.0632 10.763C64.0503 10.7478 64.0343 10.7356 64.0162 10.7273C63.9981 10.7189 63.9784 10.7146 63.9585 10.7146C63.9385 10.7146 63.9189 10.7189 63.9008 10.7273C63.8827 10.7356 63.8666 10.7478 63.8537 10.763L57.0787 20.4456L61.0783 23.2392C62.1449 22.177 63.5514 21.5237 65.0514 21.3935C66.5515 21.2634 68.0496 21.6648 69.2834 22.5274C70.5172 23.39 71.408 24.6589 71.8 26.1119C72.192 27.5649 72.0601 29.1094 71.4274 30.475L75.427 33.2686ZM67.0749 31.6322C67.8327 31.3382 68.4863 30.8262 68.953 30.161C69.2631 29.719 69.483 29.2203 69.6002 28.6934C69.7173 28.1664 69.7295 27.6216 69.6358 27.0899C69.5422 26.5583 69.3447 26.0503 69.0546 25.595C68.7644 25.1397 68.3874 24.746 67.945 24.4365C67.279 23.9705 66.4898 23.7123 65.6771 23.6945C64.8644 23.6768 64.0646 23.9002 63.3789 24.3367C62.6933 24.7731 62.1525 25.403 61.8249 26.1465C61.4973 26.8901 61.3977 27.7141 61.5386 28.5143C61.6795 29.3144 62.0546 30.0549 62.6165 30.642C63.1784 31.2292 63.9019 31.6366 64.6955 31.8128C65.489 31.9891 66.3171 31.9262 67.0749 31.6322ZM45.4727 32.719L61.0455 43.5989C63.3693 45.2083 67.0089 45.2934 69.516 41.7082L74.0981 35.1659L70.0986 32.3723C69.0275 33.4186 67.6241 34.0579 66.1312 34.1794C64.6384 34.3009 63.15 33.8971 61.9236 33.0378C60.6972 32.1784 59.8099 30.9177 59.4153 29.4736C59.0206 28.0295 59.1435 26.493 59.7625 25.1299L55.763 22.3364L51.1808 28.8787C50.5378 29.8705 49.7006 30.7221 48.7196 31.3821C47.7386 32.0421 46.6342 32.4968 45.4727 32.719ZM56.3008 4.68702C56.3422 4.99675 56.2622 5.31051 56.0775 5.56264L42.5929 24.8363C42.5087 24.9712 42.3987 25.0883 42.2692 25.1807C42.1398 25.2731 41.9933 25.3392 41.8383 25.375C41.6833 25.4109 41.5227 25.4158 41.3658 25.3896C41.2089 25.3634 41.0586 25.3066 40.9237 25.2223C40.6702 25.0267 40.504 24.7392 40.4612 24.4221C40.4183 24.1049 40.5021 23.7836 40.6946 23.5278L54.1792 4.26726C54.3536 3.99755 54.6277 3.80768 54.9416 3.73905C55.2555 3.67042 55.5838 3.7286 55.855 3.90089C56.0995 4.09559 56.2593 4.37728 56.3008 4.68702ZM59.9136 8.23816C60.0181 8.11474 60.0956 7.97082 60.1411 7.81565C60.1866 7.66049 60.1991 7.49752 60.1778 7.33725C60.1564 7.17697 60.1017 7.02294 60.0172 6.88507C59.9327 6.7472 59.8202 6.62855 59.687 6.53675C59.5539 6.44495 59.4029 6.38205 59.244 6.35209C59.085 6.32212 58.9215 6.32577 58.764 6.36279C58.6065 6.3998 58.4585 6.46937 58.3296 6.56701C58.2006 6.66465 58.0936 6.78819 58.0153 6.92969L44.5307 26.1903C44.4169 26.3127 44.3308 26.4582 44.2782 26.6169C44.2257 26.7755 44.208 26.9437 44.2262 27.1098C44.2444 27.2759 44.2982 27.4362 44.3839 27.5797C44.4696 27.7232 44.5853 27.8465 44.7229 27.9414C44.8606 28.0363 45.017 28.1005 45.1817 28.1295C45.3464 28.1586 45.5154 28.1519 45.6772 28.1099C45.8391 28.0679 45.99 27.9916 46.1197 27.8861C46.2494 27.7807 46.3549 27.6486 46.429 27.4987L59.9136 8.23816ZM78.8236 23.6581C78.8776 23.9598 78.8098 24.2706 78.6349 24.5223V24.5485C78.4592 24.7997 78.1911 24.971 77.8893 25.025C77.5874 25.0789 77.2765 25.0111 77.0246 24.8363L76.0754 24.1821C75.9469 24.0945 75.8373 23.982 75.7532 23.8512C75.6691 23.7204 75.6122 23.574 75.586 23.4208C75.5597 23.2675 75.5646 23.1105 75.6003 22.9592C75.6361 22.8079 75.7019 22.6653 75.794 22.54C75.9706 22.2899 76.2392 22.1198 76.541 22.0671C76.8428 22.0144 77.1532 22.0833 77.4043 22.2587L78.3469 22.9129C78.5982 23.0885 78.7696 23.3565 78.8236 23.6581Z"
    fill="#F1C0B2" />
</svg>
