<svg width="17" height="17" viewBox="0 0 17 17" fill="none" xmlns="http://www.w3.org/2000/svg">
<g clip-path="url(#clip0_387:8472)">
<mask id="mask0_387:8472" style="mask-type:alpha" maskUnits="userSpaceOnUse" x="-391" y="-575" width="799" height="1168">
<path d="M-391 -543C-391 -558.085 -391 -565.627 -386.314 -570.314C-381.627 -575 -374.085 -575 -359 -575H376C391.085 -575 398.627 -575 403.314 -570.314C408 -565.627 408 -558.085 408 -543V561C408 576.085 408 583.627 403.314 588.314C398.627 593 391.085 593 376 593H-359C-374.085 593 -381.627 593 -386.314 588.314C-391 583.627 -391 576.085 -391 561V-543Z" fill="white"/>
</mask>
<g mask="url(#mask0_387:8472)">
<line y1="-0.289444" x2="1580" y2="-0.289444" transform="matrix(-0.707107 0.707107 -0.707107 -0.707106 270.229 -562)" stroke="#989CA4" stroke-width="0.578889"/>
<line y1="-0.289444" x2="1580" y2="-0.289444" transform="matrix(-0.707107 0.707107 -0.707107 -0.707106 273.057 -559.172)" stroke="#989CA4" stroke-width="0.578889"/>
<line y1="-0.289444" x2="1580" y2="-0.289444" transform="matrix(-0.707107 0.707107 -0.707107 -0.707106 275.885 -556.343)" stroke="#989CA4" stroke-width="0.578889"/>
<line y1="-0.289444" x2="1580" y2="-0.289444" transform="matrix(-0.707107 0.707107 -0.707107 -0.707106 278.714 -553.515)" stroke="#989CA4" stroke-width="0.578889"/>
<line y1="-0.289444" x2="1580" y2="-0.289444" transform="matrix(-0.707107 0.707107 -0.707107 -0.707106 281.542 -550.687)" stroke="#989CA4" stroke-width="0.578889"/>
<line y1="-0.289444" x2="1580" y2="-0.289444" transform="matrix(-0.707107 0.707107 -0.707107 -0.707106 284.371 -547.857)" stroke="#989CA4" stroke-width="0.578889"/>
<line y1="-0.289444" x2="1580" y2="-0.289444" transform="matrix(-0.707107 0.707107 -0.707107 -0.707106 287.199 -545.029)" stroke="#989CA4" stroke-width="0.578889"/>
<line y1="-0.289444" x2="1580" y2="-0.289444" transform="matrix(-0.707107 0.707107 -0.707107 -0.707106 290.028 -542.201)" stroke="#989CA4" stroke-width="0.578889"/>
<line y1="-0.289444" x2="1580" y2="-0.289444" transform="matrix(-0.707107 0.707107 -0.707107 -0.707106 292.856 -539.373)" stroke="#989CA4" stroke-width="0.578889"/>
<line y1="-0.289444" x2="1580" y2="-0.289444" transform="matrix(-0.707107 0.707107 -0.707107 -0.707106 295.685 -536.544)" stroke="#989CA4" stroke-width="0.578889"/>
<line y1="-0.289444" x2="1580" y2="-0.289444" transform="matrix(-0.707107 0.707107 -0.707107 -0.707106 298.513 -533.716)" stroke="#989CA4" stroke-width="0.578889"/>
<line y1="-0.289444" x2="1580" y2="-0.289444" transform="matrix(-0.707107 0.707107 -0.707107 -0.707106 301.342 -530.888)" stroke="#989CA4" stroke-width="0.578889"/>
<line y1="-0.289444" x2="1580" y2="-0.289444" transform="matrix(-0.707107 0.707107 -0.707107 -0.707106 304.17 -528.059)" stroke="#989CA4" stroke-width="0.578889"/>
<line y1="-0.289444" x2="1580" y2="-0.289444" transform="matrix(-0.707107 0.707107 -0.707107 -0.707106 306.998 -525.23)" stroke="#989CA4" stroke-width="0.578889"/>
<line y1="-0.289444" x2="1580" y2="-0.289444" transform="matrix(-0.707107 0.707107 -0.707107 -0.707106 309.827 -522.402)" stroke="#989CA4" stroke-width="0.578889"/>
<line y1="-0.289444" x2="1580" y2="-0.289444" transform="matrix(-0.707107 0.707107 -0.707107 -0.707106 312.655 -519.573)" stroke="#989CA4" stroke-width="0.578889"/>
<line y1="-0.289444" x2="1580" y2="-0.289444" transform="matrix(-0.707107 0.707107 -0.707107 -0.707106 315.484 -516.745)" stroke="#989CA4" stroke-width="0.578889"/>
<line y1="-0.289444" x2="1580" y2="-0.289444" transform="matrix(-0.707107 0.707107 -0.707107 -0.707106 318.312 -513.917)" stroke="#989CA4" stroke-width="0.578889"/>
<line y1="-0.289444" x2="1580" y2="-0.289444" transform="matrix(-0.707107 0.707107 -0.707107 -0.707106 321.14 -511.088)" stroke="#989CA4" stroke-width="0.578889"/>
<line y1="-0.289444" x2="1580" y2="-0.289444" transform="matrix(-0.707107 0.707107 -0.707107 -0.707106 323.969 -508.26)" stroke="#989CA4" stroke-width="0.578889"/>
<line y1="-0.289444" x2="1580" y2="-0.289444" transform="matrix(-0.707107 0.707107 -0.707107 -0.707106 326.797 -505.432)" stroke="#989CA4" stroke-width="0.578889"/>
<line y1="-0.289444" x2="1580" y2="-0.289444" transform="matrix(-0.707107 0.707107 -0.707107 -0.707106 329.626 -502.604)" stroke="#989CA4" stroke-width="0.578889"/>
<line y1="-0.289444" x2="1580" y2="-0.289444" transform="matrix(-0.707107 0.707107 -0.707107 -0.707106 332.454 -499.774)" stroke="#989CA4" stroke-width="0.578889"/>
<line y1="-0.289444" x2="1580" y2="-0.289444" transform="matrix(-0.707107 0.707107 -0.707107 -0.707106 335.282 -496.946)" stroke="#989CA4" stroke-width="0.578889"/>
<line y1="-0.289444" x2="1580" y2="-0.289444" transform="matrix(-0.707107 0.707107 -0.707107 -0.707106 338.111 -494.118)" stroke="#989CA4" stroke-width="0.578889"/>
<line y1="-0.289444" x2="1580" y2="-0.289444" transform="matrix(-0.707107 0.707107 -0.707107 -0.707106 340.939 -491.289)" stroke="#989CA4" stroke-width="0.578889"/>
<line y1="-0.289444" x2="1580" y2="-0.289444" transform="matrix(-0.707107 0.707107 -0.707107 -0.707106 343.768 -488.461)" stroke="#989CA4" stroke-width="0.578889"/>
<line y1="-0.289444" x2="1580" y2="-0.289444" transform="matrix(-0.707107 0.707107 -0.707107 -0.707106 346.596 -485.633)" stroke="#989CA4" stroke-width="0.578889"/>
<line y1="-0.289444" x2="1580" y2="-0.289444" transform="matrix(-0.707107 0.707107 -0.707107 -0.707106 349.425 -482.804)" stroke="#989CA4" stroke-width="0.578889"/>
<line y1="-0.289444" x2="1580" y2="-0.289444" transform="matrix(-0.707107 0.707107 -0.707107 -0.707106 352.253 -479.976)" stroke="#989CA4" stroke-width="0.578889"/>
<line y1="-0.289444" x2="1580" y2="-0.289444" transform="matrix(-0.707107 0.707107 -0.707107 -0.707106 355.082 -477.147)" stroke="#989CA4" stroke-width="0.578889"/>
<line y1="-0.289444" x2="1580" y2="-0.289444" transform="matrix(-0.707107 0.707107 -0.707107 -0.707106 357.91 -474.318)" stroke="#989CA4" stroke-width="0.578889"/>
<line y1="-0.289444" x2="1580" y2="-0.289444" transform="matrix(-0.707107 0.707107 -0.707107 -0.707106 360.739 -471.49)" stroke="#989CA4" stroke-width="0.578889"/>
<line y1="-0.289444" x2="1580" y2="-0.289444" transform="matrix(-0.707107 0.707107 -0.707107 -0.707106 363.567 -468.662)" stroke="#989CA4" stroke-width="0.578889"/>
<line y1="-0.289444" x2="1580" y2="-0.289444" transform="matrix(-0.707107 0.707107 -0.707107 -0.707106 366.395 -465.833)" stroke="#989CA4" stroke-width="0.578889"/>
<line y1="-0.289444" x2="1580" y2="-0.289444" transform="matrix(-0.707107 0.707107 -0.707107 -0.707106 369.224 -463.005)" stroke="#989CA4" stroke-width="0.578889"/>
<line y1="-0.289444" x2="1580" y2="-0.289444" transform="matrix(-0.707107 0.707107 -0.707107 -0.707106 372.052 -460.177)" stroke="#989CA4" stroke-width="0.578889"/>
<line y1="-0.289444" x2="1580" y2="-0.289444" transform="matrix(-0.707107 0.707107 -0.707107 -0.707106 374.881 -457.349)" stroke="#989CA4" stroke-width="0.578889"/>
<line y1="-0.289444" x2="1580" y2="-0.289444" transform="matrix(-0.707107 0.707107 -0.707107 -0.707106 377.709 -454.52)" stroke="#989CA4" stroke-width="0.578889"/>
<line y1="-0.289444" x2="1580" y2="-0.289444" transform="matrix(-0.707107 0.707107 -0.707107 -0.707106 380.537 -451.691)" stroke="#989CA4" stroke-width="0.578889"/>
<line y1="-0.289444" x2="1580" y2="-0.289444" transform="matrix(-0.707107 0.707107 -0.707107 -0.707106 383.366 -448.863)" stroke="#989CA4" stroke-width="0.578889"/>
<line y1="-0.289444" x2="1580" y2="-0.289444" transform="matrix(-0.707107 0.707107 -0.707107 -0.707106 386.194 -446.034)" stroke="#989CA4" stroke-width="0.578889"/>
<line y1="-0.289444" x2="1580" y2="-0.289444" transform="matrix(-0.707107 0.707107 -0.707107 -0.707106 389.023 -443.206)" stroke="#989CA4" stroke-width="0.578889"/>
<line y1="-0.289444" x2="1580" y2="-0.289444" transform="matrix(-0.707107 0.707107 -0.707107 -0.707106 391.851 -440.378)" stroke="#989CA4" stroke-width="0.578889"/>
<line y1="-0.289444" x2="1580" y2="-0.289444" transform="matrix(-0.707107 0.707107 -0.707107 -0.707106 394.679 -437.549)" stroke="#989CA4" stroke-width="0.578889"/>
<line y1="-0.289444" x2="1580" y2="-0.289444" transform="matrix(-0.707107 0.707107 -0.707107 -0.707106 397.508 -434.721)" stroke="#989CA4" stroke-width="0.578889"/>
<line y1="-0.289444" x2="1580" y2="-0.289444" transform="matrix(-0.707107 0.707107 -0.707107 -0.707106 400.336 -431.893)" stroke="#989CA4" stroke-width="0.578889"/>
<line y1="-0.289444" x2="1580" y2="-0.289444" transform="matrix(-0.707107 0.707107 -0.707107 -0.707106 403.165 -429.063)" stroke="#989CA4" stroke-width="0.578889"/>
<line y1="-0.289444" x2="1580" y2="-0.289444" transform="matrix(-0.707107 0.707107 -0.707107 -0.707106 405.993 -426.235)" stroke="#989CA4" stroke-width="0.578889"/>
<line y1="-0.289444" x2="1580" y2="-0.289444" transform="matrix(-0.707107 0.707107 -0.707107 -0.707106 408.822 -423.407)" stroke="#989CA4" stroke-width="0.578889"/>
<line y1="-0.289444" x2="1580" y2="-0.289444" transform="matrix(-0.707107 0.707107 -0.707107 -0.707106 411.65 -420.579)" stroke="#989CA4" stroke-width="0.578889"/>
<line y1="-0.289444" x2="1580" y2="-0.289444" transform="matrix(-0.707107 0.707107 -0.707107 -0.707106 414.479 -417.75)" stroke="#989CA4" stroke-width="0.578889"/>
<line y1="-0.289444" x2="1580" y2="-0.289444" transform="matrix(-0.707107 0.707107 -0.707107 -0.707106 417.307 -414.922)" stroke="#989CA4" stroke-width="0.578889"/>
<line y1="-0.289444" x2="1580" y2="-0.289444" transform="matrix(-0.707107 0.707107 -0.707107 -0.707106 420.135 -412.094)" stroke="#989CA4" stroke-width="0.578889"/>
<line y1="-0.289444" x2="1580" y2="-0.289444" transform="matrix(-0.707107 0.707107 -0.707107 -0.707106 422.964 -409.265)" stroke="#989CA4" stroke-width="0.578889"/>
<line y1="-0.289444" x2="1580" y2="-0.289444" transform="matrix(-0.707107 0.707107 -0.707107 -0.707106 425.792 -406.437)" stroke="#989CA4" stroke-width="0.578889"/>
<line y1="-0.289444" x2="1580" y2="-0.289444" transform="matrix(-0.707107 0.707107 -0.707107 -0.707106 428.621 -403.608)" stroke="#989CA4" stroke-width="0.578889"/>
<line y1="-0.289444" x2="1580" y2="-0.289444" transform="matrix(-0.707107 0.707107 -0.707107 -0.707106 431.449 -400.779)" stroke="#989CA4" stroke-width="0.578889"/>
<line y1="-0.289444" x2="1580" y2="-0.289444" transform="matrix(-0.707107 0.707107 -0.707107 -0.707106 434.278 -397.951)" stroke="#989CA4" stroke-width="0.578889"/>
<line y1="-0.289444" x2="1580" y2="-0.289444" transform="matrix(-0.707107 0.707107 -0.707107 -0.707106 437.106 -395.123)" stroke="#989CA4" stroke-width="0.578889"/>
<line y1="-0.289444" x2="1580" y2="-0.289444" transform="matrix(-0.707107 0.707107 -0.707107 -0.707106 439.934 -392.294)" stroke="#989CA4" stroke-width="0.578889"/>
<line y1="-0.289444" x2="1580" y2="-0.289444" transform="matrix(-0.707107 0.707107 -0.707107 -0.707106 442.763 -389.466)" stroke="#989CA4" stroke-width="0.578889"/>
<line y1="-0.289444" x2="1580" y2="-0.289444" transform="matrix(-0.707107 0.707107 -0.707107 -0.707106 445.591 -386.638)" stroke="#989CA4" stroke-width="0.578889"/>
<line y1="-0.289444" x2="1580" y2="-0.289444" transform="matrix(-0.707107 0.707107 -0.707107 -0.707106 448.42 -383.81)" stroke="#989CA4" stroke-width="0.578889"/>
<line y1="-0.289444" x2="1580" y2="-0.289444" transform="matrix(-0.707107 0.707107 -0.707107 -0.707106 451.248 -380.98)" stroke="#989CA4" stroke-width="0.578889"/>
<line y1="-0.289444" x2="1580" y2="-0.289444" transform="matrix(-0.707107 0.707107 -0.707107 -0.707106 454.076 -378.152)" stroke="#989CA4" stroke-width="0.578889"/>
<line y1="-0.289444" x2="1580" y2="-0.289444" transform="matrix(-0.707107 0.707107 -0.707107 -0.707106 456.905 -375.324)" stroke="#989CA4" stroke-width="0.578889"/>
<line y1="-0.289444" x2="1580" y2="-0.289444" transform="matrix(-0.707107 0.707107 -0.707107 -0.707106 459.733 -372.495)" stroke="#989CA4" stroke-width="0.578889"/>
<line y1="-0.289444" x2="1580" y2="-0.289444" transform="matrix(-0.707107 0.707107 -0.707107 -0.707106 462.562 -369.667)" stroke="#989CA4" stroke-width="0.578889"/>
<line y1="-0.289444" x2="1580" y2="-0.289444" transform="matrix(-0.707107 0.707107 -0.707107 -0.707106 465.39 -366.839)" stroke="#989CA4" stroke-width="0.578889"/>
<line y1="-0.289444" x2="1580" y2="-0.289444" transform="matrix(-0.707107 0.707107 -0.707107 -0.707106 468.219 -364.01)" stroke="#989CA4" stroke-width="0.578889"/>
<line y1="-0.289444" x2="1580" y2="-0.289444" transform="matrix(-0.707107 0.707107 -0.707107 -0.707106 471.047 -361.182)" stroke="#989CA4" stroke-width="0.578889"/>
<line y1="-0.289444" x2="1580" y2="-0.289444" transform="matrix(-0.707107 0.707107 -0.707107 -0.707106 473.875 -358.354)" stroke="#989CA4" stroke-width="0.578889"/>
<line y1="-0.289444" x2="1580" y2="-0.289444" transform="matrix(-0.707107 0.707107 -0.707107 -0.707106 476.704 -355.524)" stroke="#989CA4" stroke-width="0.578889"/>
<line y1="-0.289444" x2="1580" y2="-0.289444" transform="matrix(-0.707107 0.707107 -0.707107 -0.707106 479.532 -352.696)" stroke="#989CA4" stroke-width="0.578889"/>
<line y1="-0.289444" x2="1580" y2="-0.289444" transform="matrix(-0.707107 0.707107 -0.707107 -0.707106 482.361 -349.868)" stroke="#989CA4" stroke-width="0.578889"/>
<line y1="-0.289444" x2="1580" y2="-0.289444" transform="matrix(-0.707107 0.707107 -0.707107 -0.707106 485.189 -347.039)" stroke="#989CA4" stroke-width="0.578889"/>
<line y1="-0.289444" x2="1580" y2="-0.289444" transform="matrix(-0.707107 0.707107 -0.707107 -0.707106 488.018 -344.211)" stroke="#989CA4" stroke-width="0.578889"/>
<line y1="-0.289444" x2="1580" y2="-0.289444" transform="matrix(-0.707107 0.707107 -0.707107 -0.707106 490.846 -341.383)" stroke="#989CA4" stroke-width="0.578889"/>
<line y1="-0.289444" x2="1580" y2="-0.289444" transform="matrix(-0.707107 0.707107 -0.707107 -0.707106 493.675 -338.555)" stroke="#989CA4" stroke-width="0.578889"/>
<line y1="-0.289444" x2="1580" y2="-0.289444" transform="matrix(-0.707107 0.707107 -0.707107 -0.707106 496.503 -335.726)" stroke="#989CA4" stroke-width="0.578889"/>
<line y1="-0.289444" x2="1580" y2="-0.289444" transform="matrix(-0.707107 0.707107 -0.707107 -0.707106 499.331 -332.897)" stroke="#989CA4" stroke-width="0.578889"/>
<line y1="-0.289444" x2="1580" y2="-0.289444" transform="matrix(-0.707107 0.707107 -0.707107 -0.707106 502.16 -330.069)" stroke="#989CA4" stroke-width="0.578889"/>
<line y1="-0.289444" x2="1580" y2="-0.289444" transform="matrix(-0.707107 0.707107 -0.707107 -0.707106 504.988 -327.24)" stroke="#989CA4" stroke-width="0.578889"/>
<line y1="-0.289444" x2="1580" y2="-0.289444" transform="matrix(-0.707107 0.707107 -0.707107 -0.707106 507.817 -324.412)" stroke="#989CA4" stroke-width="0.578889"/>
<line y1="-0.289444" x2="1580" y2="-0.289444" transform="matrix(-0.707107 0.707107 -0.707107 -0.707106 510.645 -321.584)" stroke="#989CA4" stroke-width="0.578889"/>
<line y1="-0.289444" x2="1580" y2="-0.289444" transform="matrix(-0.707107 0.707107 -0.707107 -0.707106 513.473 -318.755)" stroke="#989CA4" stroke-width="0.578889"/>
<line y1="-0.289444" x2="1580" y2="-0.289444" transform="matrix(-0.707107 0.707107 -0.707107 -0.707106 516.302 -315.927)" stroke="#989CA4" stroke-width="0.578889"/>
<line y1="-0.289444" x2="1580" y2="-0.289444" transform="matrix(-0.707107 0.707107 -0.707107 -0.707106 519.13 -313.099)" stroke="#989CA4" stroke-width="0.578889"/>
<line y1="-0.289444" x2="1580" y2="-0.289444" transform="matrix(-0.707107 0.707107 -0.707107 -0.707106 521.959 -310.27)" stroke="#989CA4" stroke-width="0.578889"/>
<line y1="-0.289444" x2="1580" y2="-0.289444" transform="matrix(-0.707107 0.707107 -0.707107 -0.707106 524.787 -307.441)" stroke="#989CA4" stroke-width="0.578889"/>
<line y1="-0.289444" x2="1580" y2="-0.289444" transform="matrix(-0.707107 0.707107 -0.707107 -0.707106 527.616 -304.613)" stroke="#989CA4" stroke-width="0.578889"/>
<line y1="-0.289444" x2="1580" y2="-0.289444" transform="matrix(-0.707107 0.707107 -0.707107 -0.707106 530.444 -301.785)" stroke="#989CA4" stroke-width="0.578889"/>
<line y1="-0.289444" x2="1580" y2="-0.289444" transform="matrix(-0.707107 0.707107 -0.707107 -0.707106 533.272 -298.956)" stroke="#989CA4" stroke-width="0.578889"/>
<line y1="-0.289444" x2="1580" y2="-0.289444" transform="matrix(-0.707107 0.707107 -0.707107 -0.707106 536.101 -296.128)" stroke="#989CA4" stroke-width="0.578889"/>
<line y1="-0.289444" x2="1580" y2="-0.289444" transform="matrix(-0.707107 0.707107 -0.707107 -0.707106 538.929 -293.3)" stroke="#989CA4" stroke-width="0.578889"/>
<line y1="-0.289444" x2="1580" y2="-0.289444" transform="matrix(-0.707107 0.707107 -0.707107 -0.707106 541.758 -290.471)" stroke="#989CA4" stroke-width="0.578889"/>
<line y1="-0.289444" x2="1580" y2="-0.289444" transform="matrix(-0.707107 0.707107 -0.707107 -0.707106 544.586 -287.643)" stroke="#989CA4" stroke-width="0.578889"/>
<line y1="-0.289444" x2="1580" y2="-0.289444" transform="matrix(-0.707107 0.707107 -0.707107 -0.707106 547.415 -284.814)" stroke="#989CA4" stroke-width="0.578889"/>
<line y1="-0.289444" x2="1580" y2="-0.289444" transform="matrix(-0.707107 0.707107 -0.707107 -0.707106 550.243 -281.985)" stroke="#989CA4" stroke-width="0.578889"/>
<line y1="-0.289444" x2="1580" y2="-0.289444" transform="matrix(-0.707107 0.707107 -0.707107 -0.707106 553.072 -279.157)" stroke="#989CA4" stroke-width="0.578889"/>
<line y1="-0.289444" x2="1580" y2="-0.289444" transform="matrix(-0.707107 0.707107 -0.707107 -0.707106 555.9 -276.329)" stroke="#989CA4" stroke-width="0.578889"/>
<line y1="-0.289444" x2="1580" y2="-0.289444" transform="matrix(-0.707107 0.707107 -0.707107 -0.707106 558.728 -273.5)" stroke="#989CA4" stroke-width="0.578889"/>
<line y1="-0.289444" x2="1580" y2="-0.289444" transform="matrix(-0.707107 0.707107 -0.707107 -0.707106 561.557 -270.672)" stroke="#989CA4" stroke-width="0.578889"/>
<line y1="-0.289444" x2="1580" y2="-0.289444" transform="matrix(-0.707107 0.707107 -0.707107 -0.707106 564.385 -267.844)" stroke="#989CA4" stroke-width="0.578889"/>
<line y1="-0.289444" x2="1580" y2="-0.289444" transform="matrix(-0.707107 0.707107 -0.707107 -0.707106 567.214 -265.016)" stroke="#989CA4" stroke-width="0.578889"/>
<line y1="-0.289444" x2="1580" y2="-0.289444" transform="matrix(-0.707107 0.707107 -0.707107 -0.707106 570.042 -262.187)" stroke="#989CA4" stroke-width="0.578889"/>
<line y1="-0.289444" x2="1580" y2="-0.289444" transform="matrix(-0.707107 0.707107 -0.707107 -0.707106 572.87 -259.358)" stroke="#989CA4" stroke-width="0.578889"/>
<line y1="-0.289444" x2="1580" y2="-0.289444" transform="matrix(-0.707107 0.707107 -0.707107 -0.707106 575.699 -256.53)" stroke="#989CA4" stroke-width="0.578889"/>
<line y1="-0.289444" x2="1580" y2="-0.289444" transform="matrix(-0.707107 0.707107 -0.707107 -0.707106 578.527 -253.701)" stroke="#989CA4" stroke-width="0.578889"/>
<line y1="-0.289444" x2="1580" y2="-0.289444" transform="matrix(-0.707107 0.707107 -0.707107 -0.707106 581.356 -250.873)" stroke="#989CA4" stroke-width="0.578889"/>
<line y1="-0.289444" x2="1580" y2="-0.289444" transform="matrix(-0.707107 0.707107 -0.707107 -0.707106 584.184 -248.045)" stroke="#989CA4" stroke-width="0.578889"/>
<line x1="587.217" y1="-245.011" x2="-530.011" y2="872.218" stroke="#989CA4" stroke-width="0.578889"/>
<line x1="590.046" y1="-242.183" x2="-527.183" y2="875.046" stroke="#989CA4" stroke-width="0.578889"/>
<line x1="592.874" y1="-239.355" x2="-524.355" y2="877.874" stroke="#989CA4" stroke-width="0.578889"/>
<line x1="595.702" y1="-236.526" x2="-521.526" y2="880.703" stroke="#989CA4" stroke-width="0.578889"/>
<line x1="598.531" y1="-233.698" x2="-518.698" y2="883.531" stroke="#989CA4" stroke-width="0.578889"/>
<line x1="601.359" y1="-230.87" x2="-515.869" y2="886.359" stroke="#989CA4" stroke-width="0.578889"/>
<line x1="604.188" y1="-228.04" x2="-513.041" y2="889.188" stroke="#989CA4" stroke-width="0.578889"/>
<line x1="607.016" y1="-225.212" x2="-510.212" y2="892.016" stroke="#989CA4" stroke-width="0.578889"/>
<line x1="609.845" y1="-222.384" x2="-507.384" y2="894.844" stroke="#989CA4" stroke-width="0.578889"/>
<line x1="612.673" y1="-219.556" x2="-504.556" y2="897.673" stroke="#989CA4" stroke-width="0.578889"/>
<line x1="615.502" y1="-216.727" x2="-501.727" y2="900.502" stroke="#989CA4" stroke-width="0.578889"/>
<line x1="618.33" y1="-213.899" x2="-498.899" y2="903.33" stroke="#989CA4" stroke-width="0.578889"/>
<line x1="621.158" y1="-211.071" x2="-496.07" y2="906.158" stroke="#989CA4" stroke-width="0.578889"/>
<line x1="623.987" y1="-208.242" x2="-493.242" y2="908.987" stroke="#989CA4" stroke-width="0.578889"/>
<line x1="626.815" y1="-205.413" x2="-490.413" y2="911.815" stroke="#989CA4" stroke-width="0.578889"/>
<line x1="629.644" y1="-202.585" x2="-487.585" y2="914.643" stroke="#989CA4" stroke-width="0.578889"/>
<line x1="632.472" y1="-199.756" x2="-484.757" y2="917.472" stroke="#989CA4" stroke-width="0.578889"/>
<line x1="635.301" y1="-196.928" x2="-481.928" y2="920.301" stroke="#989CA4" stroke-width="0.578889"/>
<line x1="638.129" y1="-194.1" x2="-479.1" y2="923.129" stroke="#989CA4" stroke-width="0.578889"/>
<line x1="640.957" y1="-191.271" x2="-476.271" y2="925.958" stroke="#989CA4" stroke-width="0.578889"/>
<line x1="643.786" y1="-188.443" x2="-473.443" y2="928.786" stroke="#989CA4" stroke-width="0.578889"/>
<line x1="646.614" y1="-185.615" x2="-470.614" y2="931.614" stroke="#989CA4" stroke-width="0.578889"/>
<line x1="649.443" y1="-182.787" x2="-467.786" y2="934.442" stroke="#989CA4" stroke-width="0.578889"/>
<line x1="652.271" y1="-179.957" x2="-464.958" y2="937.271" stroke="#989CA4" stroke-width="0.578889"/>
<line x1="655.099" y1="-177.129" x2="-462.129" y2="940.099" stroke="#989CA4" stroke-width="0.578889"/>
<line x1="657.928" y1="-174.301" x2="-459.301" y2="942.927" stroke="#989CA4" stroke-width="0.578889"/>
<line x1="660.756" y1="-171.472" x2="-456.472" y2="945.757" stroke="#989CA4" stroke-width="0.578889"/>
<line x1="663.585" y1="-168.644" x2="-453.644" y2="948.585" stroke="#989CA4" stroke-width="0.578889"/>
<line x1="666.413" y1="-165.816" x2="-450.816" y2="951.413" stroke="#989CA4" stroke-width="0.578889"/>
<line x1="669.242" y1="-162.987" x2="-447.987" y2="954.242" stroke="#989CA4" stroke-width="0.578889"/>
<line x1="672.07" y1="-160.159" x2="-445.159" y2="957.07" stroke="#989CA4" stroke-width="0.578889"/>
<line x1="674.899" y1="-157.33" x2="-442.33" y2="959.898" stroke="#989CA4" stroke-width="0.578889"/>
<line x1="677.727" y1="-154.501" x2="-439.502" y2="962.727" stroke="#989CA4" stroke-width="0.578889"/>
<line x1="680.555" y1="-151.673" x2="-436.673" y2="965.555" stroke="#989CA4" stroke-width="0.578889"/>
<line x1="683.384" y1="-148.845" x2="-433.845" y2="968.384" stroke="#989CA4" stroke-width="0.578889"/>
<line x1="686.212" y1="-146.017" x2="-431.016" y2="971.212" stroke="#989CA4" stroke-width="0.578889"/>
<line x1="689.041" y1="-143.188" x2="-428.188" y2="974.041" stroke="#989CA4" stroke-width="0.578889"/>
<line x1="691.869" y1="-140.36" x2="-425.36" y2="976.869" stroke="#989CA4" stroke-width="0.578889"/>
<line x1="694.698" y1="-137.532" x2="-422.531" y2="979.697" stroke="#989CA4" stroke-width="0.578889"/>
<line x1="697.526" y1="-134.703" x2="-419.703" y2="982.526" stroke="#989CA4" stroke-width="0.578889"/>
<line x1="700.354" y1="-131.874" x2="-416.874" y2="985.354" stroke="#989CA4" stroke-width="0.578889"/>
<line x1="703.183" y1="-129.046" x2="-414.046" y2="988.182" stroke="#989CA4" stroke-width="0.578889"/>
<line x1="706.011" y1="-126.217" x2="-411.217" y2="991.011" stroke="#989CA4" stroke-width="0.578889"/>
<line x1="708.84" y1="-123.389" x2="-408.389" y2="993.84" stroke="#989CA4" stroke-width="0.578889"/>
<line x1="711.668" y1="-120.561" x2="-405.561" y2="996.668" stroke="#989CA4" stroke-width="0.578889"/>
<line x1="714.496" y1="-117.732" x2="-402.732" y2="999.497" stroke="#989CA4" stroke-width="0.578889"/>
<line x1="717.325" y1="-114.904" x2="-399.904" y2="1002.32" stroke="#989CA4" stroke-width="0.578889"/>
<line x1="720.153" y1="-112.076" x2="-397.075" y2="1005.15" stroke="#989CA4" stroke-width="0.578889"/>
<line x1="722.982" y1="-109.247" x2="-394.247" y2="1007.98" stroke="#989CA4" stroke-width="0.578889"/>
<line x1="725.81" y1="-106.418" x2="-391.419" y2="1010.81" stroke="#989CA4" stroke-width="0.578889"/>
<line x1="728.639" y1="-103.59" x2="-388.59" y2="1013.64" stroke="#989CA4" stroke-width="0.578889"/>
<line x1="731.467" y1="-100.762" x2="-385.762" y2="1016.47" stroke="#989CA4" stroke-width="0.578889"/>
<line x1="734.295" y1="-97.933" x2="-382.933" y2="1019.3" stroke="#989CA4" stroke-width="0.578889"/>
<line x1="737.124" y1="-95.1049" x2="-380.105" y2="1022.12" stroke="#989CA4" stroke-width="0.578889"/>
<line x1="739.952" y1="-92.2768" x2="-377.276" y2="1024.95" stroke="#989CA4" stroke-width="0.578889"/>
<line x1="742.781" y1="-89.4477" x2="-374.448" y2="1027.78" stroke="#989CA4" stroke-width="0.578889"/>
<line x1="745.609" y1="-86.6196" x2="-371.619" y2="1030.61" stroke="#989CA4" stroke-width="0.578889"/>
<line x1="748.438" y1="-83.7914" x2="-368.791" y2="1033.44" stroke="#989CA4" stroke-width="0.578889"/>
<line x1="751.266" y1="-80.9623" x2="-365.963" y2="1036.27" stroke="#989CA4" stroke-width="0.578889"/>
<line x1="754.095" y1="-78.1342" x2="-363.134" y2="1039.09" stroke="#989CA4" stroke-width="0.578889"/>
<line x1="756.923" y1="-75.3061" x2="-360.306" y2="1041.92" stroke="#989CA4" stroke-width="0.578889"/>
<line x1="759.751" y1="-72.477" x2="-357.477" y2="1044.75" stroke="#989CA4" stroke-width="0.578889"/>
<line x1="762.58" y1="-69.6488" x2="-354.649" y2="1047.58" stroke="#989CA4" stroke-width="0.578889"/>
<line x1="765.408" y1="-66.8207" x2="-351.82" y2="1050.41" stroke="#989CA4" stroke-width="0.578889"/>
<line x1="768.237" y1="-63.9926" x2="-348.992" y2="1053.24" stroke="#989CA4" stroke-width="0.578889"/>
<line x1="771.065" y1="-61.1635" x2="-346.164" y2="1056.07" stroke="#989CA4" stroke-width="0.578889"/>
<line x1="773.893" y1="-58.3354" x2="-343.335" y2="1058.89" stroke="#989CA4" stroke-width="0.578889"/>
<line x1="776.722" y1="-55.5072" x2="-340.507" y2="1061.72" stroke="#989CA4" stroke-width="0.578889"/>
<line x1="779.55" y1="-52.6781" x2="-337.678" y2="1064.55" stroke="#989CA4" stroke-width="0.578889"/>
<line x1="782.379" y1="-49.85" x2="-334.85" y2="1067.38" stroke="#989CA4" stroke-width="0.578889"/>
<line x1="785.207" y1="-47.0219" x2="-332.022" y2="1070.21" stroke="#989CA4" stroke-width="0.578889"/>
<line x1="788.035" y1="-44.1928" x2="-329.193" y2="1073.04" stroke="#989CA4" stroke-width="0.578889"/>
<line x1="790.864" y1="-41.3647" x2="-326.365" y2="1075.86" stroke="#989CA4" stroke-width="0.578889"/>
<line x1="793.692" y1="-38.5365" x2="-323.536" y2="1078.69" stroke="#989CA4" stroke-width="0.578889"/>
<line x1="796.521" y1="-35.7074" x2="-320.708" y2="1081.52" stroke="#989CA4" stroke-width="0.578889"/>
<line x1="799.349" y1="-32.8793" x2="-317.879" y2="1084.35" stroke="#989CA4" stroke-width="0.578889"/>
<line x1="802.178" y1="-30.0512" x2="-315.051" y2="1087.18" stroke="#989CA4" stroke-width="0.578889"/>
<line x1="805.006" y1="-27.2231" x2="-312.223" y2="1090.01" stroke="#989CA4" stroke-width="0.578889"/>
<line x1="807.835" y1="-24.394" x2="-309.394" y2="1092.83" stroke="#989CA4" stroke-width="0.578889"/>
<line x1="810.663" y1="-21.5658" x2="-306.566" y2="1095.66" stroke="#989CA4" stroke-width="0.578889"/>
<line x1="813.492" y1="-18.7377" x2="-303.737" y2="1098.49" stroke="#989CA4" stroke-width="0.578889"/>
<line x1="816.32" y1="-15.9086" x2="-300.909" y2="1101.32" stroke="#989CA4" stroke-width="0.578889"/>
<line x1="819.148" y1="-13.0805" x2="-298.08" y2="1104.15" stroke="#989CA4" stroke-width="0.578889"/>
<line x1="821.977" y1="-10.2524" x2="-295.252" y2="1106.98" stroke="#989CA4" stroke-width="0.578889"/>
<line x1="824.805" y1="-7.42326" x2="-292.423" y2="1109.81" stroke="#989CA4" stroke-width="0.578889"/>
<line x1="827.634" y1="-4.59514" x2="-289.595" y2="1112.63" stroke="#989CA4" stroke-width="0.578889"/>
<line x1="830.462" y1="-1.76701" x2="-286.767" y2="1115.46" stroke="#989CA4" stroke-width="0.578889"/>
<line x1="833.29" y1="1.06209" x2="-283.938" y2="1118.29" stroke="#989CA4" stroke-width="0.578889"/>
<line x1="836.119" y1="3.89021" x2="-281.11" y2="1121.12" stroke="#989CA4" stroke-width="0.578889"/>
<line x1="838.947" y1="6.71834" x2="-278.281" y2="1123.95" stroke="#989CA4" stroke-width="0.578889"/>
<line x1="841.776" y1="9.54646" x2="-275.453" y2="1126.78" stroke="#989CA4" stroke-width="0.578889"/>
<line x1="844.604" y1="12.3756" x2="-272.625" y2="1129.6" stroke="#989CA4" stroke-width="0.578889"/>
<line x1="847.432" y1="15.2037" x2="-269.796" y2="1132.43" stroke="#989CA4" stroke-width="0.578889"/>
</g>
</g>
<defs>
<clipPath id="clip0_387:8472">
<rect width="17" height="17" fill="white"/>
</clipPath>
</defs>
</svg>
