<svg width="48" height="48" viewBox="0 0 48 48" fill="none" xmlns="http://www.w3.org/2000/svg">
<path d="M0 24C0 10.7452 10.7452 0 24 0C37.2548 0 48 10.7452 48 24C48 37.2548 37.2548 48 24 48C10.7452 48 0 37.2548 0 24Z" fill="white"/>
<path d="M24.0001 17.6229C25.953 17.6229 27.2704 18.4665 28.0215 19.1713L30.9566 16.3056C29.1539 14.63 26.8081 13.6016 24.0001 13.6016C19.9326 13.6016 16.4197 15.9358 14.7095 19.3331L18.0721 21.9447C18.9157 19.4371 21.2499 17.6229 24.0001 17.6229Z" fill="#EA4335"/>
<path d="M33.984 24.2336C33.984 23.3785 33.9147 22.7545 33.7644 22.1074H24V25.967H29.7316C29.616 26.9261 28.992 28.3705 27.6053 29.3412L30.8871 31.8834C32.8516 30.0692 33.984 27.3999 33.984 24.2336Z" fill="#4285F4"/>
<path d="M18.0837 26.0574C17.8641 25.4103 17.737 24.7169 17.737 24.0005C17.737 23.284 17.8641 22.5907 18.0721 21.9436L14.7094 19.332C14.0045 20.7418 13.6001 22.3249 13.6001 24.0005C13.6001 25.676 14.0045 27.2591 14.7094 28.6689L18.0837 26.0574Z" fill="#FBBC05"/>
<path d="M24.0003 34.4017C26.8083 34.4017 29.1656 33.4773 30.8874 31.8826L27.6056 29.3404C26.7274 29.9528 25.5487 30.3804 24.0003 30.3804C21.2501 30.3804 18.9159 28.5661 18.0839 26.0586L14.7212 28.6701C16.4314 32.0675 19.9327 34.4017 24.0003 34.4017Z" fill="#34A853"/>
</svg>
