<?xml version="1.0" encoding="UTF-8"?>
<svg width="1920px" height="276px" viewBox="0 0 1920 276" version="1.1" xmlns="http://www.w3.org/2000/svg" xmlns:xlink="http://www.w3.org/1999/xlink">
    <title>Mask Group</title>
    <g id="Page-1" stroke="none" stroke-width="1" fill="none" fill-rule="evenodd">
        <g id="Mask-Group" fill="#D8D8D8" stroke="#979797">
            <path d="M0.5,0.883095189 L79.7427521,48.4287465 C159.765239,96.4422385 319.811707,192.465527 479.856326,240.478913 C546.566665,260.492015 613.277036,272.165531 679.987359,275.5 L679.987359,275.5 L0.5,275.5 L0.5,0.883095189 Z M1440.11554,57.4864683 C1600.0448,19.5032683 1759.97376,38.5006113 1839.9441,48.4968657 L1839.9441,48.4968657 L1919.5,57.4469041 L1919.5,275.5 L760.012641,275.5 C826.722964,272.165531 893.433335,260.492015 960.143674,240.478913 C1024.97284,221.030164 1089.80237,193.704208 1154.6317,165.48001 L1160.61595,162.872351 C1162.61069,162.002417 1164.60544,161.131835 1166.60019,160.26081 L1166.60019,160.26081 L1176.20025,156.066276 L1189.40017,150.296948 C1192.92005,148.759213 1196.43994,147.222513 1199.95969,145.688021 L1199.95969,145.688021 L1205.23955,143.387937 C1283.53268,109.308934 1361.82516,76.569756 1440.11554,57.4864683 Z" id="Combined-Shape"></path>
        </g>
    </g>
</svg>