<svg width="48" height="48" viewBox="0 0 48 48" fill="none" xmlns="http://www.w3.org/2000/svg">
<path d="M0 24C0 10.7452 10.7452 0 24 0C37.2548 0 48 10.7452 48 24C48 37.2548 37.2548 48 24 48C10.7452 48 0 37.2548 0 24Z" fill="#4680C2"/>
<path fill-rule="evenodd" clip-rule="evenodd" d="M37.3411 17.1797C37.5487 16.5143 37.3411 16.0303 36.4218 16.0303H33.3674C32.5964 16.0303 32.2406 16.4537 32.033 16.9075C32.033 16.9075 30.4613 20.7794 28.2669 23.29C27.5552 24.016 27.229 24.258 26.8436 24.258C26.6359 24.258 26.3691 24.016 26.3691 23.3506V17.1494C26.3691 16.363 26.1319 16 25.4794 16H20.6755C20.201 16 19.9045 16.363 19.9045 16.726C19.9045 17.4823 21.0017 17.6637 21.1203 19.7811V24.379C21.1203 25.3773 20.9424 25.5587 20.5569 25.5587C19.519 25.5587 16.9984 21.6566 15.486 17.21C15.1894 16.3327 14.8929 16 14.122 16H11.0379C10.1483 16 10 16.4235 10 16.8773C10 17.694 11.0379 21.8078 14.8336 27.2527C17.3543 30.9733 20.9424 32.9697 24.1747 32.9697C26.1319 32.9697 26.3691 32.516 26.3691 31.7598V28.9467C26.3691 28.0391 26.547 27.888 27.1698 27.888C27.6145 27.888 28.4152 28.1299 30.2241 29.9146C32.2998 32.032 32.6557 33 33.8122 33H36.8666C37.7562 33 38.1714 32.5463 37.9342 31.669C37.6673 30.7918 36.6591 29.5214 35.3543 28.0089C34.6425 27.162 33.575 26.2243 33.2488 25.7704C32.804 25.1655 32.9226 24.9235 33.2488 24.379C33.2192 24.379 36.9556 18.9947 37.3411 17.1797Z" fill="white"/>
</svg>
