<svg width="100" height="100" viewBox="0 0 100 100" fill="none" xmlns="http://www.w3.org/2000/svg">
<g clip-path="url(#clip0_394_18360)">
<path fill-rule="evenodd" clip-rule="evenodd" d="M93.4699 1.92308C94.6918 1.9241 95.8633 2.41004 96.7271 3.27422C97.5909 4.13841 98.0764 5.31013 98.0769 6.53201V93.468C98.0764 94.6899 97.5909 95.8616 96.7271 96.7258C95.8633 97.59 94.6918 98.0759 93.4699 98.0769H6.53076C5.30876 98.0761 4.13709 97.5901 3.27313 96.7259C2.40917 95.8617 1.92359 94.69 1.92308 93.468V6.53201C1.92359 5.31002 2.40917 4.13827 3.27313 3.27407C4.13709 2.40986 5.30876 1.92393 6.53076 1.92308H93.4699ZM93.4699 3.14994e-08H6.53076C5.673 -8.42076e-05 4.82361 0.168793 4.03114 0.497045C3.23867 0.825298 2.51863 1.30647 1.91216 1.91306C1.30569 2.51965 0.824673 3.23978 0.496576 4.03231C0.168479 4.82485 -0.000252327 5.67425 2.83218e-07 6.53201V93.468C-0.000252327 94.3258 0.168479 95.1752 0.496576 95.9677C0.824673 96.7602 1.30569 97.4804 1.91216 98.0869C2.51863 98.6935 3.23867 99.1747 4.03114 99.503C4.82361 99.8312 5.673 100 6.53076 100H93.4699C94.3276 100 95.1769 99.831 95.9693 99.5027C96.7617 99.1744 97.4816 98.6933 98.088 98.0867C98.6944 97.4801 99.1754 96.76 99.5035 95.9675C99.8315 95.175 100 94.3257 100 93.468V6.53201C100 5.6743 99.8315 4.82496 99.5035 4.03247C99.1754 3.23997 98.6944 2.51988 98.088 1.9133C97.4816 1.30671 96.7617 0.82557 95.9693 0.49728C95.1769 0.16899 94.3276 -5.69366e-09 93.4699 3.14994e-08Z" fill="black"/>
<mask id="mask0_394_18360" style="mask-type:alpha" maskUnits="userSpaceOnUse" x="1" y="15" width="84" height="33">
<path fill-rule="evenodd" clip-rule="evenodd" d="M84.0572 47.9987H1.13623V15.7354H84.0572V47.9987Z" fill="#13CE66"/>
</mask>
<g mask="url(#mask0_394_18360)">
<path fill-rule="evenodd" clip-rule="evenodd" d="M78.2377 39.4682L65.8973 51.8079V51.8208L48.0768 69.6413H49.0883L65.8967 52.8272V52.8208L79.2479 39.4682H79.2409L89.8717 28.84V27.8272L78.2313 39.4682H78.2358H78.2377ZM70.1608 39.4682L65.896 43.731V43.7439L41.6877 67.9554V67.9683L40.0159 69.6413H41.0255L41.689 68.9746V68.9618L65.8973 44.7567V44.7375L71.1704 39.4682L89.8717 20.7695V19.7567L70.1588 39.4682H70.1608ZM82.2723 39.4682L65.8973 55.84V55.8529L52.1152 69.6413H53.1249L65.8979 56.8656V56.8528L83.2813 39.4682L89.8717 32.8785V31.8656L82.2723 39.4682ZM65.8973 31.6221V31.6349L58.0633 39.4682L41.6877 55.84V55.8529L27.9056 69.6413H28.9146L41.6883 56.8656V56.8528L59.071 39.4682L65.8954 32.6413V32.6285L89.8697 8.65413V7.64776L65.8973 31.6221ZM65.8973 35.667L62.0992 39.4682L41.6896 59.8785V59.8913L31.9415 69.6413H32.9486L41.6883 60.8977V60.8849L63.1063 39.4682L65.896 36.6798V36.6669L89.8704 12.6926V11.6798L65.896 35.6541V35.667H65.8973ZM66.1255 39.4682L65.8973 39.6926V39.7118L41.689 63.9169V63.9298L35.9838 69.6413H36.987L41.6858 64.9426V64.9234L65.8941 40.7183V40.7054L67.1325 39.4682H67.1262L89.8717 16.7246V15.7118L66.1185 39.4682H66.1255ZM81.3678 69.6413L89.8717 61.1349V60.1221L80.3576 69.6413H81.3678ZM77.3326 69.6413L89.8717 57.0964V56.09L76.323 69.6413H77.3326ZM73.2973 69.6413L89.8717 53.0644V52.0515L72.2858 69.6413H73.2973ZM89.4428 69.6413L89.8723 69.2118V68.199L88.4345 69.6413H89.4428ZM85.4044 69.6413L89.8691 65.1734V64.1669L84.3954 69.6413H85.4044ZM65.8941 63.9298L60.189 69.6413H61.1979L65.896 64.9426V64.9234L89.8704 40.949V39.9426L65.896 63.9169V63.9298H65.8941ZM65.8941 67.9683L64.2229 69.6413H65.2313L65.8941 68.9746V68.9618L89.8685 44.9875V43.9746L65.8941 67.9554V67.9683ZM69.2524 69.6413L89.8717 49.0195V48.0131L68.2454 69.6413H69.255H69.2524ZM86.3037 39.4682L65.8934 59.8785V59.8913L56.1454 69.6413H57.1556L65.8973 60.8977V60.8849L87.3159 39.4682L89.8717 36.9105V35.9041L86.3076 39.4682H86.3037ZM65.8934 47.7695V47.7759L44.0345 69.6413H45.0447L65.8947 48.7887V48.7759L75.205 39.4682L89.8717 24.8015V23.7952L74.1967 39.4682L65.8934 47.7695ZM41.6851 52.8208L55.0358 39.4682H55.0319L65.8967 28.6028V28.59L87.3153 7.17333L89.3197 5.16699H88.3114L86.3069 7.17333L65.8967 27.5836V27.5965L54.0223 39.4682H54.0274L41.6883 51.8079V51.8208L23.8678 69.6413H24.8793L41.6883 52.8272V52.8208H41.6851ZM41.6851 44.7375L46.9582 39.4682L65.8934 20.5324V20.5195L79.2447 7.17333H79.2377L81.2422 5.16699H80.2326L78.2281 7.17333H78.2326L65.8973 19.5131V19.5195L45.9512 39.4682L41.687 43.731V43.7439L17.4781 67.9554V67.9683L15.8069 69.6413H16.8152L17.4781 68.9746V68.9618L41.687 44.7567V44.7375H41.6851ZM41.6851 48.7759L50.9947 39.4682L65.8947 24.5708V24.5516L83.2781 7.17333L85.2826 5.16699H84.2736L82.2691 7.17333L65.8973 23.5451V23.558L49.9883 39.4682L41.689 47.7695V47.7759L19.83 69.6413H20.8402L41.6909 48.7887V48.7759H41.6851ZM0.128067 5.16699V5.59001L0.548584 5.16699H0.128067ZM14.6896 7.17333L16.6941 5.16699H15.6858L13.6813 7.17333L0.128067 20.7246V21.7311L14.6896 7.17333ZM10.6544 7.17333L12.6588 5.16699H11.6499L9.64536 7.17333L0.128067 16.6862V17.699L10.6544 7.17333ZM6.61587 7.17333L8.62037 5.16699H7.61074L5.60629 7.17333H5.61141L0.128067 12.6541V13.6669L6.62166 7.17333H6.61462H6.61587ZM17.4806 20.5195L30.8313 7.17333H30.8249L32.8293 5.16699H31.8191L29.8153 7.17333H29.8197L17.4806 19.5131V19.5195L0.128067 36.8721V37.8849L17.4793 20.5324V20.5195H17.4806ZM14.6909 39.4682L17.4806 36.6798V36.6669L41.6896 12.4555V12.4426L46.9627 7.17333L48.9672 5.16699H47.955L45.9505 7.17333L41.6864 11.4362V11.449L17.4774 35.6541V35.667L13.6794 39.4682L0.128067 53.0195V54.0324L14.689 39.4682H14.6909ZM10.6556 39.4682L17.4806 32.6413V32.6285L41.6896 8.42337V8.41054L42.9274 7.17333H42.921L44.9255 5.16699H43.9152L41.9114 7.17333H41.9172L41.6896 7.39775V7.41058L17.4806 31.6221V31.6349L9.64666 39.4682L0.128067 48.9875V49.9939L10.6537 39.4682H10.6556ZM17.4806 8.41054L18.7184 7.17333H18.7114L20.7159 5.16699H19.7056L17.7011 7.17333H17.7069L17.4793 7.39775V7.41058L0.128067 24.7631V25.7695L17.4793 8.42337V8.41054H17.4806ZM17.4806 12.4426L22.7537 7.17333L24.7576 5.16699H23.7466L21.7422 7.17333L17.4781 11.4362V11.449L0.128067 28.8016V29.808L17.4793 12.4555V12.4426H17.4806ZM17.4806 16.481L26.7903 7.17333L28.7947 5.16699H27.7858L25.7813 7.17333L17.4819 15.4682V15.4811L0.128067 32.8336V33.8401L17.4793 16.4939V16.481H17.4806ZM2.58062 7.17333L4.58512 5.16699H3.5755L1.57167 7.17333L0.129358 8.61563V9.62209L2.58191 7.17333H2.58062ZM6.61908 39.4682L17.4838 28.6028V28.59L38.9018 7.17333L40.9056 5.16699H39.8973L37.8935 7.17333L17.4838 27.5836V27.5965L5.60949 39.4682H5.61462L0.128067 44.949V45.9618L6.62166 39.4682H6.61462H6.61908ZM17.4838 60.8849L38.9018 39.4682L41.6915 36.6798V36.6669L65.8999 12.4555V12.4426L71.173 7.17333L73.1774 5.16699H72.1659L70.1614 7.17333L65.8967 11.4362V11.449L41.6883 35.6541V35.667L37.8902 39.4682L17.4806 59.8785V59.8913L7.73254 69.6413H8.74283L17.4793 60.8977V60.8849H17.4838ZM17.4838 56.8528L34.8665 39.4682L41.6915 32.6413V32.6285L65.8999 8.42337V8.41054L67.1383 7.17333H67.1319L69.1364 5.16699H68.1262L66.1217 7.17333H66.1281L65.8999 7.39775V7.41058L41.6915 31.6221V31.6349L33.8575 39.4682L17.4819 55.84V55.8529L3.69988 69.6413H4.70883L17.4826 56.8656V56.8528H17.4838ZM17.4838 52.8208L30.8345 39.4682H30.8281L41.6928 28.6028V28.59L63.1108 7.17333L65.1152 5.16699H64.1024L62.0979 7.17333L41.6883 27.5836V27.5965L29.814 39.4682H29.8185L17.4793 51.8079V51.8208L0.128067 69.167V69.6413H0.67038L17.4793 52.8272V52.8208H17.4838ZM17.4838 64.9234L41.6928 40.7183V40.7054L42.9306 39.4682H42.9242L65.9012 16.4939V16.481L75.2114 7.17333L77.2159 5.16699H76.2069L74.2031 7.17333L65.8973 15.4682V15.4811L41.9108 39.4682H41.9165L41.689 39.6926V39.7118L17.48 63.9169V63.9298L11.7749 69.6413H12.7838L17.4819 64.9426V64.9234H17.4838ZM17.4838 40.7054L18.7216 39.4682H18.7114L41.6883 16.4939V16.481L50.9979 7.17333L53.0024 5.16699H51.9934L49.989 7.17333L41.6896 15.4682V15.4811L17.7024 39.4682H17.7082L17.4806 39.6926V39.7118L0.128067 57.058V58.0708L17.4793 40.7183V40.7054H17.4838ZM17.4838 44.7375L22.7569 39.4682L41.6922 20.5324V20.5195L55.0428 7.17333H55.0319L57.0364 5.16699H56.0255L54.021 7.17333H54.0261L41.687 19.5131V19.5195L21.7403 39.4682L17.4761 43.731V43.7439L0.128067 61.0965V62.1029L17.4793 44.7567V44.7375H17.4838ZM17.4838 48.7759L26.7935 39.4682L41.6941 24.5708V24.5516L59.0768 7.17333L61.0806 5.16699H60.0717L58.0672 7.17333L41.6915 23.5451V23.558L25.7819 39.4682L17.4826 47.7695V47.7759L0.128067 65.1285V66.1413L17.4793 48.7887V48.7759H17.4838ZM2.58383 39.4682L17.4838 24.5708V24.5516L34.8665 7.17333L36.871 5.16699H35.8588L33.8543 7.17333L17.4787 23.5451V23.558L1.56975 39.4682L0.127441 40.9105V41.9234L2.58 39.4682H2.58383Z" fill="black"/>
</g>
<mask id="mask1_394_18360" style="mask-type:alpha" maskUnits="userSpaceOnUse" x="15" y="52" width="25" height="48">
<path fill-rule="evenodd" clip-rule="evenodd" d="M39.0834 99.0555H15.1714V52.1729H39.0834V99.0555Z" fill="#13CE66"/>
</mask>
<g mask="url(#mask1_394_18360)">
<path fill-rule="evenodd" clip-rule="evenodd" d="M78.2377 75.9057L65.8973 88.2454V88.2583L48.0768 106.079H49.0883L65.8967 89.2647V89.2583L79.2479 75.9057H79.2409L89.8717 65.2775V64.2647L78.2313 75.9057H78.2358H78.2377ZM70.1608 75.9057L65.896 80.1685V80.1814L41.6877 104.393V104.406L40.0159 106.079H41.0255L41.689 105.412V105.399L65.8973 81.1942V81.175L71.1704 75.9057L89.8717 57.207V56.1942L70.1588 75.9057H70.1608ZM82.2723 75.9057L65.8973 92.2775V92.2904L52.1152 106.079H53.1249L65.8979 93.3031V93.2903L83.2813 75.9057L89.8717 69.316V68.3031L82.2723 75.9057ZM65.8973 68.0596V68.0724L58.0633 75.9057L41.6877 92.2775V92.2904L27.9056 106.079H28.9146L41.6883 93.3031V93.2903L59.071 75.9057L65.8954 69.0788V69.066L89.8697 45.0916V44.0853L65.8973 68.0596ZM65.8973 72.1045L62.0992 75.9057L41.6896 96.316V96.3288L31.9415 106.079H32.9486L41.6883 97.3352V97.3224L63.1063 75.9057L65.896 73.1173V73.1044L89.8704 49.1301V48.1173L65.896 72.0916V72.1045H65.8973ZM66.1255 75.9057L65.8973 76.1301V76.1493L41.689 100.354V100.367L35.9838 106.079H36.987L41.6858 101.38V101.361L65.8941 77.1558V77.1429L67.1325 75.9057H67.1262L89.8717 53.1621V52.1493L66.1185 75.9057H66.1255ZM81.3678 106.079L89.8717 97.5724V96.5596L80.3576 106.079H81.3678ZM77.3326 106.079L89.8717 93.5339V92.5275L76.323 106.079H77.3326ZM73.2973 106.079L89.8717 89.5019V88.489L72.2858 106.079H73.2973ZM89.4428 106.079L89.8723 105.649V104.637L88.4345 106.079H89.4428ZM85.4044 106.079L89.8691 101.611V100.604L84.3954 106.079H85.4044ZM65.8941 100.367L60.189 106.079H61.1979L65.896 101.38V101.361L89.8704 77.3865V76.3801L65.896 100.354V100.367H65.8941ZM65.8941 104.406L64.2229 106.079H65.2313L65.8941 105.412V105.399L89.8685 81.425V80.4121L65.8941 104.393V104.406ZM69.2524 106.079L89.8717 85.457V84.4506L68.2454 106.079H69.255H69.2524ZM86.3037 75.9057L65.8934 96.316V96.3288L56.1454 106.079H57.1556L65.8973 97.3352V97.3224L87.3159 75.9057L89.8717 73.348V72.3416L86.3076 75.9057H86.3037ZM65.8934 84.207V84.2134L44.0345 106.079H45.0447L65.8947 85.2262V85.2134L75.205 75.9057L89.8717 61.239V60.2327L74.1967 75.9057L65.8934 84.207ZM41.6851 89.2583L55.0358 75.9057H55.0319L65.8967 65.0403V65.0275L87.3153 43.6108L89.3197 41.6045H88.3114L86.3069 43.6108L65.8967 64.0211V64.034L54.0223 75.9057H54.0274L41.6883 88.2454V88.2583L23.8678 106.079H24.8793L41.6883 89.2647V89.2583H41.6851ZM41.6851 81.175L46.9582 75.9057L65.8934 56.9699V56.957L79.2447 43.6108H79.2377L81.2422 41.6045H80.2326L78.2281 43.6108H78.2326L65.8973 55.9506V55.957L45.9512 75.9057L41.687 80.1685V80.1814L17.4781 104.393V104.406L15.8069 106.079H16.8152L17.4781 105.412V105.399L41.687 81.1942V81.175H41.6851ZM41.6851 85.2134L50.9947 75.9057L65.8947 61.0083V60.9891L83.2781 43.6108L85.2826 41.6045H84.2736L82.2691 43.6108L65.8973 59.9826V59.9955L49.9883 75.9057L41.689 84.207V84.2134L19.83 106.079H20.8402L41.6909 85.2262V85.2134H41.6851ZM0.128067 41.6045V42.0275L0.548584 41.6045H0.128067ZM14.6896 43.6108L16.6941 41.6045H15.6858L13.6813 43.6108L0.128067 57.1621V58.1686L14.6896 43.6108ZM10.6544 43.6108L12.6588 41.6045H11.6499L9.64536 43.6108L0.128067 53.1237V54.1365L10.6544 43.6108ZM6.61587 43.6108L8.62037 41.6045H7.61074L5.60629 43.6108H5.61141L0.128067 49.0916V50.1044L6.62166 43.6108H6.61462H6.61587ZM17.4806 56.957L30.8313 43.6108H30.8249L32.8293 41.6045H31.8191L29.8153 43.6108H29.8197L17.4806 55.9506V55.957L0.128067 73.3096V74.3224L17.4793 56.9699V56.957H17.4806ZM14.6909 75.9057L17.4806 73.1173V73.1044L41.6896 48.893V48.8801L46.9627 43.6108L48.9672 41.6045H47.955L45.9505 43.6108L41.6864 47.8737V47.8865L17.4774 72.0916V72.1045L13.6794 75.9057L0.128067 89.457V90.4699L14.689 75.9057H14.6909ZM10.6556 75.9057L17.4806 69.0788V69.066L41.6896 44.8609V44.848L42.9274 43.6108H42.921L44.9255 41.6045H43.9152L41.9114 43.6108H41.9172L41.6896 43.8352V43.8481L17.4806 68.0596V68.0724L9.64666 75.9057L0.128067 85.425V86.4314L10.6537 75.9057H10.6556ZM17.4806 44.848L18.7184 43.6108H18.7114L20.7159 41.6045H19.7056L17.7011 43.6108H17.7069L17.4793 43.8352V43.8481L0.128067 61.2006V62.207L17.4793 44.8609V44.848H17.4806ZM17.4806 48.8801L22.7537 43.6108L24.7576 41.6045H23.7466L21.7422 43.6108L17.4781 47.8737V47.8865L0.128067 65.2391V66.2455L17.4793 48.893V48.8801H17.4806ZM17.4806 52.9185L26.7903 43.6108L28.7947 41.6045H27.7858L25.7813 43.6108L17.4819 51.9057V51.9186L0.128067 69.2711V70.2776L17.4793 52.9314V52.9185H17.4806ZM2.58062 43.6108L4.58512 41.6045H3.5755L1.57167 43.6108L0.129358 45.0531V46.0596L2.58191 43.6108H2.58062ZM6.61908 75.9057L17.4838 65.0403V65.0275L38.9018 43.6108L40.9056 41.6045H39.8973L37.8935 43.6108L17.4838 64.0211V64.034L5.60949 75.9057H5.61462L0.128067 81.3865V82.3993L6.62166 75.9057H6.61462H6.61908ZM17.4838 97.3224L38.9018 75.9057L41.6915 73.1173V73.1044L65.8999 48.893V48.8801L71.173 43.6108L73.1774 41.6045H72.1659L70.1614 43.6108L65.8967 47.8737V47.8865L41.6883 72.0916V72.1045L37.8902 75.9057L17.4806 96.316V96.3288L7.73254 106.079H8.74283L17.4793 97.3352V97.3224H17.4838ZM17.4838 93.2903L34.8665 75.9057L41.6915 69.0788V69.066L65.8999 44.8609V44.848L67.1383 43.6108H67.1319L69.1364 41.6045H68.1262L66.1217 43.6108H66.1281L65.8999 43.8352V43.8481L41.6915 68.0596V68.0724L33.8575 75.9057L17.4819 92.2775V92.2904L3.69988 106.079H4.70883L17.4826 93.3031V93.2903H17.4838ZM17.4838 89.2583L30.8345 75.9057H30.8281L41.6928 65.0403V65.0275L63.1108 43.6108L65.1152 41.6045H64.1024L62.0979 43.6108L41.6883 64.0211V64.034L29.814 75.9057H29.8185L17.4793 88.2454V88.2583L0.128067 105.604V106.079H0.67038L17.4793 89.2647V89.2583H17.4838ZM17.4838 101.361L41.6928 77.1558V77.1429L42.9306 75.9057H42.9242L65.9012 52.9314V52.9185L75.2114 43.6108L77.2159 41.6045H76.2069L74.2031 43.6108L65.8973 51.9057V51.9186L41.9108 75.9057H41.9165L41.689 76.1301V76.1493L17.48 100.354V100.367L11.7749 106.079H12.7838L17.4819 101.38V101.361H17.4838ZM17.4838 77.1429L18.7216 75.9057H18.7114L41.6883 52.9314V52.9185L50.9979 43.6108L53.0024 41.6045H51.9934L49.989 43.6108L41.6896 51.9057V51.9186L17.7024 75.9057H17.7082L17.4806 76.1301V76.1493L0.128067 93.4955V94.5083L17.4793 77.1558V77.1429H17.4838ZM17.4838 81.175L22.7569 75.9057L41.6922 56.9699V56.957L55.0428 43.6108H55.0319L57.0364 41.6045H56.0255L54.021 43.6108H54.0261L41.687 55.9506V55.957L21.7403 75.9057L17.4761 80.1685V80.1814L0.128067 97.534V98.5404L17.4793 81.1942V81.175H17.4838ZM17.4838 85.2134L26.7935 75.9057L41.6941 61.0083V60.9891L59.0768 43.6108L61.0806 41.6045H60.0717L58.0672 43.6108L41.6915 59.9826V59.9955L25.7819 75.9057L17.4826 84.207V84.2134L0.128067 101.566V102.579L17.4793 85.2262V85.2134H17.4838ZM2.58383 75.9057L17.4838 61.0083V60.9891L34.8665 43.6108L36.871 41.6045H35.8588L33.8543 43.6108L17.4787 59.9826V59.9955L1.56975 75.9057L0.127441 77.348V78.3609L2.58 75.9057H2.58383Z" fill="black"/>
</g>
<path fill-rule="evenodd" clip-rule="evenodd" d="M72.2885 86.3255V86.3448L71.718 86.9089H72.7179L74.7307 84.8961V83.8833L72.2885 86.3255ZM72.2885 83.3063L73.2436 82.3512H72.2436L67.6859 86.9089H68.6923L72.2885 83.3128V83.3063ZM60.1346 82.3512L55.5705 86.9089H56.5833L61.141 82.3512H60.1346ZM64.1667 82.3512L59.609 86.9089H60.6153L65.1795 82.3512H64.1667ZM68.2051 82.3512L63.641 86.9089H64.6538L69.2115 82.3512H68.2051ZM56.0962 82.3512L51.5321 86.9089H52.5449L57.1025 82.3512H56.0962ZM52.0577 82.3512L50 84.4089V85.4217L53.0641 82.3512H52.0577ZM78.4744 76.1076H79.4872L82.2115 73.3833V72.3704L78.4744 76.1076ZM74.9615 71.5435L72.2885 74.2166V74.2294L70.4102 76.1076H71.4231L72.2885 75.2422V75.2294L75.968 71.5435H74.9615ZM78.9936 71.5435L74.4359 76.1076H75.4487L80.0064 71.5435H78.9936ZM58.8269 71.5435L54.2693 76.1076H55.282L59.8397 71.5435H58.8269ZM70.9359 71.5435L66.3782 76.1076H67.3846L71.9487 71.5435H70.9359ZM66.8974 71.5435L62.3397 76.1076H63.3461L67.9039 71.5435H66.8974ZM62.8654 71.5435L58.3013 76.1076H59.3141L63.8718 71.5435H62.8654ZM50.75 71.5435L50 72.2999V73.3127L51.7628 71.5435H50.75ZM54.7884 71.5435L50.2308 76.1076H51.2372L55.8013 71.5435H54.7884ZM73.6539 60.7422L72.2885 62.1076V62.1204L69.1089 65.2999H70.1154L72.2885 63.1269V63.114L74.6602 60.7422H73.6539ZM73.1282 65.2999H74.141L74.7307 64.7102V63.6973L73.1282 65.2999ZM69.6282 60.7422L65.0641 65.2999H66.0769L70.6346 60.7422H69.6282ZM65.5897 60.7422L61.032 65.2999H62.0385L66.6026 60.7422H65.5897ZM61.5577 60.7422L56.9936 65.2999H58.0064L62.5641 60.7422H61.5577ZM50 60.7422V61.1974L50.4551 60.7422H50ZM53.4808 60.7422L50 64.223V65.2358L54.4936 60.7422H53.4808ZM57.5128 60.7422L52.9551 65.2999H53.9616L58.5257 60.7422H57.5128Z" fill="black"/>
</g>
<defs>
<clipPath id="clip0_394_18360">
<rect width="100" height="100" fill="white"/>
</clipPath>
</defs>
</svg>
