<svg width="100" height="100" viewBox="0 0 100 100" fill="none" xmlns="http://www.w3.org/2000/svg">
<g clip-path="url(#clip0_343_2969)">
<path fill-rule="evenodd" clip-rule="evenodd" d="M93.4699 1.92308C94.6918 1.9241 95.8633 2.41004 96.7271 3.27422C97.5909 4.13841 98.0764 5.31013 98.0769 6.53201V93.468C98.0764 94.6899 97.5909 95.8616 96.7271 96.7258C95.8633 97.59 94.6918 98.0759 93.4699 98.0769H6.53076C5.30876 98.0761 4.13709 97.5901 3.27313 96.7259C2.40917 95.8617 1.92359 94.69 1.92308 93.468V6.53201C1.92359 5.31002 2.40917 4.13827 3.27313 3.27407C4.13709 2.40986 5.30876 1.92393 6.53076 1.92308H93.4699ZM93.4699 3.14994e-08H6.53076C5.673 -8.42076e-05 4.82361 0.168793 4.03114 0.497045C3.23867 0.825298 2.51863 1.30647 1.91216 1.91306C1.30569 2.51965 0.824673 3.23978 0.496576 4.03231C0.168479 4.82485 -0.000252327 5.67425 2.83218e-07 6.53201V93.468C-0.000252327 94.3258 0.168479 95.1752 0.496576 95.9677C0.824673 96.7602 1.30569 97.4804 1.91216 98.0869C2.51863 98.6935 3.23867 99.1747 4.03114 99.503C4.82361 99.8312 5.673 100 6.53076 100H93.4699C94.3276 100 95.1769 99.831 95.9693 99.5027C96.7617 99.1744 97.4816 98.6933 98.088 98.0867C98.6944 97.4801 99.1754 96.76 99.5035 95.9675C99.8315 95.175 100 94.3257 100 93.468V6.53201C100 5.6743 99.8315 4.82496 99.5035 4.03247C99.1754 3.23997 98.6944 2.51988 98.088 1.9133C97.4816 1.30671 96.7617 0.82557 95.9693 0.49728C95.1769 0.16899 94.3276 -5.69366e-09 93.4699 3.14994e-08ZM63.3417 91.6731H64.3526L67.2282 88.7949V87.782L63.3417 91.6731ZM55.7923 87.109L51.2314 91.6731H52.2436L56.8039 87.109H55.7949H55.7923ZM59.8308 87.109L55.2705 91.6731H56.2808L60.841 87.109H59.8269H59.8308ZM63.8648 87.109L59.3045 91.6731H60.3147L64.875 87.109H63.8648ZM51.7558 87.109L47.1955 91.6731H48.2045L52.7647 87.109H51.7558ZM47.7205 87.109L46.6949 88.141V88.1539L43.1763 91.6731H44.1859L46.6949 89.1602V89.1474L48.7314 87.109H47.7231H47.7205ZM43.6968 87.109L39.1365 91.6731H40.1474L44.7077 87.109H43.6968ZM35.6199 87.109L32.7744 89.9551V90.968L36.6301 87.109H35.6199ZM39.6545 87.109L35.0942 91.6731H36.1039L40.6641 87.109H39.6545ZM70.8974 80.0641V80.077L69.718 81.2564H70.7276L70.8974 81.0833V81.0769L72.4359 79.5384V78.5256L70.8974 80.0641ZM54.0987 76.6923L49.5385 81.2564H50.55L55.1102 76.6923H54.0987ZM66.209 76.6923L61.6487 81.2564H62.6577L67.2179 76.6923H66.209ZM70.8974 77.0385L71.241 76.6923H70.2436L65.6833 81.2564H66.6943L70.8974 77.0513V77.0385ZM62.1692 76.6923L57.609 81.2564H58.6179L63.1782 76.6923H62.1692ZM58.1352 76.6923L53.5744 81.2564H54.5821L59.1423 76.6923H58.1352ZM50.0583 76.6923L46.6885 80.0641V80.077L45.5083 81.2564H46.5186L46.6885 81.0833V81.0769L51.0686 76.6923H50.0583ZM29.8897 76.6923L27.5641 79.0192V80.032L30.9013 76.6923H29.8897ZM41.9993 76.6923L37.4391 81.2564H38.4481L43.009 76.6923H41.9993ZM46.6885 77.0385L47.0314 76.6923H46.034L41.4744 81.2564H42.4852L46.6885 77.0513V77.0385ZM37.9603 76.6923L33.3994 81.2564H34.4083L38.9686 76.6923H37.9603ZM33.9256 76.6923L29.3648 81.2564H30.3724L34.9333 76.6923H33.9256Z" fill="black"/>
<mask id="mask0_343_2969" style="mask-type:alpha" maskUnits="userSpaceOnUse" x="5" y="15" width="90" height="55">
<path fill-rule="evenodd" clip-rule="evenodd" d="M94.8703 69.6406H5.13623V15.7354H94.8703V69.6406Z" fill="#13CE66"/>
</mask>
<g mask="url(#mask0_343_2969)">
<path fill-rule="evenodd" clip-rule="evenodd" d="M93.4699 1.92308C94.6918 1.9241 95.8633 2.41004 96.7271 3.27422C97.5909 4.13841 98.0764 5.31013 98.0769 6.53201V93.468C98.0764 94.6899 97.5909 95.8616 96.7271 96.7258C95.8633 97.59 94.6918 98.0759 93.4699 98.0769H6.53076C5.30876 98.0761 4.13709 97.5901 3.27313 96.7259C2.40917 95.8617 1.92359 94.69 1.92308 93.468V6.53201C1.92359 5.31002 2.40917 4.13827 3.27313 3.27407C4.13709 2.40986 5.30876 1.92393 6.53076 1.92308H93.4699ZM93.4699 3.14996e-08H6.53076C5.673 -8.42076e-05 4.82361 0.168793 4.03114 0.497045C3.23867 0.825298 2.51863 1.30647 1.91216 1.91306C1.30569 2.51965 0.824673 3.23978 0.496576 4.03231C0.168479 4.82485 -0.000252327 5.67425 2.83218e-07 6.53201V93.468C-0.000252327 94.3258 0.168479 95.1752 0.496576 95.9677C0.824673 96.7602 1.30569 97.4804 1.91216 98.0869C2.51863 98.6935 3.23867 99.1747 4.03114 99.503C4.82361 99.8312 5.673 100 6.53076 100H93.4699C94.3276 100 95.1769 99.831 95.9693 99.5027C96.7617 99.1744 97.4816 98.6933 98.088 98.0867C98.6944 97.4801 99.1754 96.76 99.5035 95.9675C99.8315 95.175 100 94.3257 100 93.468V6.53201C100 5.6743 99.8315 4.82496 99.5035 4.03247C99.1754 3.23997 98.6944 2.51988 98.088 1.9133C97.4816 1.30671 96.7617 0.82557 95.9693 0.49728C95.1769 0.16899 94.3276 -5.69352e-09 93.4699 3.14996e-08V3.14996e-08ZM63.3417 91.6731H64.3526L67.2282 88.7949V87.782L63.3417 91.6731ZM55.7923 87.109L51.2314 91.6731H52.2436L56.8039 87.109H55.7949H55.7923ZM59.8308 87.109L55.2705 91.6731H56.2808L60.841 87.109H59.8269H59.8308ZM63.8648 87.109L59.3045 91.6731H60.3147L64.875 87.109H63.8648ZM51.7558 87.109L47.1955 91.6731H48.2045L52.7647 87.109H51.7558ZM47.7205 87.109L46.6949 88.141V88.1539L43.1763 91.6731H44.1859L46.6949 89.1602V89.1474L48.7314 87.109H47.7231H47.7205ZM43.6968 87.109L39.1365 91.6731H40.1474L44.7077 87.109H43.6968ZM35.6199 87.109L32.7744 89.9551V90.968L36.6301 87.109H35.6199ZM39.6545 87.109L35.0942 91.6731H36.1039L40.6641 87.109H39.6545ZM83.2378 39.4679L70.8974 51.8077V51.8205L53.0769 69.641H54.0885L70.8968 52.8269V52.8205L84.2481 39.4679H84.241L94.8718 28.8397V27.8269L83.2314 39.4679H83.2359H83.2378ZM75.1609 39.4679L70.8962 43.7308V43.7436L46.6878 67.9551V67.968L45.016 69.641H46.0256L46.6891 68.9743V68.9615L70.8974 44.7564V44.7372L76.1705 39.4679L94.8718 20.7692V19.7564L75.159 39.4679H75.1609ZM87.2725 39.4679L70.8974 55.8397V55.8526L57.1154 69.641H58.125L70.8981 56.8654V56.8525L88.2814 39.4679L94.8718 32.8782V31.8654L87.2718 39.4679H87.2725ZM70.8974 31.6218V31.6346L63.0635 39.4679L46.6878 55.8397V55.8526L32.9058 69.641H33.9147L46.6885 56.8654V56.8525L64.0711 39.4679L70.8955 32.6411V32.6282L94.8699 8.65385V7.64747L70.8974 31.6218ZM70.8974 35.6667L67.0994 39.4679L46.6897 59.8782V59.8911L36.9417 69.641H37.9487L46.6885 60.8974V60.8846L68.1064 39.4679L70.8962 36.6795V36.6666L94.8705 12.6923V11.6795L70.8962 35.6538V35.6667H70.8974ZM71.1256 39.4679L70.8974 39.6923V39.7115L46.6891 63.9166V63.9295L40.984 69.641H41.9872L46.6859 64.9423V64.9231L70.8942 40.718V40.7051L72.1327 39.4679H72.1263L94.8718 16.7243V15.7115L71.1186 39.4679H71.125H71.1256ZM86.368 69.641L94.8718 61.1346V60.1218L85.3577 69.641H86.3673H86.368ZM82.3327 69.641L94.8718 57.0961V56.0897L81.3231 69.641H82.332H82.3327ZM78.2974 69.641L94.8718 53.0641V52.0513L77.2859 69.641H78.2968H78.2974ZM94.4429 69.641L94.8724 69.2115V68.1987L93.4346 69.641H94.4429V69.641ZM90.4045 69.641L94.8692 65.1731V64.1667L89.3955 69.641H90.4045ZM70.8942 63.9295L65.1891 69.641H66.1981L70.8962 64.9423V64.9231L94.8705 40.9487V39.9423L70.8962 63.9166V63.9295H70.8942ZM70.8942 67.968L69.2231 69.641H70.2314L70.8942 68.9743V68.9615L94.8686 44.9872V43.9743L70.8942 67.9551V67.968ZM74.2526 69.641L94.8718 49.0192V48.0128L73.2455 69.641H74.2551H74.2526ZM91.3039 39.4679L70.8936 59.8782V59.8911L61.1455 69.641H62.1558L70.8974 60.8974V60.8846L92.316 39.4679L94.8718 36.9102V35.9039L91.3077 39.4679H91.3039ZM70.8936 47.7692V47.7757L49.0346 69.641H50.0449L70.8949 48.7885V48.7756L80.2051 39.4679L94.8718 24.8012V23.7949L79.1968 39.4679L70.8936 47.7692ZM46.6852 52.8205L60.0359 39.4679H60.0321L70.8968 28.6026V28.5897L92.3154 7.17304L94.3199 5.1667H93.3115L91.3071 7.17304L70.8968 27.5834V27.5962L59.0224 39.4679H59.0276L46.6885 51.8077V51.8205L28.8679 69.641H29.8795L46.6885 52.8269V52.8205H46.6852ZM46.6852 44.7372L51.9583 39.4679L70.8936 20.5321V20.5192L84.2449 7.17304H84.2378L86.2423 5.1667H85.2327L83.2282 7.17304H83.2327L70.8974 19.5128V19.5192L50.9513 39.4679L46.6872 43.7308V43.7436L22.4782 67.9551V67.968L20.807 69.641H21.8154L22.4782 68.9743V68.9615L46.6872 44.7564V44.7372H46.6852ZM46.6852 48.7756L55.9949 39.4679L70.8949 24.5705V24.5513L88.2782 7.17304L90.2827 5.1667H89.2737L87.2692 7.17304L70.8974 23.5449V23.5577L54.9885 39.4679L46.6891 47.7692V47.7757L24.8301 69.641H25.8404L46.691 48.7885V48.7756H46.6852ZM5.12821 5.1667V5.58972L5.54872 5.1667H5.12821ZM19.6897 7.17304L21.6942 5.1667H20.6859L18.6814 7.17304L5.12821 20.7243V21.7308L19.6891 7.17304H19.6897ZM15.6545 7.17304L17.659 5.1667H16.65L14.6455 7.17304L5.12821 16.6859V17.6987L15.6538 7.17304H15.6545ZM11.616 7.17304L13.6205 5.1667H12.6109L10.6064 7.17304H10.6115L5.12821 12.6538V13.6666L11.6218 7.17304H11.6148H11.616ZM22.4808 20.5192L35.8314 7.17304H35.825L37.8295 5.1667H36.8192L34.8154 7.17304H34.8199L22.4808 19.5128V19.5192L5.12821 36.8718V37.8846L22.4795 20.5321V20.5192H22.4808ZM19.691 39.4679L22.4808 36.6795V36.6666L46.6897 12.4552V12.4423L51.9628 7.17304L53.9673 5.1667H52.9551L50.9506 7.17304L46.6865 11.4359V11.4487L22.4776 35.6538V35.6667L18.6795 39.4679L5.12821 53.0192V54.0321L19.6891 39.4679H19.691ZM15.6558 39.4679L22.4808 32.6411V32.6282L46.6897 8.42309V8.41025L47.9276 7.17304H47.9212L49.9256 5.1667H48.9154L46.9115 7.17304H46.9173L46.6897 7.39746V7.41029L22.4808 31.6218V31.6346L14.6468 39.4679L5.12821 48.9872V49.9936L15.6538 39.4679H15.6558ZM22.4808 8.41025L23.7186 7.17304H23.7115L25.716 5.1667H24.7058L22.7013 7.17304H22.707L22.4795 7.39746V7.41029L5.12821 24.7628V25.7692L22.4795 8.42309V8.41025H22.4808ZM22.4808 12.4423L27.7539 7.17304L29.7577 5.1667H28.7468L26.7423 7.17304L22.4782 11.4359V11.4487L5.12821 28.8013V29.8077L22.4795 12.4552V12.4423H22.4808ZM22.4808 16.4807L31.7904 7.17304L33.7949 5.1667H32.7859L30.7814 7.17304L22.4821 15.468V15.4808L5.12821 32.8333V33.8398L22.4795 16.4936V16.4807H22.4808ZM7.58076 7.17304L9.58526 5.1667H8.57564L6.5718 7.17304L5.1295 8.61535V9.6218L7.58205 7.17304H7.58076ZM11.6192 39.4679L22.484 28.6026V28.5897L43.9019 7.17304L45.9058 5.1667H44.8974L42.8936 7.17304L22.484 27.5834V27.5962L10.6096 39.4679H10.6148L5.12821 44.9487V45.9615L11.6218 39.4679H11.6148H11.6192ZM22.484 60.8846L43.9019 39.4679L46.6917 36.6795V36.6666L70.9 12.4552V12.4423L76.1731 7.17304L78.1775 5.1667H77.166L75.1616 7.17304L70.8968 11.4359V11.4487L46.6885 35.6538V35.6667L42.8904 39.4679L22.4808 59.8782V59.8911L12.7327 69.641H13.743L22.4795 60.8974V60.8846H22.484ZM22.484 56.8525L39.8667 39.4679L46.6917 32.6411V32.6282L70.9 8.42309V8.41025L72.1385 7.17304H72.1321L74.1366 5.1667H73.1263L71.1218 7.17304H71.1282L70.9 7.39746V7.41029L46.6917 31.6218V31.6346L38.8577 39.4679L22.4821 55.8397V55.8526L8.70001 69.641H9.70897L22.4827 56.8654V56.8525H22.484ZM22.484 52.8205L35.8346 39.4679H35.8282L46.693 28.6026V28.5897L68.1109 7.17304L70.1154 5.1667H69.1026L67.0981 7.17304L46.6885 27.5834V27.5962L34.8141 39.4679H34.8186L22.4795 51.8077V51.8205L5.12821 69.1667V69.641H5.67052L22.4795 52.8269V52.8205H22.484ZM22.484 64.9231L46.693 40.718V40.7051L47.9308 39.4679H47.9244L70.9013 16.4936V16.4807L80.2115 7.17304L82.216 5.1667H81.207L79.2032 7.17304L70.8974 15.468V15.4808L46.9109 39.4679H46.9167L46.6891 39.6923V39.7115L22.4801 63.9166V63.9295L16.775 69.641H17.784L22.4821 64.9423V64.9231H22.484ZM22.484 40.7051L23.7218 39.4679H23.7115L46.6885 16.4936V16.4807L55.9981 7.17304L58.0026 5.1667H56.9936L54.9891 7.17304L46.6897 15.468V15.4808L22.7026 39.4679H22.7083L22.4808 39.6923V39.7115L5.12821 57.0577V58.0705L22.4795 40.718V40.7051H22.484ZM22.484 44.7372L27.7571 39.4679L46.6923 20.5321V20.5192L60.0429 7.17304H60.0321L62.0365 5.1667H61.0257L59.0212 7.17304H59.0263L46.6872 19.5128V19.5192L26.7404 39.4679L22.4763 43.7308V43.7436L5.12821 61.0962V62.1026L22.4795 44.7564V44.7372H22.484ZM22.484 48.7756L31.7936 39.4679L46.6942 24.5705V24.5513L64.0769 7.17304L66.0808 5.1667H65.0718L63.0673 7.17304L46.6917 23.5449V23.5577L30.7821 39.4679L22.4827 47.7692V47.7757L5.12821 65.1282V66.1411L22.4795 48.7885V48.7756H22.484ZM7.58397 39.4679L22.484 24.5705V24.5513L39.8667 7.17304L41.8711 5.1667H40.859L38.8545 7.17304L22.4789 23.5449V23.5577L6.56989 39.4679L5.12758 40.9102V41.9231L7.58014 39.4679H7.58397ZM70.8974 80.0641V80.077L69.718 81.2564H70.7276L70.8974 81.0833V81.0769L72.4359 79.5384V78.5256L70.8974 80.0641ZM54.0987 76.6923L49.5385 81.2564H50.55L55.1102 76.6923H54.0987ZM66.209 76.6923L61.6487 81.2564H62.6577L67.2179 76.6923H66.209ZM70.8974 77.0385L71.241 76.6923H70.2436L65.6833 81.2564H66.6943L70.8974 77.0513V77.0385V77.0385ZM62.1692 76.6923L57.609 81.2564H58.6179L63.1782 76.6923H62.1692ZM58.1352 76.6923L53.5744 81.2564H54.5821L59.1423 76.6923H58.1346H58.1352ZM50.0583 76.6923L46.6885 80.0641V80.077L45.5083 81.2564H46.5186L46.6885 81.0833V81.0769L51.0686 76.6923H50.0583ZM29.8897 76.6923L27.5641 79.0192V80.032L30.9013 76.6923H29.8897V76.6923ZM41.9993 76.6923L37.4391 81.2564H38.4481L43.009 76.6923H41.9993V76.6923ZM46.6885 77.0385L47.0314 76.6923H46.034L41.4744 81.2564H42.4852L46.6885 77.0513V77.0385V77.0385ZM37.9603 76.6923L33.3994 81.2564H34.4083L38.9686 76.6923H37.9603ZM33.9256 76.6923L29.3648 81.2564H30.3724L34.9333 76.6923H33.9256Z" fill="black"/>
</g>
</g>
<defs>
<clipPath id="clip0_343_2969">
<rect width="100" height="100" fill="white"/>
</clipPath>
</defs>
</svg>
