<svg width="193" height="100" viewBox="0 0 193 100" fill="none" xmlns="http://www.w3.org/2000/svg">
<g clip-path="url(#clip0_559_74162)">
<path fill-rule="evenodd" clip-rule="evenodd" d="M188.432 1.92308C189.287 1.92325 190.107 2.40889 190.711 3.27321C191.316 4.13752 191.655 5.30969 191.655 6.53201V93.468C191.655 94.6903 191.316 95.8625 190.711 96.7268C190.107 97.5911 189.287 98.0768 188.432 98.0769H4.56768C3.71294 98.0768 2.89327 97.5911 2.28887 96.7268C1.68448 95.8625 1.34488 94.6903 1.34476 93.468V6.53201C1.34488 5.30969 1.68448 4.13752 2.28887 3.27321C2.89327 2.40889 3.71294 1.92325 4.56768 1.92308H188.432ZM188.432 2.83235e-07H4.56768C3.96779 -0.000252391 3.37379 0.168556 2.81953 0.496733C2.26527 0.824909 1.76161 1.30598 1.33743 1.91259C0.913243 2.5192 0.576839 3.23946 0.347353 4.03208C0.117867 4.8247 -0.000176491 5.67414 1.9806e-07 6.53201V93.468C-0.000176491 94.3259 0.117867 95.1753 0.347353 95.9679C0.576839 96.7605 0.913243 97.4808 1.33743 98.0874C1.76161 98.694 2.26527 99.1751 2.81953 99.5033C3.37379 99.8315 3.96779 100 4.56768 100H188.432C189.032 100 189.626 99.8315 190.18 99.5033C190.735 99.1751 191.238 98.694 191.663 98.0874C192.087 97.4808 192.423 96.7605 192.653 95.9679C192.882 95.1753 193 94.3259 193 93.468V6.53201C193 5.67414 192.882 4.8247 192.653 4.03208C192.423 3.23946 192.087 2.5192 191.663 1.91259C191.238 1.30598 190.735 0.824909 190.18 0.496733C189.626 0.168556 189.032 -0.000252391 188.432 2.83235e-07Z" fill="black"/>
<path fill-rule="evenodd" clip-rule="evenodd" d="M94.1087 29.1417L89.8459 33.4045V33.4174L65.6408 57.6289V57.6418L61.8395 61.4366L41.4292 81.8469V81.8596L29.5574 93.7379L28.4228 94.8725H29.4356L30.5702 93.7379H30.5639L41.4292 82.8725V82.8597L62.8459 61.4366L65.6408 58.6481V58.6353L89.8459 34.4302V34.4173L94.8715 29.3917V28.3789L94.1087 29.1417ZM89.8459 21.3084L82.0125 29.1417L65.6408 45.5199V45.5328L49.7305 61.4366L41.4292 69.7379V69.7507L17.442 93.7379H17.4484L17.2177 93.9622V93.9751L16.3266 94.8725H17.3202L18.4613 93.7379H18.4549L41.4292 70.7571V70.7507L50.7369 61.4366L65.6408 46.5392V46.5263L83.019 29.1417L89.8459 22.3148V22.302L94.8715 17.2763V16.2699L89.8459 21.2956V21.3084ZM89.8459 25.3469L86.051 29.1417H86.0446L65.6408 49.552V49.5648L53.7625 61.4366H53.769L41.4292 73.7763V73.7892L21.4805 93.7379H21.4869L20.3459 94.8725H21.3587L22.4933 93.7379L41.4292 74.8019V74.7892L54.7818 61.4366H54.7753L65.6408 50.5776V50.5584L87.0575 29.1417L89.8459 26.3533V26.3404L94.8715 21.3148V20.3084L89.8459 25.3276V25.3469ZM90.0767 29.1417L89.8459 29.3725V29.3853L65.6408 53.5904V53.6033L57.801 61.4366H57.8075L41.4292 77.8148V77.8277L25.519 93.7379L24.3844 94.8725H25.3972L26.5318 93.7379L41.4292 78.834V78.8212L58.8138 61.4366L65.6408 54.6161V54.6033L89.8459 30.3918V30.3789L91.083 29.1417H91.0766L94.8715 25.3469V24.3404L90.0702 29.1417H90.0767ZM89.8459 17.2699L77.9741 29.1417L65.6408 41.4814V41.4943L45.6921 61.4366L41.4292 65.7058V65.7122L17.2177 89.9238V89.9366L13.4228 93.7379L12.2882 94.8725H13.2946L14.4292 93.7379L17.2177 90.9494V90.9366L41.4292 66.725V66.7122L46.7048 61.4366L65.6408 42.5007V42.4943L78.9869 29.1417H78.9805L89.8459 18.2763V18.2635L94.8715 13.2379V12.2314L89.8459 17.2571V17.2699ZM89.8459 13.2186V13.2315L73.9356 29.1417L65.6408 37.443V37.4494L41.6536 61.4366H41.66L41.4292 61.6673V61.6802L17.2177 85.8853V85.9046L9.38435 93.7379H9.39077L8.24972 94.8725H9.2561L10.3971 93.7379L17.2177 86.9109V86.8982L41.4292 62.6866V62.6802L42.6664 61.4366H42.66L65.6408 38.4622V38.4494L74.9485 29.1417L89.8459 14.2443V14.225L94.8715 9.20582V8.19303L89.8459 13.2186ZM89.8459 41.4943L69.8972 61.4366H69.9036L65.6408 65.7058V65.7122L41.4292 89.9238V89.9366L37.6279 93.7379L36.4934 94.8725H37.4997L38.6408 93.7379L41.4292 90.9494V90.9366L65.6408 66.725V66.7122L70.91 61.4366L89.8459 42.5007V42.4943L94.8715 37.4686V36.4558L89.8459 41.4814V41.4943ZM94.1087 61.4366L89.8459 65.7058V65.7122L65.6408 89.9238V89.9366L61.8395 93.7379L60.7048 94.8725H61.7113L62.8459 93.7379L65.6408 90.9494V90.9366L89.8459 66.725V66.7122L94.8715 61.6866V60.6738L94.1087 61.4366ZM89.8459 53.6033L82.0125 61.4366L65.6408 77.8148V77.8277L49.7305 93.7379L48.5959 94.8725H49.6023L50.7369 93.7379L65.6408 78.834V78.8212L83.019 61.4366L89.8459 54.6161V54.6033L94.8715 49.5776V48.5648L89.8459 53.5904V53.6033ZM89.8459 57.6418L86.051 61.4366H86.0446L65.6408 81.8469V81.8596L53.7625 93.7379H53.769L52.6343 94.8725H53.6471L54.7818 93.7379H54.7753L65.6408 82.8725V82.8597L87.0575 61.4366L89.8459 58.6481V58.6353L94.8715 53.6097V52.6033L89.8459 57.6289V57.6418ZM90.0767 61.4366L89.8459 61.6673V61.6802L65.6408 85.8853V85.9046L57.801 93.7379H57.8075L56.6664 94.8725H57.6792L58.8138 93.7379L65.6408 86.9109V86.8982L89.8459 62.6866V62.6802L91.083 61.4366H91.0766L94.8715 57.6482V56.6353L90.0702 61.4366H90.0767ZM89.8459 49.5648L77.9741 61.4366L65.6408 73.7763V73.7892L45.6921 93.7379L44.5574 94.8725H45.5638L46.7048 93.7379L65.6408 74.8019V74.7892L78.9869 61.4366H78.9805L89.8459 50.5776V50.5584L94.8715 45.5392V44.5263L89.8459 49.552V49.5648ZM89.8459 45.5328L73.9356 61.4366L65.6408 69.7379V69.7507L41.6536 93.7379H41.66L41.4292 93.9622V93.9751L40.5318 94.8725H41.5318L42.6664 93.7379H42.66L65.6408 70.7571V70.7507L74.9485 61.4366L89.8459 46.5392V46.5263L94.8715 41.5007V40.4943L89.8459 45.5199V45.5328ZM89.8459 37.4494L65.8587 61.4366H65.8651L65.6408 61.6673V61.6802L41.4292 85.8853V85.9046L33.5959 93.7379L32.4613 94.8725H33.4676L34.6023 93.7379L41.4292 86.9109V86.8982L65.6408 62.6866V62.6802L66.8779 61.4366H66.8715L89.8459 38.4622V38.4494L94.8715 33.4302V32.4173L89.8459 37.443V37.4494ZM89.8459 73.7892L69.8972 93.7379H69.9036L68.769 94.8725H69.7754L70.91 93.7379L89.8459 74.8019V74.7892L94.8715 69.7635V68.7507L89.8459 73.7763V73.7892ZM94.1087 93.7379L93.128 94.7251C93.6554 94.5423 94.1111 94.1965 94.4293 93.7379C94.5542 93.5466 94.6533 93.3397 94.7241 93.1225L94.1087 93.7379ZM89.8459 85.9046L82.0125 93.7379L80.878 94.8725H81.8843L83.019 93.7379L89.8459 86.9109V86.8982L94.8715 81.8725V80.8661L89.8459 85.8853V85.9046ZM89.8459 89.9366L86.051 93.7379H86.0446L84.91 94.8725H85.9228L87.0575 93.7379L89.8459 90.9494V90.9366L94.8715 85.911V84.8981L89.8459 89.9238V89.9366ZM90.0767 93.7379L89.8459 93.9622V93.9751L88.9485 94.8725H89.9484L91.083 93.7379H91.0766L94.8715 89.943V88.9302L90.0702 93.7379H90.0767ZM89.8459 81.8596L77.9741 93.7379L76.8395 94.8725H77.8523L78.9869 93.7379H78.9805L89.8459 82.8725V82.8597L94.8715 77.8341V76.8212L89.8459 81.8469V81.8596ZM89.8459 77.8277L73.9356 93.7379L72.801 94.8725H73.8138L74.9485 93.7379L89.8459 78.834V78.8212L94.8715 73.7956V72.7892L89.8459 77.8148V77.8277ZM89.8459 69.7507L65.8587 93.7379H65.8651L65.6408 93.9622V93.9751L64.7433 94.8725H65.7369L66.8779 93.7379H66.8715L89.8459 70.7571V70.7507L94.8715 65.7251V64.7122L89.8459 69.7379V69.7507ZM17.2177 14.225L26.3203 5.12891H25.3138L17.2177 13.2186V13.2315L5.12793 25.3276V26.334L17.2177 14.2443V14.225ZM17.2177 10.193L22.2882 5.12891H21.2753L17.2177 9.18657V9.19299L5.12793 21.2891V22.302L17.2177 10.2059V10.193ZM14.4292 29.1417L17.2177 26.3533V26.3404L38.4292 5.12891H37.4228L17.2177 25.3276V25.3469L13.4228 29.1417L5.12793 37.4366V38.443L14.4292 29.1417ZM10.3971 29.1417L17.2177 22.3148V22.302L34.3972 5.12891H33.3843L17.2177 21.2956V21.3084L9.38435 29.1417H9.39077L5.12793 33.4045V34.411L10.3971 29.1417ZM9.17918 5.12891L5.12793 9.18015V10.1866L10.1856 5.12891H9.17918ZM13.2113 5.12891L5.12793 13.2122V14.225L14.224 5.12891H13.2113ZM17.2177 6.15453L18.2497 5.12891H17.2369L17.2177 5.14174V5.15457L5.12793 17.2507V18.2571L17.2177 6.16736V6.15453ZM6.35873 29.1417L17.2177 18.2763V18.2635L30.3523 5.12891H29.3459L17.2177 17.2571V17.2699L5.34586 29.1417H5.35227L5.12793 29.3661V30.3789L6.36514 29.1417H6.35873ZM17.2177 46.5263L34.6023 29.1417L41.4292 22.3148V22.302L58.6023 5.12891H57.5959L41.4292 21.2956V21.3084L33.5959 29.1417L17.2177 45.5199V45.5328L5.12793 57.6225V58.6289L17.2177 46.5392V46.5263ZM17.2177 42.4943L30.5702 29.1417H30.5639L41.4292 18.2763V18.2635L54.5638 5.12891H53.5574L41.4292 17.2571V17.2699L29.5574 29.1417L17.2177 41.4814V41.4943L5.12793 53.584V54.5969L17.2177 42.5007V42.4943ZM14.4292 61.4366L17.2177 58.6481V58.6353L41.4292 34.4302V34.4173L46.7048 29.1417L65.6408 10.2059V10.193L70.7049 5.12891H69.692L65.6408 9.18657V9.19299L45.6921 29.1417L41.4292 33.4045V33.4174L17.2177 57.6289V57.6418L13.4228 61.4366L5.12793 69.7315V70.7443L14.4292 61.4366ZM10.3971 61.4366L17.2177 54.6161V54.6033L41.4292 30.3918V30.3789L42.6664 29.1417H42.66L65.6408 6.16736V6.15453L66.6664 5.12891H65.6536L65.6408 5.14174V5.15457L41.6536 29.1417H41.66L41.4292 29.3725V29.3853L17.2177 53.5904V53.6033L9.38435 61.4366H9.39077L5.12793 65.6994V66.7059L10.3971 61.4366ZM17.2177 30.3789L18.4613 29.1417H18.4549L41.4292 6.16736V6.15453L42.4548 5.12891H41.4421L41.4292 5.14174V5.15457L17.442 29.1417H17.4484L17.2177 29.3725V29.3853L5.12793 41.475V42.4815L17.2177 30.3918V30.3789ZM17.2177 34.4173L22.4933 29.1417L41.4292 10.2059V10.193L46.4998 5.12891H45.4869L41.4292 9.18657V9.19299L21.4805 29.1417H21.4869L17.2177 33.4045V33.4174L5.12793 45.5135V46.5199L17.2177 34.4302V34.4173ZM17.2177 38.4494L26.5318 29.1417L41.4292 14.2443V14.225L50.5317 5.12891H49.519L41.4292 13.2186V13.2315L25.519 29.1417L17.2177 37.443V37.4494L5.12793 49.5456V50.552L17.2177 38.4622V38.4494ZM6.35873 61.4366L17.2177 50.5776V50.5584L38.6408 29.1417L41.4292 26.3533V26.3404L62.6407 5.12891H61.6279L41.4292 25.3276V25.3469L37.6279 29.1417L17.2177 49.552V49.5648L5.34586 61.4366H5.35227L5.12793 61.6609V62.6738L6.36514 61.4366H6.35873ZM17.2177 82.8725V82.8597L38.6408 61.4366L41.4292 58.6481V58.6353L65.6408 34.4302V34.4173L70.91 29.1417L89.8459 10.2059V10.193L94.1343 5.91094C93.9635 5.73925 93.7692 5.59255 93.5574 5.47509L89.8459 9.18657V9.19299L69.8972 29.1417H69.9036L65.6408 33.4045V33.4174L41.4292 57.6289V57.6418L37.6279 61.4366L17.2177 81.8469V81.8596L5.49328 93.5904C5.51505 93.6415 5.54076 93.6908 5.5702 93.7379C5.67801 93.8904 5.80042 94.0321 5.93563 94.161L6.36514 93.7379H6.35873L17.2177 82.8725ZM17.2177 78.8212L34.6023 61.4366L41.4292 54.6161V54.6033L65.6408 30.3918V30.3789L66.8779 29.1417H66.8715L89.8459 6.16736V6.15453L90.8715 5.12891H89.8651L89.8459 5.14174V5.15457L65.8587 29.1417H65.8651L65.6408 29.3725V29.3853L41.4292 53.5904V53.6033L33.5959 61.4366L17.2177 77.8148V77.8277L5.12793 89.9174V90.9302L17.2177 78.834V78.8212ZM17.2177 74.7892L30.5702 61.4366H30.5639L41.4292 50.5776V50.5584L62.8459 29.1417L65.6408 26.3533V26.3404L86.8523 5.12891H85.8395L65.6408 25.3276V25.3469L61.8395 29.1417L41.4292 49.552V49.5648L29.5574 61.4366L17.2177 73.7763V73.7892L5.12793 85.8853V86.8918L17.2177 74.8019V74.7892ZM17.2177 62.6802L18.4613 61.4366H18.4549L41.4292 38.4622V38.4494L50.7369 29.1417L65.6408 14.2443V14.225L74.7369 5.12891H73.7305L65.6408 13.2186V13.2315L49.7305 29.1417L41.4292 37.443V37.4494L17.442 61.4366H17.4484L17.2177 61.6673V61.6802L5.12793 73.7699V74.7828L17.2177 62.6866V62.6802ZM17.2177 66.7122L22.4933 61.4366L41.4292 42.5007V42.4943L54.7818 29.1417H54.7753L65.6408 18.2763V18.2635L78.7754 5.12891H77.7626L65.6408 17.2571V17.2699L53.7625 29.1417H53.769L41.4292 41.4814V41.4943L21.4805 61.4366H21.4869L17.2177 65.7058V65.7122L5.12793 77.8084V78.8212L17.2177 66.725V66.7122ZM17.2177 70.7507L26.5318 61.4366L41.4292 46.5392V46.5263L58.8138 29.1417L65.6408 22.3148V22.302L82.8138 5.12891H81.801L65.6408 21.2956V21.3084L57.801 29.1417H57.8075L41.4292 45.5199V45.5328L25.519 61.4366L17.2177 69.7379V69.7507L5.12793 81.8405V82.8533L17.2177 70.7571V70.7507Z" fill="black"/>
<path fill-rule="evenodd" clip-rule="evenodd" d="M187.11 29.1417L182.847 33.4045V33.4174L158.642 57.6289V57.6418L154.84 61.4366L134.43 81.8469V81.8596L122.558 93.7379L121.424 94.8725H122.437L123.571 93.7379H123.565L134.43 82.8725V82.8597L155.847 61.4366L158.642 58.6481V58.6353L182.847 34.4302V34.4173L187.872 29.3917V28.3789L187.11 29.1417ZM182.847 21.3084L175.013 29.1417L158.642 45.5199V45.5328L142.731 61.4366L134.43 69.7379V69.7507L110.443 93.7379H110.449L110.219 93.9622V93.9751L109.328 94.8725H110.321L111.462 93.7379H111.456L134.43 70.7571V70.7507L143.738 61.4366L158.642 46.5392V46.5263L176.02 29.1417L182.847 22.3148V22.302L187.872 17.2763V16.2699L182.847 21.2956V21.3084ZM182.847 25.3469L179.052 29.1417H179.046L158.642 49.552V49.5648L146.764 61.4366H146.77L134.43 73.7763V73.7892L114.481 93.7379H114.488L113.347 94.8725H114.36L115.494 93.7379L134.43 74.8019V74.7892L147.783 61.4366H147.776L158.642 50.5776V50.5584L180.058 29.1417L182.847 26.3533V26.3404L187.872 21.3148V20.3084L182.847 25.3276V25.3469ZM183.078 29.1417L182.847 29.3725V29.3853L158.642 53.5904V53.6033L150.802 61.4366H150.808L134.43 77.8148V77.8277L118.52 93.7379L117.385 94.8725H118.398L119.533 93.7379L134.43 78.834V78.8212L151.815 61.4366L158.642 54.6161V54.6033L182.847 30.3918V30.3789L184.084 29.1417H184.078L187.872 25.3469V24.3404L183.071 29.1417H183.078ZM182.847 17.2699L170.975 29.1417L158.642 41.4814V41.4943L138.693 61.4366L134.43 65.7058V65.7122L110.219 89.9238V89.9366L106.424 93.7379L105.289 94.8725H106.296L107.43 93.7379L110.219 90.9494V90.9366L134.43 66.725V66.7122L139.706 61.4366L158.642 42.5007V42.4943L171.988 29.1417H171.981L182.847 18.2763V18.2635L187.872 13.2379V12.2314L182.847 17.2571V17.2699ZM182.847 13.2186V13.2315L166.937 29.1417L158.642 37.443V37.4494L134.655 61.4366H134.661L134.43 61.6673V61.6802L110.219 85.8853V85.9046L102.385 93.7379H102.392L101.251 94.8725H102.257L103.398 93.7379L110.219 86.9109V86.8982L134.43 62.6866V62.6802L135.667 61.4366H135.661L158.642 38.4622V38.4494L167.949 29.1417L182.847 14.2443V14.225L187.872 9.20582V8.19303L182.847 13.2186ZM182.847 41.4943L162.898 61.4366H162.905L158.642 65.7058V65.7122L134.43 89.9238V89.9366L130.629 93.7379L129.494 94.8725H130.501L131.642 93.7379L134.43 90.9494V90.9366L158.642 66.725V66.7122L163.911 61.4366L182.847 42.5007V42.4943L187.872 37.4686V36.4558L182.847 41.4814V41.4943ZM187.11 61.4366L182.847 65.7058V65.7122L158.642 89.9238V89.9366L154.84 93.7379L153.706 94.8725H154.712L155.847 93.7379L158.642 90.9494V90.9366L182.847 66.725V66.7122L187.872 61.6866V60.6738L187.11 61.4366ZM182.847 53.6033L175.013 61.4366L158.642 77.8148V77.8277L142.731 93.7379L141.597 94.8725H142.603L143.738 93.7379L158.642 78.834V78.8212L176.02 61.4366L182.847 54.6161V54.6033L187.872 49.5776V48.5648L182.847 53.5904V53.6033ZM182.847 57.6418L179.052 61.4366H179.046L158.642 81.8469V81.8596L146.764 93.7379H146.77L145.635 94.8725H146.648L147.783 93.7379H147.776L158.642 82.8725V82.8597L180.058 61.4366L182.847 58.6481V58.6353L187.872 53.6097V52.6033L182.847 57.6289V57.6418ZM183.078 61.4366L182.847 61.6673V61.6802L158.642 85.8853V85.9046L150.802 93.7379H150.808L149.667 94.8725H150.68L151.815 93.7379L158.642 86.9109V86.8982L182.847 62.6866V62.6802L184.084 61.4366H184.078L187.872 57.6482V56.6353L183.071 61.4366H183.078ZM182.847 49.5648L170.975 61.4366L158.642 73.7763V73.7892L138.693 93.7379L137.558 94.8725H138.565L139.706 93.7379L158.642 74.8019V74.7892L171.988 61.4366H171.981L182.847 50.5776V50.5584L187.872 45.5392V44.5263L182.847 49.552V49.5648ZM182.847 45.5328L166.937 61.4366L158.642 69.7379V69.7507L134.655 93.7379H134.661L134.43 93.9622V93.9751L133.533 94.8725H134.533L135.667 93.7379H135.661L158.642 70.7571V70.7507L167.949 61.4366L182.847 46.5392V46.5263L187.872 41.5007V40.4943L182.847 45.5199V45.5328ZM182.847 37.4494L158.86 61.4366H158.866L158.642 61.6673V61.6802L134.43 85.8853V85.9046L126.597 93.7379L125.462 94.8725H126.469L127.603 93.7379L134.43 86.9109V86.8982L158.642 62.6866V62.6802L159.879 61.4366H159.872L182.847 38.4622V38.4494L187.872 33.4302V32.4173L182.847 37.443V37.4494ZM182.847 73.7892L162.898 93.7379H162.905L161.77 94.8725H162.776L163.911 93.7379L182.847 74.8019V74.7892L187.872 69.7635V68.7507L182.847 73.7763V73.7892ZM187.11 93.7379L186.129 94.7251C186.656 94.5423 187.112 94.1965 187.43 93.7379C187.555 93.5466 187.654 93.3397 187.725 93.1225L187.11 93.7379ZM182.847 85.9046L175.013 93.7379L173.879 94.8725H174.885L176.02 93.7379L182.847 86.9109V86.8982L187.872 81.8725V80.8661L182.847 85.8853V85.9046ZM182.847 89.9366L179.052 93.7379H179.046L177.911 94.8725H178.924L180.058 93.7379L182.847 90.9494V90.9366L187.872 85.911V84.8981L182.847 89.9238V89.9366ZM183.078 93.7379L182.847 93.9622V93.9751L181.949 94.8725H182.949L184.084 93.7379H184.078L187.872 89.943V88.9302L183.071 93.7379H183.078ZM182.847 81.8596L170.975 93.7379L169.84 94.8725H170.853L171.988 93.7379H171.981L182.847 82.8725V82.8597L187.872 77.8341V76.8212L182.847 81.8469V81.8596ZM182.847 77.8277L166.937 93.7379L165.802 94.8725H166.815L167.949 93.7379L182.847 78.834V78.8212L187.872 73.7956V72.7892L182.847 77.8148V77.8277ZM182.847 69.7507L158.86 93.7379H158.866L158.642 93.9622V93.9751L157.744 94.8725H158.738L159.879 93.7379H159.872L182.847 70.7571V70.7507L187.872 65.7251V64.7122L182.847 69.7379V69.7507ZM110.219 14.225L119.321 5.12891H118.315L110.219 13.2186V13.2315L98.1289 25.3276V26.334L110.219 14.2443V14.225ZM110.219 10.193L115.289 5.12891H114.276L110.219 9.18657V9.19299L98.1289 21.2891V22.302L110.219 10.2059V10.193ZM107.43 29.1417L110.219 26.3533V26.3404L131.43 5.12891H130.424L110.219 25.3276V25.3469L106.424 29.1417L98.1289 37.4366V38.443L107.43 29.1417ZM103.398 29.1417L110.219 22.3148V22.302L127.398 5.12891H126.385L110.219 21.2956V21.3084L102.385 29.1417H102.392L98.1289 33.4045V34.411L103.398 29.1417ZM102.18 5.12891L98.1289 9.18015V10.1866L103.187 5.12891H102.18ZM106.212 5.12891L98.1289 13.2122V14.225L107.225 5.12891H106.212ZM110.219 6.15453L111.251 5.12891H110.238L110.219 5.14174V5.15457L98.1289 17.2507V18.2571L110.219 6.16736V6.15453ZM99.3597 29.1417L110.219 18.2763V18.2635L123.353 5.12891H122.347L110.219 17.2571V17.2699L98.3468 29.1417H98.3532L98.1289 29.3661V30.3789L99.3661 29.1417H99.3597ZM110.219 46.5263L127.603 29.1417L134.43 22.3148V22.302L151.603 5.12891H150.597L134.43 21.2956V21.3084L126.597 29.1417L110.219 45.5199V45.5328L98.1289 57.6225V58.6289L110.219 46.5392V46.5263ZM110.219 42.4943L123.571 29.1417H123.565L134.43 18.2763V18.2635L147.565 5.12891H146.558L134.43 17.2571V17.2699L122.558 29.1417L110.219 41.4814V41.4943L98.1289 53.584V54.5969L110.219 42.5007V42.4943ZM107.43 61.4366L110.219 58.6481V58.6353L134.43 34.4302V34.4173L139.706 29.1417L158.642 10.2059V10.193L163.706 5.12891H162.693L158.642 9.18657V9.19299L138.693 29.1417L134.43 33.4045V33.4174L110.219 57.6289V57.6418L106.424 61.4366L98.1289 69.7315V70.7443L107.43 61.4366ZM103.398 61.4366L110.219 54.6161V54.6033L134.43 30.3918V30.3789L135.667 29.1417H135.661L158.642 6.16736V6.15453L159.667 5.12891H158.655L158.642 5.14174V5.15457L134.655 29.1417H134.661L134.43 29.3725V29.3853L110.219 53.5904V53.6033L102.385 61.4366H102.392L98.1289 65.6994V66.7059L103.398 61.4366ZM110.219 30.3789L111.462 29.1417H111.456L134.43 6.16736V6.15453L135.456 5.12891H134.443L134.43 5.14174V5.15457L110.443 29.1417H110.449L110.219 29.3725V29.3853L98.1289 41.475V42.4815L110.219 30.3918V30.3789ZM110.219 34.4173L115.494 29.1417L134.43 10.2059V10.193L139.501 5.12891H138.488L134.43 9.18657V9.19299L114.481 29.1417H114.488L110.219 33.4045V33.4174L98.1289 45.5135V46.5199L110.219 34.4302V34.4173ZM110.219 38.4494L119.533 29.1417L134.43 14.2443V14.225L143.533 5.12891H142.52L134.43 13.2186V13.2315L118.52 29.1417L110.219 37.443V37.4494L98.1289 49.5456V50.552L110.219 38.4622V38.4494ZM99.3597 61.4366L110.219 50.5776V50.5584L131.642 29.1417L134.43 26.3533V26.3404L155.642 5.12891H154.629L134.43 25.3276V25.3469L130.629 29.1417L110.219 49.552V49.5648L98.3468 61.4366H98.3532L98.1289 61.6609V62.6738L99.3661 61.4366H99.3597ZM110.219 82.8725V82.8597L131.642 61.4366L134.43 58.6481V58.6353L158.642 34.4302V34.4173L163.911 29.1417L182.847 10.2059V10.193L187.135 5.91094C186.964 5.73925 186.77 5.59255 186.558 5.47509L182.847 9.18657V9.19299L162.898 29.1417H162.905L158.642 33.4045V33.4174L134.43 57.6289V57.6418L130.629 61.4366L110.219 81.8469V81.8596L98.4943 93.5904C98.516 93.6415 98.5417 93.6908 98.5712 93.7379C98.679 93.8904 98.8014 94.0321 98.9366 94.161L99.3661 93.7379H99.3597L110.219 82.8725ZM110.219 78.8212L127.603 61.4366L134.43 54.6161V54.6033L158.642 30.3918V30.3789L159.879 29.1417H159.872L182.847 6.16736V6.15453L183.873 5.12891H182.866L182.847 5.14174V5.15457L158.86 29.1417H158.866L158.642 29.3725V29.3853L134.43 53.5904V53.6033L126.597 61.4366L110.219 77.8148V77.8277L98.1289 89.9174V90.9302L110.219 78.834V78.8212ZM110.219 74.7892L123.571 61.4366H123.565L134.43 50.5776V50.5584L155.847 29.1417L158.642 26.3533V26.3404L179.853 5.12891H178.84L158.642 25.3276V25.3469L154.84 29.1417L134.43 49.552V49.5648L122.558 61.4366L110.219 73.7763V73.7892L98.1289 85.8853V86.8918L110.219 74.8019V74.7892ZM110.219 62.6802L111.462 61.4366H111.456L134.43 38.4622V38.4494L143.738 29.1417L158.642 14.2443V14.225L167.738 5.12891H166.731L158.642 13.2186V13.2315L142.731 29.1417L134.43 37.443V37.4494L110.443 61.4366H110.449L110.219 61.6673V61.6802L98.1289 73.7699V74.7828L110.219 62.6866V62.6802ZM110.219 66.7122L115.494 61.4366L134.43 42.5007V42.4943L147.783 29.1417H147.776L158.642 18.2763V18.2635L171.776 5.12891H170.764L158.642 17.2571V17.2699L146.764 29.1417H146.77L134.43 41.4814V41.4943L114.481 61.4366H114.488L110.219 65.7058V65.7122L98.1289 77.8084V78.8212L110.219 66.725V66.7122ZM110.219 70.7507L119.533 61.4366L134.43 46.5392V46.5263L151.815 29.1417L158.642 22.3148V22.302L175.815 5.12891H174.802L158.642 21.2956V21.3084L150.802 29.1417H150.808L134.43 45.5199V45.5328L118.52 61.4366L110.219 69.7379V69.7507L98.1289 81.8405V82.8533L110.219 70.7571V70.7507Z" fill="black"/>
</g>
<defs>
<clipPath id="clip0_559_74162">
<rect width="193" height="100" fill="white"/>
</clipPath>
</defs>
</svg>
