<svg width="24" height="24" viewBox="0 0 24 24" fill="none" xmlns="http://www.w3.org/2000/svg">
  <g clip-path="url(#clip0_1059_69576)">
    <path
      d="M11.9998 19C13.4416 19 14.7761 18.5662 15.8873 17.8224C17.3025 16.8751 18.3504 15.4284 18.7819 13.7415L20.5672 14.7646C19.9394 16.7117 18.6663 18.369 16.9998 19.4845C15.5697 20.4417 13.8499 21 11.9998 21C8.37233 21 5.2461 18.854 3.82148 15.7622L5.58583 14.8082C6.66787 17.2761 9.13251 19 11.9998 19Z" />
    <path
      d="M11.9998 5C10.8786 5 9.82444 5.2621 8.88986 5.72655C7.08163 6.62516 5.71867 8.2821 5.21389 10.2733L3.42676 9.25288C4.1722 6.92465 5.83978 5.00895 7.99979 3.93552C9.20475 3.33671 10.563 3 11.9998 3C15.6432 3 18.7809 5.16491 20.1968 8.27851L18.3841 9.12506C17.2871 6.69289 14.8411 5 11.9998 5Z" />
    <path d="M20.9968 12.0195L14.9968 8.55543L20.9968 5.09133L20.9968 12.0195Z" />
    <path d="M2.99975 12.0059L8.99975 15.47L2.99975 18.9341L2.99975 12.0059Z" />
  </g>

</svg>