<svg width="26" height="26" viewBox="0 0 26 26" fill="none" xmlns="http://www.w3.org/2000/svg">
  <path fill-rule="evenodd" clip-rule="evenodd"
    d="M13.0012 0.200012C9.52485 0.200012 9.08858 0.215212 7.72323 0.277346C6.36055 0.339747 5.43041 0.555483 4.61653 0.872019C3.77465 1.19896 3.06051 1.63629 2.34904 2.34803C1.63703 3.05951 1.19969 3.77365 0.871691 4.61526C0.554355 5.4294 0.338353 6.35981 0.277019 7.72196C0.215951 9.08731 0.199951 9.52384 0.199951 13.0001C0.199951 16.4764 0.215418 16.9114 0.277285 18.2767C0.339953 19.6394 0.555688 20.5696 0.871958 21.3834C1.19916 22.2253 1.6365 22.9394 2.34824 23.6509C3.05945 24.3629 3.77359 24.8013 4.61493 25.1283C5.42934 25.4448 6.35975 25.6605 7.72216 25.7229C9.08751 25.7851 9.52351 25.8003 12.9996 25.8003C16.4761 25.8003 16.9111 25.7851 18.2764 25.7229C19.6391 25.6605 20.5703 25.4448 21.3847 25.1283C22.2263 24.8013 22.9394 24.3629 23.6506 23.6509C24.3626 22.9394 24.7999 22.2253 25.1279 21.3837C25.4426 20.5696 25.6586 19.6391 25.7226 18.277C25.784 16.9117 25.8 16.4764 25.8 13.0001C25.8 9.52384 25.784 9.08757 25.7226 7.72222C25.6586 6.35954 25.4426 5.4294 25.1279 4.61552C24.7999 3.77365 24.3626 3.05951 23.6506 2.34803C22.9386 1.63603 22.2266 1.19869 21.3839 0.872019C20.5679 0.555483 19.6372 0.339747 18.2745 0.277346C16.9092 0.215212 16.4745 0.200012 12.9972 0.200012H13.0012ZM12.5742 2.50658H12.5745L13.0012 2.5067C16.4188 2.5067 16.8239 2.51897 18.1735 2.5803C19.4215 2.63737 20.0988 2.84591 20.55 3.02111C21.1474 3.25311 21.5732 3.53045 22.021 3.97845C22.469 4.42646 22.7463 4.85313 22.9789 5.45047C23.1541 5.90114 23.3629 6.57848 23.4197 7.82649C23.481 9.17584 23.4943 9.58118 23.4943 12.9972C23.4943 16.4132 23.481 16.8186 23.4197 18.1679C23.3626 19.4159 23.1541 20.0933 22.9789 20.544C22.7469 21.1413 22.469 21.5666 22.021 22.0144C21.573 22.4624 21.1476 22.7397 20.55 22.9717C20.0994 23.1477 19.4215 23.3557 18.1735 23.4128C16.8241 23.4741 16.4188 23.4875 13.0012 23.4875C9.58325 23.4875 9.17818 23.4741 7.82883 23.4128C6.58082 23.3552 5.90348 23.1467 5.45201 22.9715C4.85467 22.7394 4.428 22.4621 3.97999 22.0141C3.53199 21.5661 3.25465 21.1405 3.02211 20.5429C2.84691 20.0922 2.63811 19.4149 2.58131 18.1669C2.51998 16.8175 2.50771 16.4122 2.50771 12.994C2.50771 9.57584 2.51998 9.17264 2.58131 7.82329C2.63838 6.57528 2.84691 5.89794 3.02211 5.44673C3.25412 4.84939 3.53199 4.42272 3.97999 3.97472C4.428 3.52671 4.85467 3.24938 5.45201 3.01684C5.90321 2.84084 6.58082 2.63284 7.82883 2.5755C9.00964 2.52217 9.46725 2.50617 11.8529 2.5035V2.5067C12.0758 2.50635 12.3155 2.50646 12.5742 2.50658ZM18.2977 6.16754C18.2977 5.31927 18.9857 4.63206 19.8338 4.63206V4.63153C20.6818 4.63153 21.3698 5.31953 21.3698 6.16754C21.3698 7.01555 20.6818 7.70356 19.8338 7.70356C18.9857 7.70356 18.2977 7.01555 18.2977 6.16754ZM13.0009 6.42674C9.37083 6.42688 6.42775 9.37006 6.42775 13.0001C6.42775 16.6303 9.37098 19.5722 13.0012 19.5722C16.6313 19.5722 19.5735 16.6303 19.5735 13.0001C19.5735 9.36997 16.6311 6.42674 13.0009 6.42674ZM17.2679 13.0001C17.2679 10.6436 15.3574 8.73343 13.0012 8.73343C10.6446 8.73343 8.73444 10.6436 8.73444 13.0001C8.73444 15.3564 10.6446 17.2669 13.0012 17.2669C15.3574 17.2669 17.2679 15.3564 17.2679 13.0001Z" />
</svg>