<svg width="18" height="18" viewBox="0 0 18 18" fill="none" xmlns="http://www.w3.org/2000/svg">
<path d="M17.0296 12.5409L14.9378 10.4528C14.5247 10.025 14.0255 9.80059 13.4964 9.80059C12.9708 9.80059 12.4681 10.025 12.0427 10.4475L10.9528 11.5346C10.8983 11.5065 10.8456 11.4802 10.7964 11.4557C10.6681 11.3925 10.545 11.3294 10.4396 11.2628C9.33389 10.5633 8.32667 9.64631 7.35811 8.46286C6.93096 7.92462 6.63565 7.47228 6.4212 7.02696C6.69717 6.76923 6.95733 6.50624 7.20342 6.25377C7.30713 6.14858 7.41612 6.03988 7.52159 5.93468C7.95753 5.49988 8.1878 4.99319 8.1878 4.47072C8.1878 3.94475 7.95753 3.43806 7.52159 3.00676L6.48272 1.97059C6.36495 1.85312 6.25245 1.73916 6.13643 1.61819L6.13116 1.61293C5.9044 1.37975 5.66006 1.13254 5.41573 0.906372C5.00089 0.501372 4.50518 0.287476 3.98135 0.287476C3.46104 0.287476 2.96006 0.503125 2.53292 0.909878L1.22335 2.21605C0.694244 2.73851 0.395416 3.3767 0.333893 4.11306C0.26358 4.98968 0.423541 5.9154 0.836627 7.0217C1.45889 8.70832 2.39581 10.2687 3.78448 11.9325C5.46671 13.9383 7.49874 15.5249 9.82081 16.6488L9.82256 16.6505C10.7208 17.0748 11.9232 17.5727 13.2538 17.6586H13.2696C13.347 17.6621 13.4261 17.6657 13.5105 17.6657C14.4649 17.6657 15.2349 17.336 15.8624 16.6575C15.873 16.6453 15.887 16.6312 15.9011 16.612C16.0769 16.4033 16.2773 16.207 16.4917 16.0018L16.5409 15.9545C16.7413 15.7634 16.8995 15.6056 17.0401 15.4601C17.4603 15.0235 17.6817 14.5168 17.68 13.9926C17.68 13.4666 17.455 12.9652 17.0296 12.5409V12.5409ZM1.78409 4.23579C1.81924 3.8378 1.96866 3.52046 2.25167 3.23819L3.54717 1.94605C3.68956 1.80929 3.83897 1.73566 3.97784 1.73566C4.14659 1.73566 4.296 1.85137 4.39092 1.9478L4.40147 1.95832C4.59835 2.14066 4.78819 2.33351 4.98858 2.53689L5.07999 2.62981C5.13975 2.69118 5.20128 2.75254 5.2628 2.81566C5.32256 2.87527 5.38233 2.93663 5.4421 2.99799L6.48448 4.03767C6.59346 4.14637 6.72354 4.31118 6.72354 4.47598C6.72354 4.64079 6.59346 4.80559 6.48448 4.91429C6.42999 4.96864 6.37549 5.02299 6.321 5.0791C6.26827 5.13345 6.21378 5.1878 6.15928 5.24215L6.08546 5.31579C5.7919 5.61209 5.51241 5.8926 5.21182 6.16085L5.18194 6.19066C4.72667 6.64475 4.88311 7.11462 4.93409 7.2689C4.9376 7.28118 4.94112 7.28994 4.94463 7.30046L4.95167 7.31799C5.23643 7.99825 5.62667 8.63293 6.21729 9.37455L6.21905 9.37631C7.28253 10.6842 8.40401 11.7029 9.6503 12.4936C9.78741 12.583 9.92628 12.6531 10.0616 12.7197C10.0862 12.732 10.1126 12.7443 10.1372 12.7583L10.139 12.7601C10.2673 12.8232 10.3903 12.8863 10.4958 12.9529L10.5274 12.9705C10.538 12.9757 10.5485 12.9827 10.5591 12.988C10.7138 13.0669 10.8737 13.1072 11.0337 13.1072C11.3044 13.1072 11.5505 12.9985 11.7649 12.7829L13.0692 11.482C13.1712 11.3803 13.3259 11.261 13.4946 11.261C13.6669 11.261 13.8163 11.3943 13.8919 11.4749L13.8954 11.4784L16.0013 13.5753C16.3036 13.8769 16.2983 14.1434 15.9872 14.466L15.9837 14.4695C15.836 14.6273 15.6796 14.7781 15.5319 14.9201L15.4898 14.9604C15.2542 15.1883 15.0116 15.4233 14.7849 15.6933C14.4403 16.0614 14.0483 16.2245 13.514 16.2245C13.4648 16.2245 13.4085 16.221 13.3523 16.2175C12.2606 16.1473 11.2323 15.7178 10.4571 15.3496C8.32315 14.3187 6.4546 12.86 4.90596 11.0121C3.62803 9.47799 2.77022 8.05261 2.20245 6.52553C1.86671 5.62436 1.73135 4.89501 1.78409 4.23579V4.23579Z" fill="#989CA4"/>
</svg>
