<svg width="24" height="24" viewBox="0 0 24 24" fill="none" xmlns="http://www.w3.org/2000/svg">
  <path fill-rule="evenodd" clip-rule="evenodd"
    d="M5 5.82843V18.1716L5.82843 19H18.1716L19 18.1716V5.82843L18.1716 5H5.82843L5 5.82843ZM19 3H5L3 5V19L5 21H19L21 19V5L19 3Z"
    fill="currentColor" />
  <path fill-rule="evenodd" clip-rule="evenodd"
    d="M3 4C3.55228 4 4 3.55228 4 3C4 2.44772 3.55228 2 3 2C2.44772 2 2 2.44772 2 3C2 3.55228 2.44772 4 3 4ZM3 6C4.65685 6 6 4.65685 6 3C6 1.34315 4.65685 0 3 0C1.34315 0 0 1.34315 0 3C0 4.65685 1.34315 6 3 6Z"
    fill="currentColor" />
  <path fill-rule="evenodd" clip-rule="evenodd"
    d="M21 4C21.5523 4 22 3.55228 22 3C22 2.44772 21.5523 2 21 2C20.4477 2 20 2.44772 20 3C20 3.55228 20.4477 4 21 4ZM21 6C22.6569 6 24 4.65685 24 3C24 1.34315 22.6569 0 21 0C19.3431 0 18 1.34315 18 3C18 4.65685 19.3431 6 21 6Z"
    fill="currentColor" />
  <path fill-rule="evenodd" clip-rule="evenodd"
    d="M3 22C3.55228 22 4 21.5523 4 21C4 20.4477 3.55228 20 3 20C2.44772 20 2 20.4477 2 21C2 21.5523 2.44772 22 3 22ZM3 24C4.65685 24 6 22.6569 6 21C6 19.3431 4.65685 18 3 18C1.34315 18 0 19.3431 0 21C0 22.6569 1.34315 24 3 24Z"
    fill="currentColor" />
  <path fill-rule="evenodd" clip-rule="evenodd"
    d="M21 22C21.5523 22 22 21.5523 22 21C22 20.4477 21.5523 20 21 20C20.4477 20 20 20.4477 20 21C20 21.5523 20.4477 22 21 22ZM21 24C22.6569 24 24 22.6569 24 21C24 19.3431 22.6569 18 21 18C19.3431 18 18 19.3431 18 21C18 22.6569 19.3431 24 21 24Z"
    fill="currentColor" />
</svg>