<svg width="22" height="20" viewBox="0 0 22 20" fill="none" xmlns="http://www.w3.org/2000/svg">
  <path
    d="M10.1105 0.731352C10.4825 0.00731362 11.5175 0.00731278 11.8895 0.731351L14.3804 5.57993C14.5256 5.86256 14.7965 6.05936 15.1102 6.11012L20.4912 6.98087C21.2947 7.11089 21.6146 8.09525 21.0409 8.67276L17.1994 12.5401C16.9755 12.7655 16.872 13.084 16.9207 13.398L17.7554 18.7847C17.88 19.5891 17.0427 20.1975 16.3162 19.8303L11.451 17.3719C11.1674 17.2286 10.8326 17.2286 10.549 17.3719L5.68385 19.8303C4.95733 20.1975 4.11999 19.5891 4.24463 18.7847L5.07933 13.398C5.12799 13.084 5.02452 12.7655 4.8006 12.5401L0.959071 8.67276C0.385416 8.09525 0.705252 7.11089 1.5088 6.98087L6.88982 6.11012C7.20349 6.05936 7.47436 5.86256 7.61956 5.57993L10.1105 0.731352Z" />
</svg>