<svg width="24" height="24" viewBox="0 0 24 24" fill="none" xmlns="http://www.w3.org/2000/svg">

  <path fill-rule="evenodd" clip-rule="evenodd"
    d="M11.9973 24C9.62402 23.9995 7.30419 23.2952 5.33117 21.9764C3.35815 20.6575 1.8206 18.7833 0.91275 16.5906C0.0049007 14.3979 -0.232422 11.9853 0.230865 9.65777C0.694151 7.33024 1.83718 5.19235 3.51547 3.51441C5.19375 1.83647 7.33183 0.693832 9.6595 0.230979C11.9872 -0.231873 14.3998 0.00585339 16.5924 0.914081C18.785 1.82231 20.659 3.36025 21.9775 5.33346C23.296 7.30668 23.9999 9.62655 24 11.9997C23.9972 15.1819 22.7317 18.233 20.4813 20.4829C18.2309 22.7329 15.1795 23.9978 11.9973 24V24ZM11.9973 2.26421C10.0715 2.264 8.18896 2.83485 6.58768 3.90455C4.9864 4.97425 3.73833 6.49479 3.00126 8.27383C2.26419 10.0529 2.07126 12.0105 2.44686 13.8992C2.82246 15.7879 3.74967 17.5228 5.11133 18.8845C6.47298 20.2462 8.20794 21.1736 10.0967 21.5492C11.9854 21.9249 13.9431 21.7321 15.7222 20.9952C17.5013 20.2582 19.022 19.0102 20.0918 17.4091C21.1616 15.8079 21.7326 13.9254 21.7325 11.9997C21.7298 9.41865 20.7032 6.94407 18.8781 5.11892C17.053 3.29376 14.5784 2.2671 11.9973 2.26421V2.26421ZM10.5745 17.8036L8.97748 16.2028L13.18 11.9997L8.97748 7.79723L10.5745 6.19635L16.3797 11.9997L10.5745 17.8036Z" />


</svg>