<svg width="24" height="24" viewBox="0 0 24 24" fill="none" xmlns="http://www.w3.org/2000/svg">

  <path fill-rule="evenodd" clip-rule="evenodd"
    d="M0 11.9973C0.000538995 9.62402 0.70477 7.30419 2.02362 5.33117C3.34247 3.35815 5.21671 1.8206 7.40939 0.91275C9.60207 0.00490057 12.0147 -0.232422 14.3422 0.230864C16.6698 0.694151 18.8076 1.83718 20.4856 3.51547C22.1635 5.19375 23.3062 7.33183 23.769 9.6595C24.2319 11.9872 23.9941 14.3998 23.0859 16.5924C22.1777 18.785 20.6398 20.659 18.6665 21.9775C16.6933 23.296 14.3735 23.9999 12.0003 24C8.81806 23.9972 5.76703 22.7317 3.51708 20.4813C1.26712 18.2309 0.00216506 15.1795 0 11.9973ZM21.7358 11.9973C21.736 10.0715 21.1652 8.18896 20.0954 6.58768C19.0257 4.9864 17.5052 3.73833 15.7262 3.00126C13.9471 2.26419 11.9895 2.07126 10.1008 2.44686C8.21211 2.82246 6.47719 3.74967 5.11549 5.11133C3.75379 6.47298 2.82645 8.20794 2.45075 10.0967C2.07506 11.9854 2.26789 13.9431 3.00484 15.7222C3.74179 17.5013 4.98977 19.022 6.59095 20.0918C8.19213 21.1616 10.0746 21.7326 12.0003 21.7325C14.5813 21.7298 17.0559 20.7032 18.8811 18.8781C20.7062 17.053 21.7329 14.5784 21.7358 11.9973ZM6.19635 10.5745L7.79723 8.97748L12.0003 13.18L16.2028 8.97748L17.8037 10.5745L12.0003 16.3797L6.19635 10.5745Z" />

</svg>