<svg width="24" height="24" viewBox="0 0 24 24" fill="none" xmlns="http://www.w3.org/2000/svg">
  <path fill-rule="evenodd" clip-rule="evenodd"
    d="M5 19H18C18.5523 19 19 18.5523 19 18V8.24264C19 7.97743 18.8946 7.72307 18.7071 7.53553L15.4645 4.29289L16.8787 2.87868L20.1213 6.12132C20.6839 6.68393 21 7.44699 21 8.24264V18C21 19.6569 19.6569 21 18 21H5C3.34315 21 2 19.6569 2 18V5C2 3.34315 3.34315 2 5 2H8H13H14.7574C15.553 2 16.3161 2.31607 16.8787 2.87868L15.4645 4.29289C15.3353 4.16369 15.1743 4.07349 15 4.02988V6C15 7.10457 14.1046 8 13 8H8C6.89543 8 6 7.10457 6 6V4L5 4C4.44772 4 4 4.44772 4 5V18C4 18.5523 4.44772 19 5 19ZM8 4H13V6H8V4ZM10.5 15C11.3284 15 12 14.3284 12 13.5C12 12.6716 11.3284 12 10.5 12C9.67157 12 9 12.6716 9 13.5C9 14.3284 9.67157 15 10.5 15ZM10.5 17C12.433 17 14 15.433 14 13.5C14 11.567 12.433 10 10.5 10C8.567 10 7 11.567 7 13.5C7 15.433 8.567 17 10.5 17Z" />
</svg>