<?xml version="1.0" encoding="UTF-8"?><!DOCTYPE svg PUBLIC "-//W3C//DTD SVG 1.1//EN" "http://www.w3.org/Graphics/SVG/1.1/DTD/svg11.dtd"><svg xmlns="http://www.w3.org/2000/svg" xmlns:xlink="http://www.w3.org/1999/xlink"><defs>

  </defs><symbol id="airplane" viewBox="0 0 24 24">

  <path d="M14.8692 6.30485L20.1725 1.00155H23.001V3.82998L17.6977 9.13328L22.6474 16.9115L20.1725 19.3863L13.8086 13.0224L8.85883 17.9721L9.56593 20.0934L7.44461 22.2148L1.78776 16.5579L3.90908 14.4366L6.0304 15.1437L10.9801 10.1939L4.61619 3.82998L7.09106 1.35511L14.8692 6.30485Z" stroke="currentColor" fill="none" stroke-width="2"/>
  
</symbol><symbol id="arrow-right" viewBox="0 0 18 18">
  <path fill-rule="evenodd" clip-rule="evenodd" d="M7.59706 15L6 13.3991L10.2026 9.19608L6 4.99358L7.59706 3.3927L13.4023 9.19608L7.59706 15Z"/>
</symbol><symbol id="arrow-thin-left" viewBox="0 0 12 20">
  <path fill-rule="evenodd" clip-rule="evenodd" d="M3.78611 9.99926L11.3936 17.6063L9.97938 19.0205L0.957645 9.9993L9.97866 0.978279L11.3929 2.39249L3.78611 9.99926Z"/>
</symbol><symbol id="arrow-thin-right" viewBox="0 0 12 20">
  <path fill-rule="evenodd" clip-rule="evenodd" d="M8.21389 10.0007L0.606445 2.39375L2.02062 0.979492L11.0424 10.0007L2.02134 19.0217L0.607124 17.6075L8.21389 10.0007Z"/>
</symbol><symbol id="checked" viewBox="0 0 84 61">
  <path fill-rule="evenodd" clip-rule="evenodd" d="M29.4804 48.0979L7.18085 25.8157L0.819374 32.1822L29.4828 60.8233L83.6298 6.6763L77.2659 0.31234L29.4804 48.0979Z"/>
</symbol><symbol id="circle-arrow-down" viewBox="0 0 24 24">

  <path fill-rule="evenodd" clip-rule="evenodd" d="M0 11.9973C0.000538995 9.62402 0.70477 7.30419 2.02362 5.33117C3.34247 3.35815 5.21671 1.8206 7.40939 0.91275C9.60207 0.00490057 12.0147 -0.232422 14.3422 0.230864C16.6698 0.694151 18.8076 1.83718 20.4856 3.51547C22.1635 5.19375 23.3062 7.33183 23.769 9.6595C24.2319 11.9872 23.9941 14.3998 23.0859 16.5924C22.1777 18.785 20.6398 20.659 18.6665 21.9775C16.6933 23.296 14.3735 23.9999 12.0003 24C8.81806 23.9972 5.76703 22.7317 3.51708 20.4813C1.26712 18.2309 0.00216506 15.1795 0 11.9973ZM21.7358 11.9973C21.736 10.0715 21.1652 8.18896 20.0954 6.58768C19.0257 4.9864 17.5052 3.73833 15.7262 3.00126C13.9471 2.26419 11.9895 2.07126 10.1008 2.44686C8.21211 2.82246 6.47719 3.74967 5.11549 5.11133C3.75379 6.47298 2.82645 8.20794 2.45075 10.0967C2.07506 11.9854 2.26789 13.9431 3.00484 15.7222C3.74179 17.5013 4.98977 19.022 6.59095 20.0918C8.19213 21.1616 10.0746 21.7326 12.0003 21.7325C14.5813 21.7298 17.0559 20.7032 18.8811 18.8781C20.7062 17.053 21.7329 14.5784 21.7358 11.9973ZM6.19635 10.5745L7.79723 8.97748L12.0003 13.18L16.2028 8.97748L17.8037 10.5745L12.0003 16.3797L6.19635 10.5745Z"/>

</symbol><symbol id="circle-arrow-right" viewBox="0 0 24 24">

  <path fill-rule="evenodd" clip-rule="evenodd" d="M11.9973 24C9.62402 23.9995 7.30419 23.2952 5.33117 21.9764C3.35815 20.6575 1.8206 18.7833 0.91275 16.5906C0.0049007 14.3979 -0.232422 11.9853 0.230865 9.65777C0.694151 7.33024 1.83718 5.19235 3.51547 3.51441C5.19375 1.83647 7.33183 0.693832 9.6595 0.230979C11.9872 -0.231873 14.3998 0.00585339 16.5924 0.914081C18.785 1.82231 20.659 3.36025 21.9775 5.33346C23.296 7.30668 23.9999 9.62655 24 11.9997C23.9972 15.1819 22.7317 18.233 20.4813 20.4829C18.2309 22.7329 15.1795 23.9978 11.9973 24V24ZM11.9973 2.26421C10.0715 2.264 8.18896 2.83485 6.58768 3.90455C4.9864 4.97425 3.73833 6.49479 3.00126 8.27383C2.26419 10.0529 2.07126 12.0105 2.44686 13.8992C2.82246 15.7879 3.74967 17.5228 5.11133 18.8845C6.47298 20.2462 8.20794 21.1736 10.0967 21.5492C11.9854 21.9249 13.9431 21.7321 15.7222 20.9952C17.5013 20.2582 19.022 19.0102 20.0918 17.4091C21.1616 15.8079 21.7326 13.9254 21.7325 11.9997C21.7298 9.41865 20.7032 6.94407 18.8781 5.11892C17.053 3.29376 14.5784 2.2671 11.9973 2.26421V2.26421ZM10.5745 17.8036L8.97748 16.2028L13.18 11.9997L8.97748 7.79723L10.5745 6.19635L16.3797 11.9997L10.5745 17.8036Z"/>


</symbol><symbol id="close" viewBox="0 0 24 24">
<path fill-rule="evenodd" clip-rule="evenodd" d="M7.75684 5.63672L5.63552 7.75804L9.87868 12.0012L5.63634 16.2435L7.75766 18.3649L12 14.1225L16.2421 18.3646L18.3634 16.2433L14.1213 12.0012L18.3643 7.75827L16.2429 5.63695L12 9.87988L7.75684 5.63672Z" fill="white"/>
</symbol><symbol id="comment" viewBox="0 0 24 24">
  <path d="M7 9H17V7H7V9Z"/>
  <path d="M17 13H7V11H17V13Z"/>
  <path fill-rule="evenodd" clip-rule="evenodd" d="M22 18V2H2V18H8V22H10C12.2091 22 14 20.2091 14 18H22ZM12 16V18C12 19.1046 11.1046 20 10 20V16H4V4H20V16H12Z"/>
</symbol><symbol id="disorient" viewBox="0 0 24 24">
  <g clip-path="url(#clip0_1059_69576)">
    <path d="M11.9998 19C13.4416 19 14.7761 18.5662 15.8873 17.8224C17.3025 16.8751 18.3504 15.4284 18.7819 13.7415L20.5672 14.7646C19.9394 16.7117 18.6663 18.369 16.9998 19.4845C15.5697 20.4417 13.8499 21 11.9998 21C8.37233 21 5.2461 18.854 3.82148 15.7622L5.58583 14.8082C6.66787 17.2761 9.13251 19 11.9998 19Z"/>
    <path d="M11.9998 5C10.8786 5 9.82444 5.2621 8.88986 5.72655C7.08163 6.62516 5.71867 8.2821 5.21389 10.2733L3.42676 9.25288C4.1722 6.92465 5.83978 5.00895 7.99979 3.93552C9.20475 3.33671 10.563 3 11.9998 3C15.6432 3 18.7809 5.16491 20.1968 8.27851L18.3841 9.12506C17.2871 6.69289 14.8411 5 11.9998 5Z"/>
    <path d="M20.9968 12.0195L14.9968 8.55543L20.9968 5.09133L20.9968 12.0195Z"/>
    <path d="M2.99975 12.0059L8.99975 15.47L2.99975 18.9341L2.99975 12.0059Z"/>
  </g>

</symbol><symbol id="error" viewBox="0 0 67 67">
<path d="M0.516504 59.9149L59.9135 0.517973L66.2774 6.88193L36.5789 36.5804L6.88046 66.2789L0.516504 59.9149Z" fill="white"/>
<path d="M6.88047 0.517973L66.2774 59.9149L59.9135 66.2789L0.516504 6.88193L6.88047 0.517973Z" fill="white"/>
</symbol><symbol id="facebook" viewBox="0 0 21 39">
  <path d="M19.3423 21.9375L20.4062 15H13.75V10.5C13.75 8.6016 14.6782 6.75 17.6595 6.75H20.6875V0.84375C20.6875 0.84375 17.9406 0.375 15.3156 0.375C9.83135 0.375 6.25005 3.6984 6.25005 9.7125V15H0.15625V21.9375H6.25005V38.7094C7.47345 38.9016 8.72505 39 10 39C11.275 39 12.5266 38.9016 13.75 38.7094V21.9375H19.3423Z"/>
</symbol><symbol id="instagram" viewBox="0 0 26 26">
  <path fill-rule="evenodd" clip-rule="evenodd" d="M13.0012 0.200012C9.52485 0.200012 9.08858 0.215212 7.72323 0.277346C6.36055 0.339747 5.43041 0.555483 4.61653 0.872019C3.77465 1.19896 3.06051 1.63629 2.34904 2.34803C1.63703 3.05951 1.19969 3.77365 0.871691 4.61526C0.554355 5.4294 0.338353 6.35981 0.277019 7.72196C0.215951 9.08731 0.199951 9.52384 0.199951 13.0001C0.199951 16.4764 0.215418 16.9114 0.277285 18.2767C0.339953 19.6394 0.555688 20.5696 0.871958 21.3834C1.19916 22.2253 1.6365 22.9394 2.34824 23.6509C3.05945 24.3629 3.77359 24.8013 4.61493 25.1283C5.42934 25.4448 6.35975 25.6605 7.72216 25.7229C9.08751 25.7851 9.52351 25.8003 12.9996 25.8003C16.4761 25.8003 16.9111 25.7851 18.2764 25.7229C19.6391 25.6605 20.5703 25.4448 21.3847 25.1283C22.2263 24.8013 22.9394 24.3629 23.6506 23.6509C24.3626 22.9394 24.7999 22.2253 25.1279 21.3837C25.4426 20.5696 25.6586 19.6391 25.7226 18.277C25.784 16.9117 25.8 16.4764 25.8 13.0001C25.8 9.52384 25.784 9.08757 25.7226 7.72222C25.6586 6.35954 25.4426 5.4294 25.1279 4.61552C24.7999 3.77365 24.3626 3.05951 23.6506 2.34803C22.9386 1.63603 22.2266 1.19869 21.3839 0.872019C20.5679 0.555483 19.6372 0.339747 18.2745 0.277346C16.9092 0.215212 16.4745 0.200012 12.9972 0.200012H13.0012ZM12.5742 2.50658H12.5745L13.0012 2.5067C16.4188 2.5067 16.8239 2.51897 18.1735 2.5803C19.4215 2.63737 20.0988 2.84591 20.55 3.02111C21.1474 3.25311 21.5732 3.53045 22.021 3.97845C22.469 4.42646 22.7463 4.85313 22.9789 5.45047C23.1541 5.90114 23.3629 6.57848 23.4197 7.82649C23.481 9.17584 23.4943 9.58118 23.4943 12.9972C23.4943 16.4132 23.481 16.8186 23.4197 18.1679C23.3626 19.4159 23.1541 20.0933 22.9789 20.544C22.7469 21.1413 22.469 21.5666 22.021 22.0144C21.573 22.4624 21.1476 22.7397 20.55 22.9717C20.0994 23.1477 19.4215 23.3557 18.1735 23.4128C16.8241 23.4741 16.4188 23.4875 13.0012 23.4875C9.58325 23.4875 9.17818 23.4741 7.82883 23.4128C6.58082 23.3552 5.90348 23.1467 5.45201 22.9715C4.85467 22.7394 4.428 22.4621 3.97999 22.0141C3.53199 21.5661 3.25465 21.1405 3.02211 20.5429C2.84691 20.0922 2.63811 19.4149 2.58131 18.1669C2.51998 16.8175 2.50771 16.4122 2.50771 12.994C2.50771 9.57584 2.51998 9.17264 2.58131 7.82329C2.63838 6.57528 2.84691 5.89794 3.02211 5.44673C3.25412 4.84939 3.53199 4.42272 3.97999 3.97472C4.428 3.52671 4.85467 3.24938 5.45201 3.01684C5.90321 2.84084 6.58082 2.63284 7.82883 2.5755C9.00964 2.52217 9.46725 2.50617 11.8529 2.5035V2.5067C12.0758 2.50635 12.3155 2.50646 12.5742 2.50658ZM18.2977 6.16754C18.2977 5.31927 18.9857 4.63206 19.8338 4.63206V4.63153C20.6818 4.63153 21.3698 5.31953 21.3698 6.16754C21.3698 7.01555 20.6818 7.70356 19.8338 7.70356C18.9857 7.70356 18.2977 7.01555 18.2977 6.16754ZM13.0009 6.42674C9.37083 6.42688 6.42775 9.37006 6.42775 13.0001C6.42775 16.6303 9.37098 19.5722 13.0012 19.5722C16.6313 19.5722 19.5735 16.6303 19.5735 13.0001C19.5735 9.36997 16.6311 6.42674 13.0009 6.42674ZM17.2679 13.0001C17.2679 10.6436 15.3574 8.73343 13.0012 8.73343C10.6446 8.73343 8.73444 10.6436 8.73444 13.0001C8.73444 15.3564 10.6446 17.2669 13.0012 17.2669C15.3574 17.2669 17.2679 15.3564 17.2679 13.0001Z"/>
</symbol><symbol id="menu" viewBox="0 0 24 22">
  <rect width="24" height="2"/>
  <rect y="10" width="24" height="2"/>
  <rect y="20" width="24" height="2"/>
</symbol><symbol id="pages" viewBox="0 0 24 24">
  <path fill-rule="evenodd" clip-rule="evenodd" d="M12 4L0 0V20L12 24L24 20V0L12 4ZM22 2.77485L12 6.10819L2 2.77485V18.5585L12 21.8918L22 18.5585V2.77485Z" fill="currentColor"/>
  <path fill-rule="evenodd" clip-rule="evenodd" d="M11 22V5H13V22H11Z" fill="currentColor"/>
</symbol><symbol id="phone" viewBox="0 0 18 18">
<path d="M17.0296 12.5409L14.9378 10.4528C14.5247 10.025 14.0255 9.80059 13.4964 9.80059C12.9708 9.80059 12.4681 10.025 12.0427 10.4475L10.9528 11.5346C10.8983 11.5065 10.8456 11.4802 10.7964 11.4557C10.6681 11.3925 10.545 11.3294 10.4396 11.2628C9.33389 10.5633 8.32667 9.64631 7.35811 8.46286C6.93096 7.92462 6.63565 7.47228 6.4212 7.02696C6.69717 6.76923 6.95733 6.50624 7.20342 6.25377C7.30713 6.14858 7.41612 6.03988 7.52159 5.93468C7.95753 5.49988 8.1878 4.99319 8.1878 4.47072C8.1878 3.94475 7.95753 3.43806 7.52159 3.00676L6.48272 1.97059C6.36495 1.85312 6.25245 1.73916 6.13643 1.61819L6.13116 1.61293C5.9044 1.37975 5.66006 1.13254 5.41573 0.906372C5.00089 0.501372 4.50518 0.287476 3.98135 0.287476C3.46104 0.287476 2.96006 0.503125 2.53292 0.909878L1.22335 2.21605C0.694244 2.73851 0.395416 3.3767 0.333893 4.11306C0.26358 4.98968 0.423541 5.9154 0.836627 7.0217C1.45889 8.70832 2.39581 10.2687 3.78448 11.9325C5.46671 13.9383 7.49874 15.5249 9.82081 16.6488L9.82256 16.6505C10.7208 17.0748 11.9232 17.5727 13.2538 17.6586H13.2696C13.347 17.6621 13.4261 17.6657 13.5105 17.6657C14.4649 17.6657 15.2349 17.336 15.8624 16.6575C15.873 16.6453 15.887 16.6312 15.9011 16.612C16.0769 16.4033 16.2773 16.207 16.4917 16.0018L16.5409 15.9545C16.7413 15.7634 16.8995 15.6056 17.0401 15.4601C17.4603 15.0235 17.6817 14.5168 17.68 13.9926C17.68 13.4666 17.455 12.9652 17.0296 12.5409V12.5409ZM1.78409 4.23579C1.81924 3.8378 1.96866 3.52046 2.25167 3.23819L3.54717 1.94605C3.68956 1.80929 3.83897 1.73566 3.97784 1.73566C4.14659 1.73566 4.296 1.85137 4.39092 1.9478L4.40147 1.95832C4.59835 2.14066 4.78819 2.33351 4.98858 2.53689L5.07999 2.62981C5.13975 2.69118 5.20128 2.75254 5.2628 2.81566C5.32256 2.87527 5.38233 2.93663 5.4421 2.99799L6.48448 4.03767C6.59346 4.14637 6.72354 4.31118 6.72354 4.47598C6.72354 4.64079 6.59346 4.80559 6.48448 4.91429C6.42999 4.96864 6.37549 5.02299 6.321 5.0791C6.26827 5.13345 6.21378 5.1878 6.15928 5.24215L6.08546 5.31579C5.7919 5.61209 5.51241 5.8926 5.21182 6.16085L5.18194 6.19066C4.72667 6.64475 4.88311 7.11462 4.93409 7.2689C4.9376 7.28118 4.94112 7.28994 4.94463 7.30046L4.95167 7.31799C5.23643 7.99825 5.62667 8.63293 6.21729 9.37455L6.21905 9.37631C7.28253 10.6842 8.40401 11.7029 9.6503 12.4936C9.78741 12.583 9.92628 12.6531 10.0616 12.7197C10.0862 12.732 10.1126 12.7443 10.1372 12.7583L10.139 12.7601C10.2673 12.8232 10.3903 12.8863 10.4958 12.9529L10.5274 12.9705C10.538 12.9757 10.5485 12.9827 10.5591 12.988C10.7138 13.0669 10.8737 13.1072 11.0337 13.1072C11.3044 13.1072 11.5505 12.9985 11.7649 12.7829L13.0692 11.482C13.1712 11.3803 13.3259 11.261 13.4946 11.261C13.6669 11.261 13.8163 11.3943 13.8919 11.4749L13.8954 11.4784L16.0013 13.5753C16.3036 13.8769 16.2983 14.1434 15.9872 14.466L15.9837 14.4695C15.836 14.6273 15.6796 14.7781 15.5319 14.9201L15.4898 14.9604C15.2542 15.1883 15.0116 15.4233 14.7849 15.6933C14.4403 16.0614 14.0483 16.2245 13.514 16.2245C13.4648 16.2245 13.4085 16.221 13.3523 16.2175C12.2606 16.1473 11.2323 15.7178 10.4571 15.3496C8.32315 14.3187 6.4546 12.86 4.90596 11.0121C3.62803 9.47799 2.77022 8.05261 2.20245 6.52553C1.86671 5.62436 1.73135 4.89501 1.78409 4.23579V4.23579Z" fill="#989CA4"/>
</symbol><symbol id="photobook" viewBox="0 0 24 24">
  <path fill-rule="evenodd" clip-rule="evenodd" d="M5 5.82843V18.1716L5.82843 19H18.1716L19 18.1716V5.82843L18.1716 5H5.82843L5 5.82843ZM19 3H5L3 5V19L5 21H19L21 19V5L19 3Z" fill="currentColor"/>
  <path fill-rule="evenodd" clip-rule="evenodd" d="M3 4C3.55228 4 4 3.55228 4 3C4 2.44772 3.55228 2 3 2C2.44772 2 2 2.44772 2 3C2 3.55228 2.44772 4 3 4ZM3 6C4.65685 6 6 4.65685 6 3C6 1.34315 4.65685 0 3 0C1.34315 0 0 1.34315 0 3C0 4.65685 1.34315 6 3 6Z" fill="currentColor"/>
  <path fill-rule="evenodd" clip-rule="evenodd" d="M21 4C21.5523 4 22 3.55228 22 3C22 2.44772 21.5523 2 21 2C20.4477 2 20 2.44772 20 3C20 3.55228 20.4477 4 21 4ZM21 6C22.6569 6 24 4.65685 24 3C24 1.34315 22.6569 0 21 0C19.3431 0 18 1.34315 18 3C18 4.65685 19.3431 6 21 6Z" fill="currentColor"/>
  <path fill-rule="evenodd" clip-rule="evenodd" d="M3 22C3.55228 22 4 21.5523 4 21C4 20.4477 3.55228 20 3 20C2.44772 20 2 20.4477 2 21C2 21.5523 2.44772 22 3 22ZM3 24C4.65685 24 6 22.6569 6 21C6 19.3431 4.65685 18 3 18C1.34315 18 0 19.3431 0 21C0 22.6569 1.34315 24 3 24Z" fill="currentColor"/>
  <path fill-rule="evenodd" clip-rule="evenodd" d="M21 22C21.5523 22 22 21.5523 22 21C22 20.4477 21.5523 20 21 20C20.4477 20 20 20.4477 20 21C20 21.5523 20.4477 22 21 22ZM21 24C22.6569 24 24 22.6569 24 21C24 19.3431 22.6569 18 21 18C19.3431 18 18 19.3431 18 21C18 22.6569 19.3431 24 21 24Z" fill="currentColor"/>
</symbol><symbol id="play" viewBox="0 0 18 18">
<path d="M18 9L4.5 16.7942L4.5 1.20577L18 9Z" fill="white"/>
</symbol><symbol id="portmanteau" viewBox="0 0 24 24">
  <rect x="1" y="9" width="22" height="14" fill="none" stroke="currentColor" stroke-width="2"/>
  <path d="M1 9V8.70043L21 1.4277V9H1Z" fill="none" stroke="currentColor" stroke-width="2"/>
  <rect x="19" y="14" width="4" height="4" fill="none" stroke="currentColor" stroke-width="2"/>
</symbol><symbol id="rotate" viewBox="0 0 24 24">
<rect x="20" y="16" width="3" height="16" transform="rotate(90 20 16)" fill="white"/>
<rect x="20" y="5" width="3" height="5" transform="rotate(90 20 5)" fill="white"/>
<rect x="4" y="6.5" width="3" height="12.4999" fill="white"/>
<rect x="17" y="5" width="3" height="14" fill="white"/>
<path d="M9 6.5L15 3.0359L15 9.9641L9 6.5Z" fill="white"/>
</symbol><symbol id="save" viewBox="0 0 24 24">
  <path fill-rule="evenodd" clip-rule="evenodd" d="M5 19H18C18.5523 19 19 18.5523 19 18V8.24264C19 7.97743 18.8946 7.72307 18.7071 7.53553L15.4645 4.29289L16.8787 2.87868L20.1213 6.12132C20.6839 6.68393 21 7.44699 21 8.24264V18C21 19.6569 19.6569 21 18 21H5C3.34315 21 2 19.6569 2 18V5C2 3.34315 3.34315 2 5 2H8H13H14.7574C15.553 2 16.3161 2.31607 16.8787 2.87868L15.4645 4.29289C15.3353 4.16369 15.1743 4.07349 15 4.02988V6C15 7.10457 14.1046 8 13 8H8C6.89543 8 6 7.10457 6 6V4L5 4C4.44772 4 4 4.44772 4 5V18C4 18.5523 4.44772 19 5 19ZM8 4H13V6H8V4ZM10.5 15C11.3284 15 12 14.3284 12 13.5C12 12.6716 11.3284 12 10.5 12C9.67157 12 9 12.6716 9 13.5C9 14.3284 9.67157 15 10.5 15ZM10.5 17C12.433 17 14 15.433 14 13.5C14 11.567 12.433 10 10.5 10C8.567 10 7 11.567 7 13.5C7 15.433 8.567 17 10.5 17Z"/>
</symbol><symbol id="star" viewBox="0 0 22 20">
  <path d="M10.1105 0.731352C10.4825 0.00731362 11.5175 0.00731278 11.8895 0.731351L14.3804 5.57993C14.5256 5.86256 14.7965 6.05936 15.1102 6.11012L20.4912 6.98087C21.2947 7.11089 21.6146 8.09525 21.0409 8.67276L17.1994 12.5401C16.9755 12.7655 16.872 13.084 16.9207 13.398L17.7554 18.7847C17.88 19.5891 17.0427 20.1975 16.3162 19.8303L11.451 17.3719C11.1674 17.2286 10.8326 17.2286 10.549 17.3719L5.68385 19.8303C4.95733 20.1975 4.11999 19.5891 4.24463 18.7847L5.07933 13.398C5.12799 13.084 5.02452 12.7655 4.8006 12.5401L0.959071 8.67276C0.385416 8.09525 0.705252 7.11089 1.5088 6.98087L6.88982 6.11012C7.20349 6.05936 7.47436 5.86256 7.61956 5.57993L10.1105 0.731352Z"/>
</symbol><symbol id="thumbnail" viewBox="0 0 24 24">
  <rect x="1" y="1" width="22" height="22" fill="none" stroke="currentColor" stroke-width="2"/>
  <rect x="5" y="5" width="14" height="4" fill="none" stroke="currentColor" stroke-width="2"/>
  <rect x="5" y="13" width="4" height="6" fill="none" stroke="currentColor" stroke-width="2"/>
  <rect x="13" y="13" width="6" height="6" fill="none" stroke="currentColor" stroke-width="2"/>
</symbol><symbol id="trash" viewBox="0 0 24 24">
  <path fill-rule="evenodd" clip-rule="evenodd" d="M17 5V4C17 2.89543 16.1046 2 15 2H9C7.89543 2 7 2.89543 7 4V5H4C3.44772 5 3 5.44772 3 6C3 6.55228 3.44772 7 4 7H5V18C5 19.6569 6.34315 21 8 21H16C17.6569 21 19 19.6569 19 18V7H20C20.5523 7 21 6.55228 21 6C21 5.44772 20.5523 5 20 5H17ZM15 4H9V5H15V4ZM17 7H7V18C7 18.5523 7.44772 19 8 19H16C16.5523 19 17 18.5523 17 18V7Z"/>
  <path d="M9 9H11V17H9V9Z"/>
  <path d="M13 9H15V17H13V9Z"/>
</symbol><symbol id="vk" viewBox="0 0 28 17">
  <path fill-rule="evenodd" clip-rule="evenodd" d="M27.3411 1.17971C27.5487 0.514267 27.3411 0.030272 26.4218 0.030272H23.3674C22.5964 0.030272 22.2406 0.453723 22.033 0.907535C22.033 0.907535 20.4613 4.7794 18.2669 7.29001C17.5552 8.01601 17.229 8.258 16.8436 8.258C16.6359 8.258 16.3691 8.01601 16.3691 7.35056V1.14944C16.3691 0.362996 16.1319 0 15.4794 0H10.6755C10.201 0 9.90451 0.362996 9.90451 0.725992C9.90451 1.48226 11.0017 1.66371 11.1203 3.78114V8.379C11.1203 9.37726 10.9424 9.55872 10.5569 9.55872C9.51898 9.55872 6.9984 5.65658 5.48604 1.20999C5.18945 0.332724 4.89294 0 4.12197 0H1.03788C0.148278 0 0 0.42354 0 0.877263C0 1.69398 1.03788 5.80785 4.83359 11.2527C7.35426 14.9733 10.9424 16.9697 14.1747 16.9697C16.1319 16.9697 16.3691 16.516 16.3691 15.7598V12.9467C16.3691 12.0391 16.547 11.888 17.1698 11.888C17.6145 11.888 18.4152 12.1299 20.2241 13.9146C22.2998 16.032 22.6557 17 23.8122 17H26.8666C27.7562 17 28.1714 16.5463 27.9342 15.669C27.6673 14.7918 26.6591 13.5214 25.3543 12.0089C24.6425 11.162 23.575 10.2243 23.2488 9.77044C22.804 9.16554 22.9226 8.92354 23.2488 8.379C23.2192 8.379 26.9556 2.99469 27.3411 1.17971Z"/>
</symbol><symbol id="youtube" viewBox="0 0 26 19">
  <path fill-rule="evenodd" clip-rule="evenodd" d="M23.0016 0.749341C24.1031 1.05161 24.9706 1.94222 25.265 3.07323C25.8 5.12305 25.8 9.40001 25.8 9.40001C25.8 9.40001 25.8 13.6768 25.265 15.7268C24.9706 16.8578 24.1031 17.7484 23.0016 18.0508C21.0053 18.6 13 18.6 13 18.6C13 18.6 4.99457 18.6 2.99821 18.0508C1.89668 17.7484 1.02919 16.8578 0.734788 15.7268C0.199951 13.6768 0.199951 9.40001 0.199951 9.40001C0.199951 9.40001 0.199951 5.12305 0.734788 3.07323C1.02919 1.94222 1.89668 1.05161 2.99821 0.749341C4.99457 0.200012 13 0.200012 13 0.200012C13 0.200012 21.0053 0.200012 23.0016 0.749341ZM10.6001 5.80005V13.8L17.0001 9.8002L10.6001 5.80005Z"/>
</symbol><symbol id="zoom" viewBox="0 0 24 24">
<rect x="15.1816" y="6.30371" width="3" height="12" transform="rotate(45 15.1816 6.30371)" fill="white"/>
<path d="M4.92938 18.6784L6.72253 11.9863L11.6215 16.8853L4.92938 18.6784Z" fill="white"/>
<path d="M19.071 4.53681L12.3789 6.32996L17.2778 11.2289L19.071 4.53681Z" fill="white"/>
</symbol></svg>