<svg width="48" height="48" viewBox="0 0 48 48" fill="none" xmlns="http://www.w3.org/2000/svg">
<circle cx="24" cy="24" r="24" fill="#F1F2F4"/>
<path d="M24.938 15.5532L13.5967 20.8657L14.0145 27.7301L16.9991 34.8334L24.1023 39.1908L29.7132 36.6838L33.5932 29.9984L35.0257 24.1487L24.938 15.5532Z" fill="white"/>
<path d="M32.741 12.1253C27.448 7.79248 21.091 6.75033 18.545 9.79792C18.1603 10.2581 17.885 10.7856 17.713 11.3636C15.1753 11.1442 12.5157 12.2685 10.817 14.5451C8.289 17.9322 8.84633 22.5824 12.0603 24.9319C12.5857 25.3159 13.149 25.6128 13.7353 25.8293C13.7257 25.6712 13.7203 25.5215 13.7203 25.3826C13.7203 24.2712 13.902 23.2026 14.2327 22.2004C14.241 22.2007 14.3367 22.1971 14.3727 22.1892C16.3917 22.0886 19.0203 21.1444 21.56 19.4646C22.4973 18.8444 23.3457 18.174 24.0873 17.4848C25.067 18.9374 26.5217 20.3886 28.377 21.6567C30.3353 22.9945 32.4513 23.9314 34.4557 24.4368C34.4843 24.7479 34.4993 25.0636 34.4993 25.3826C34.4993 25.8573 34.423 26.4798 34.2843 27.1815C35.7077 27.0136 36.9023 26.4584 37.7113 25.4895C40.2597 22.4412 38.034 16.4585 32.741 12.1253Z" fill="#232325"/>
<path d="M24.0977 39.7902L23.9957 39.7763C23.795 39.7489 19.0463 39.044 15.686 34.2047C13.8597 31.5738 12.8873 27.3903 12.8873 25.3819C12.8873 19.265 17.922 14.2888 24.1107 14.2888C30.2993 14.2888 35.334 19.2653 35.334 25.3819C35.334 27.3979 34.1207 31.6774 32.5563 34.1724C29.423 39.1703 24.4113 39.7572 24.2 39.7796L24.0977 39.7902ZM24.1107 15.938C18.841 15.938 14.554 20.1745 14.554 25.3816C14.554 27.1304 15.4463 30.9456 17.06 33.2704C19.7533 37.1494 23.47 38.0021 24.1253 38.1252C24.8257 38.0196 28.6503 37.2734 31.1403 33.3024C32.5013 31.1314 33.6673 27.1327 33.6673 25.3816C33.6673 20.1742 29.3803 15.938 24.1107 15.938Z" fill="#232325"/>
<path d="M28 30C28 32.2091 26.2091 34 24 34C21.7909 34 20 32.2091 20 30" stroke="#232325" stroke-width="2"/>
</svg>
