<svg width="28" height="17" viewBox="0 0 28 17" fill="none" xmlns="http://www.w3.org/2000/svg">
  <path fill-rule="evenodd" clip-rule="evenodd"
    d="M27.3411 1.17971C27.5487 0.514267 27.3411 0.030272 26.4218 0.030272H23.3674C22.5964 0.030272 22.2406 0.453723 22.033 0.907535C22.033 0.907535 20.4613 4.7794 18.2669 7.29001C17.5552 8.01601 17.229 8.258 16.8436 8.258C16.6359 8.258 16.3691 8.01601 16.3691 7.35056V1.14944C16.3691 0.362996 16.1319 0 15.4794 0H10.6755C10.201 0 9.90451 0.362996 9.90451 0.725992C9.90451 1.48226 11.0017 1.66371 11.1203 3.78114V8.379C11.1203 9.37726 10.9424 9.55872 10.5569 9.55872C9.51898 9.55872 6.9984 5.65658 5.48604 1.20999C5.18945 0.332724 4.89294 0 4.12197 0H1.03788C0.148278 0 0 0.42354 0 0.877263C0 1.69398 1.03788 5.80785 4.83359 11.2527C7.35426 14.9733 10.9424 16.9697 14.1747 16.9697C16.1319 16.9697 16.3691 16.516 16.3691 15.7598V12.9467C16.3691 12.0391 16.547 11.888 17.1698 11.888C17.6145 11.888 18.4152 12.1299 20.2241 13.9146C22.2998 16.032 22.6557 17 23.8122 17H26.8666C27.7562 17 28.1714 16.5463 27.9342 15.669C27.6673 14.7918 26.6591 13.5214 25.3543 12.0089C24.6425 11.162 23.575 10.2243 23.2488 9.77044C22.804 9.16554 22.9226 8.92354 23.2488 8.379C23.2192 8.379 26.9556 2.99469 27.3411 1.17971Z" />
</svg>