<svg width="26" height="19" viewBox="0 0 26 19" fill="none" xmlns="http://www.w3.org/2000/svg">
  <path fill-rule="evenodd" clip-rule="evenodd"
    d="M23.0016 0.749341C24.1031 1.05161 24.9706 1.94222 25.265 3.07323C25.8 5.12305 25.8 9.40001 25.8 9.40001C25.8 9.40001 25.8 13.6768 25.265 15.7268C24.9706 16.8578 24.1031 17.7484 23.0016 18.0508C21.0053 18.6 13 18.6 13 18.6C13 18.6 4.99457 18.6 2.99821 18.0508C1.89668 17.7484 1.02919 16.8578 0.734788 15.7268C0.199951 13.6768 0.199951 9.40001 0.199951 9.40001C0.199951 9.40001 0.199951 5.12305 0.734788 3.07323C1.02919 1.94222 1.89668 1.05161 2.99821 0.749341C4.99457 0.200012 13 0.200012 13 0.200012C13 0.200012 21.0053 0.200012 23.0016 0.749341ZM10.6001 5.80005V13.8L17.0001 9.8002L10.6001 5.80005Z" />
</svg>