<svg width="100" height="100" viewBox="0 0 100 100" fill="none" xmlns="http://www.w3.org/2000/svg">
<g clip-path="url(#clip0_343_2973)">
<path fill-rule="evenodd" clip-rule="evenodd" d="M93.468 1.92308C94.6903 1.92325 95.8625 2.40889 96.7268 3.27321C97.5911 4.13752 98.0768 5.30969 98.0769 6.53201V93.468C98.0768 94.6903 97.5911 95.8625 96.7268 96.7268C95.8625 97.5911 94.6903 98.0768 93.468 98.0769H6.53201C5.30969 98.0768 4.13752 97.5911 3.27321 96.7268C2.40889 95.8625 1.92325 94.6903 1.92308 93.468V6.53201C1.92325 5.30969 2.40889 4.13752 3.27321 3.27321C4.13752 2.40889 5.30969 1.92325 6.53201 1.92308H93.468ZM93.468 2.83235e-07H6.53201C5.67414 -0.000252391 4.8247 0.168556 4.03208 0.496733C3.23946 0.824909 2.5192 1.30598 1.91259 1.91259C1.30598 2.5192 0.824909 3.23946 0.496733 4.03208C0.168556 4.8247 -0.000252391 5.67414 2.83235e-07 6.53201V93.468C-0.000252391 94.3259 0.168556 95.1753 0.496733 95.9679C0.824909 96.7605 1.30598 97.4808 1.91259 98.0874C2.5192 98.694 3.23946 99.1751 4.03208 99.5033C4.8247 99.8314 5.67414 100 6.53201 100H93.468C94.3259 100 95.1753 99.8314 95.9679 99.5033C96.7605 99.1751 97.4808 98.694 98.0874 98.0874C98.694 97.4808 99.1751 96.7605 99.5033 95.9679C99.8314 95.1753 100 94.3259 100 93.468V6.53201C100 5.67414 99.8314 4.8247 99.5033 4.03208C99.1751 3.23946 98.694 2.5192 98.0874 1.91259C97.4808 1.30598 96.7605 0.824909 95.9679 0.496733C95.1753 0.168556 94.3259 -0.000252391 93.468 2.83235e-07ZM40.609 29.141L33.6026 36.141H34.6154L41.6154 29.141H41.609L43.4743 27.2757V26.2692L40.6025 29.141H40.609ZM32.5321 29.141L28.2692 33.4038V33.4167L25.5384 36.141H26.5513L28.2692 34.4295V34.4166L33.5384 29.141L43.4743 19.2051V18.1987L32.5321 29.141ZM42.6859 36.141L43.4743 35.3526V34.3461L41.6795 36.141H42.6859ZM38.6475 36.141L43.4743 31.3141V30.3077L37.641 36.141H38.6475ZM29.5641 36.141H30.5769L37.5769 29.141L43.4743 23.2436V22.2308L36.5641 29.141L29.5641 36.141ZM26.1154 15.3846L15.3846 26.1154V27.1218L27.1218 15.3846H26.1154ZM22.0769 15.3846L15.3846 22.0769V23.0898L23.0898 15.3846H22.0769ZM25.4808 29.141L28.2692 26.3526V26.3397L39.2243 15.3846H38.2115L28.2692 25.3269V25.3462L24.468 29.141L17.4679 36.141H18.4743L25.4744 29.141H25.4808ZM21.4423 29.141L28.2692 22.3141V22.3013L35.1859 15.3846H34.1795L28.2692 21.2949V21.3077L20.4359 29.141L15.3846 34.1923V35.1987L21.4423 29.141ZM18.0385 15.3846L15.3846 18.0385V19.0448L19.0448 15.3846H18.0385ZM17.4039 29.141L28.2692 18.2756V18.2628L31.1474 15.3846H30.1346L28.2692 17.2564V17.2692L16.391 29.141H16.3974L15.3846 30.1539V31.1667L17.4103 29.141H17.4039ZM28.2692 30.3782L29.5064 29.141H29.5L43.2564 15.3846H42.2436L28.4871 29.141H28.4936L28.2692 29.3718V29.3846L21.5064 36.141H22.5192L28.2692 30.391V30.3782ZM42.4808 60.5641L43.4743 59.5769V58.5641L41.4743 60.5641H42.4808ZM38.4487 60.5641L43.4743 55.5385V54.532L37.4359 60.5641H38.4487ZM34.4103 60.5641L43.4743 51.5064V50.4936L33.4038 60.5641H34.4103ZM28.2692 57.6282V57.6411L25.3398 60.5641H26.3526L28.2692 58.6474V58.6346L43.4743 43.4295V42.4167L28.2692 57.6282ZM30.3718 60.5641L43.4743 47.4616V46.4551L29.359 60.5641H30.3718ZM28.2692 50.5577L39.0192 39.8077H38.0129L28.2692 49.5513V49.5641L17.2629 60.5641H18.2756L28.2692 50.5769V50.5577ZM28.2692 46.5256L34.9807 39.8077H33.9744L28.2692 45.5192V45.5321L15.3846 58.4103V59.423L28.2692 46.5384V46.5256ZM28.2692 42.4936L30.9487 39.8077H29.9423L28.2692 41.4807V41.4936L15.3846 54.3782V55.3846L28.2692 42.5V42.4936ZM28.2692 54.6026L43.0577 39.8077H42.0513L28.2692 53.5897V53.6026L21.3077 60.5641H22.3141L28.2692 54.6154V54.6026ZM17.8397 39.8077L15.3846 42.2629V43.2757L18.8526 39.8077H17.8397ZM21.8782 39.8077L15.3846 46.3013V47.3077L22.8846 39.8077H21.8782ZM25.9103 39.8077L15.3846 50.3333V51.3461L26.9231 39.8077H25.9103ZM42.2884 84.9936L43.4743 83.8013V82.7885L41.2757 84.9936H42.2884ZM30.173 84.9936L43.4743 71.6923V70.6795L29.1667 84.9936H30.173ZM34.2115 84.9936L43.4743 75.7244V74.718L33.1987 84.9936H34.2115ZM38.2436 84.9936L43.4743 79.7629V78.75L37.2372 84.9936H38.2436ZM28.2692 81.8462V81.8589L25.141 84.9936H26.1475L28.2692 82.8718V82.859L43.4743 67.6475V66.641L28.2692 81.8462ZM28.2692 78.8205L42.859 64.2307H41.8462L28.2692 77.8141V77.827L21.1026 84.9936H22.1154L28.2692 78.8333V78.8205ZM28.2692 74.7885L38.8269 64.2307H37.8141L28.2692 73.7756V73.7885L17.0641 84.9936H18.0769L28.2692 74.8012V74.7885ZM25.7115 64.2307L15.3846 74.5641V75.5705L26.7243 64.2307H25.7115ZM28.2692 66.7115L30.7436 64.2307H29.7372L28.2692 65.7051V65.7115L15.3846 78.5961V79.6089L28.2692 66.7243V66.7115ZM28.2692 70.75L34.7821 64.2307H33.7756L28.2692 69.7372V69.75L15.3846 82.6346V83.641L28.2692 70.7564V70.75ZM21.6731 64.2307L15.3846 70.5257V71.532L22.6859 64.2307H21.6731ZM17.641 64.2307L15.3846 66.4872V67.4936L18.6474 64.2307H17.641Z" fill="black"/>
<path fill-rule="evenodd" clip-rule="evenodd" d="M80.0644 50.8461V50.8653L79.4938 51.4294H80.4938L82.5066 49.4166V48.4038L80.0644 50.8461ZM80.0644 47.8268L81.0195 46.8717H80.0194L75.4618 51.4294H76.4682L80.0644 47.8333V47.8268ZM67.9105 46.8717L63.3464 51.4294H64.3592L68.9169 46.8717H67.9105ZM71.9425 46.8717L67.3848 51.4294H68.3912L72.9554 46.8717H71.9425ZM75.981 46.8717L71.4169 51.4294H72.4297L76.9874 46.8717H75.981ZM63.872 46.8717L59.3079 51.4294H60.3207L64.8784 46.8717H63.872ZM59.8335 46.8717L57.7759 48.9294V49.9422L60.84 46.8717H59.8335ZM86.2503 40.6281H87.2631L89.9874 37.9038V36.8909L86.2503 40.6281ZM82.7374 36.064L80.0644 38.7371V38.7499L78.1861 40.6281H79.199L80.0644 39.7627V39.7499L83.7438 36.064H82.7374ZM86.7695 36.064L82.2118 40.6281H83.2246L87.7822 36.064H86.7695ZM66.6028 36.064L62.0451 40.6281H63.0579L67.6156 36.064H66.6028ZM78.7118 36.064L74.1541 40.6281H75.1605L79.7246 36.064H78.7118ZM74.6733 36.064L70.1156 40.6281H71.122L75.6798 36.064H74.6733ZM70.6412 36.064L66.0771 40.6281H67.09L71.6477 36.064H70.6412ZM58.5259 36.064L57.7759 36.8204V37.8332L59.5387 36.064H58.5259ZM62.5643 36.064L58.0066 40.6281H59.0131L63.5772 36.064H62.5643ZM81.4297 25.2627L80.0644 26.6281V26.6409L76.8848 29.8204H77.8913L80.0644 27.6474V27.6345L82.4361 25.2627H81.4297ZM80.9041 29.8204H81.9169L82.5066 29.2307V28.2178L80.9041 29.8204ZM77.4041 25.2627L72.84 29.8204H73.8528L78.4105 25.2627H77.4041ZM73.3656 25.2627L68.8079 29.8204H69.8144L74.3785 25.2627H73.3656ZM69.3336 25.2627L64.7695 29.8204H65.7823L70.34 25.2627H69.3336ZM57.7759 25.2627V25.7179L58.231 25.2627H57.7759ZM61.2567 25.2627L57.7759 28.7435V29.7563L62.2695 25.2627H61.2567ZM65.2887 25.2627L60.731 29.8204H61.7375L66.3015 25.2627H65.2887ZM72.7246 84.2371H73.7374L76.9361 81.032V80.0255L72.7246 84.2371ZM73.2502 79.673L68.6926 84.2371H69.6989L74.263 79.673H73.2502ZM69.2118 79.673L64.6541 84.2371H65.6669L70.2246 79.673H69.2118ZM76.9361 84.2371V84.064L76.7695 84.2371H76.9361ZM57.7759 79.673V80.0128L58.1156 79.673H57.7759ZM61.1413 79.673L57.7759 83.0448V84.0512L62.1476 79.673H61.1413ZM65.1733 79.673L60.6157 84.2371H61.622L66.1861 79.673H65.1733Z" fill="black"/>
</g>
<defs>
<clipPath id="clip0_343_2973">
<rect width="100" height="100" fill="white"/>
</clipPath>
</defs>
</svg>
