<svg width="100" height="100" viewBox="0 0 100 100" fill="none" xmlns="http://www.w3.org/2000/svg">
<path fill-rule="evenodd" clip-rule="evenodd" d="M6.53201 1.92308H93.468C94.6903 1.92325 95.8625 2.40889 96.7268 3.27321C97.5911 4.13752 98.0768 5.30969 98.0769 6.53201V93.468C98.0768 94.6903 97.5911 95.8625 96.7268 96.7268C95.8625 97.5911 94.6903 98.0768 93.468 98.0769H6.53201C5.30969 98.0768 4.13752 97.5911 3.27321 96.7268C2.40889 95.8625 1.92325 94.6903 1.92308 93.468V6.53201C1.92325 5.30969 2.40889 4.13752 3.27321 3.27321C4.13752 2.40889 5.30969 1.92325 6.53201 1.92308V1.92308ZM6.53201 2.83235e-07C5.67414 -0.000252391 4.8247 0.168556 4.03208 0.496733C3.23946 0.824909 2.5192 1.30598 1.91259 1.91259C1.30598 2.5192 0.824909 3.23946 0.496733 4.03208C0.168556 4.8247 -0.000252391 5.67414 2.83235e-07 6.53201V93.468C-0.000252391 94.3259 0.168556 95.1753 0.496733 95.9679C0.824909 96.7605 1.30598 97.4808 1.91259 98.0874C2.5192 98.694 3.23946 99.1751 4.03208 99.5033C4.8247 99.8314 5.67414 100 6.53201 100H93.468C94.3259 100 95.1753 99.8314 95.9679 99.5033C96.7605 99.1751 97.4808 98.694 98.0874 98.0874C98.694 97.4808 99.1751 96.7605 99.5033 95.9679C99.8314 95.1753 100 94.3259 100 93.468V6.53201C100 5.67414 99.8314 4.8247 99.5033 4.03208C99.1751 3.23946 98.694 2.5192 98.0874 1.91259C97.4808 1.30598 96.7605 0.824909 95.9679 0.496733C95.1753 0.168556 94.3259 -0.000252391 93.468 2.83235e-07H6.53201ZM31.6667 55.8462V55.8654L31.0962 56.4295H32.0898L34.109 54.4167V53.4039L31.6667 55.8462ZM31.6667 52.8269L32.6218 51.8718H31.6218L27.0577 56.4295H28.0705L31.6667 52.8334V52.8269ZM19.5128 51.8718L14.9487 56.4295H15.9616L20.5192 51.8718H19.5128ZM23.5449 51.8718L18.9872 56.4295H19.9936L24.5577 51.8718H23.5449ZM27.5769 51.8718L23.0193 56.4295H24.032L28.5897 51.8718H27.5769ZM15.468 51.8718L10.9103 56.4295H11.9166L16.4807 51.8718H15.468ZM11.4359 51.8718L9.37179 53.9295V54.9423L12.4423 51.8718H11.4359ZM92.8911 7.17946H92.8975L76.5192 23.5513V23.5641L60.609 39.4743L52.3077 47.7757V47.7821L50 50.0962V51.1025L52.3077 48.7949V48.782L61.6218 39.4743L76.5192 24.5769V24.5577L93.9038 7.17946L94.8718 6.2115V5.19871L92.8911 7.17946ZM88.859 39.4743L76.5192 51.8141V51.8269L56.5705 71.7692H56.5769L52.3077 76.0385V76.0449L50 78.359V79.3654L52.3077 77.0577V77.0448L57.5833 71.7692L76.5192 52.8334V52.8269L89.8718 39.4743H89.8654L94.8718 34.468V33.4551L88.8526 39.4743H88.859V39.4743ZM80.7821 39.4743L76.5192 43.7372V43.75L52.3077 67.9616V67.9744L50 70.2821V71.2949L52.3077 68.9808V68.9679L76.5192 44.7628V44.75L81.7949 39.4743L94.8718 26.3975V25.3846L80.7821 39.4743ZM92.8975 39.4743L76.5192 55.8462V55.8654L60.609 71.7692L52.3077 80.0705V80.0834L50 82.391V83.4038L52.3077 81.0897V81.0833L61.6218 71.7692L76.5192 56.8718V56.8589L93.9038 39.4743L94.8718 38.5064V37.4936L92.8911 39.4743H92.8975ZM76.5192 31.641L68.6859 39.4743L52.3077 55.8462V55.8654L50 58.1731V59.1795L52.3077 56.8718V56.8589L69.6923 39.4743L76.5192 32.6475V32.6346L94.8718 14.2821V13.2756L76.5192 31.6282V31.641ZM76.5192 35.6795L72.7179 39.4743L52.3077 59.8846V59.8974L50 62.2052V63.2179L52.3077 60.9039V60.891L73.7308 39.4743L76.5192 36.6859V36.6731L94.8718 18.3205V17.3077L76.5192 35.6603V35.6795V35.6795ZM76.7436 39.4743L76.5192 39.6988V39.7179L52.3077 63.9231V63.9359L50 66.25V67.2564L52.3077 64.9487V64.9359L76.5192 40.7244V40.7115L77.7564 39.4743H77.75L94.8718 22.3526V21.3462L76.7436 39.4743V39.4743ZM76.5192 27.6026L64.6474 39.4743L52.3077 51.8141V51.8269L50 54.1346V55.1475L52.3077 52.8334V52.8269L65.6603 39.4743H65.6539L76.5192 28.609V28.5961L94.8718 10.2436V9.2372L76.5192 27.5898V27.6026ZM88.859 71.7692L76.5192 84.109V84.1218L65.7692 94.8718H66.7821L76.5192 85.1347V85.1218L89.8718 71.7692H89.8654L94.8718 66.7628V65.75L88.8526 71.7692H88.859V71.7692ZM80.7821 71.7692L76.5192 76.0385V76.0449L57.6923 94.8718H58.7051L76.5192 77.0577V77.0448L81.7949 71.7692L94.8718 58.6923V57.6795L80.7821 71.7692V71.7692ZM92.8975 71.7692L76.5192 88.1474V88.1603L69.8077 94.8718H70.8141L76.5192 89.1667V89.1538L93.9038 71.7692L94.8718 70.8013V69.7949L92.8911 71.7692H92.8975V71.7692ZM76.5192 63.9359L68.6859 71.7692L52.3077 88.1474V88.1603L50 90.468V91.4807L52.3077 89.1667V89.1538L69.6923 71.7692L76.5192 64.9487V64.9359L94.8718 46.5769V45.5705L76.5192 63.9231V63.9359ZM76.5192 67.9744L72.7179 71.7692L52.3077 92.1795V92.1923L50 94.5064V94.8718H50.641L52.3077 93.2051V93.1923L73.7308 71.7692L76.5192 68.9808V68.9679L94.8718 50.6154V49.609L76.5192 67.9616V67.9744V67.9744ZM76.7436 71.7692L76.5192 72V72.0128L53.6602 94.8718H54.6667L76.5192 73.0193V73.0064L77.7564 71.7692H77.75L94.8718 54.6474V53.6411L76.7436 71.7692V71.7692ZM76.5192 59.8974L64.6474 71.7692L52.3077 84.109V84.1218L50 86.4295V87.4423L52.3077 85.1347V85.1218L65.6603 71.7692H65.6539L76.5192 60.9039V60.891L94.8718 42.5385V41.5321L76.5192 59.8846V59.8974ZM76.5192 47.7757V47.7821L52.532 71.7692H52.5384L52.3077 72V72.0128L50 74.3205V75.3333L52.3077 73.0193V73.0064L53.5513 71.7692H53.5449L76.5192 48.7949V48.782L85.8269 39.4743L94.8718 30.4295V29.4231L84.8205 39.4743L76.5192 47.7757ZM94.8718 94.8718V94.0128L94.0128 94.8718H94.8718ZM90.9871 94.8718L94.8718 90.9871V89.9808L89.9808 94.8718H90.9871V94.8718ZM78.8782 94.8718L94.8718 78.8782V77.8654L77.8654 94.8718H78.8782ZM82.9102 94.8718L94.8718 82.9167V81.9039L81.9039 94.8718H82.9102ZM86.9487 94.8718L94.8718 86.9487V85.9359L85.9359 94.8718H86.9487ZM76.5192 92.1923L73.8397 94.8718H74.8526L76.5192 93.2051V93.1923L94.8718 74.8397V73.827L76.5192 92.1795V92.1923V92.1923ZM76.5192 80.0705V80.0834L61.7308 94.8718H62.7372L76.5192 81.0897V81.0833L85.8269 71.7692L94.8718 62.7243V61.718L84.8205 71.7692L76.5192 80.0705ZM50.5256 5.1667L50 5.69231V6.69869L51.5321 5.1667H50.5256V5.1667ZM52.3077 28.5961L73.7308 7.17946L75.7372 5.1667H74.7307L72.7179 7.17946L52.3077 27.5898V27.6026L50 29.9103V30.9231L52.3077 28.609V28.5961V28.5961ZM52.3077 24.5577L69.6923 7.17946L71.7051 5.1667H70.6987L68.6859 7.17946L52.3077 23.5513V23.5641L50 25.8782V26.8846L52.3077 24.5769V24.5577ZM52.3077 20.5257L65.6603 7.17946H65.6539L67.6667 5.1667H66.6538L64.6474 7.17946L52.3077 19.5192V19.5256L50 21.8397V22.8462L52.3077 20.5385V20.5257ZM52.3077 36.6731L76.5192 12.4615V12.4487L81.7949 7.17946L83.8013 5.1667H82.7949L80.7821 7.17946L76.5192 11.4423V11.4551L52.3077 35.6603V35.6795L50 37.9872V38.9936L52.3077 36.6859V36.6731ZM52.3077 32.6346L76.5192 8.4295V8.41667L77.7564 7.17946H77.75L79.7629 5.1667H78.75L76.7436 7.17946L76.5192 7.40388V7.41663L52.3077 31.6282V31.641L50 33.9487V34.9616L52.3077 32.6475V32.6346V32.6346ZM52.3077 8.41667L53.5513 7.17946H53.5449L55.5513 5.1667H54.5449L52.532 7.17946H52.5384L52.3077 7.40388V7.41663L50 9.7308V10.7372L52.3077 8.4295V8.41667V8.41667ZM52.3077 12.4487L57.5833 7.17946L59.5961 5.1667H58.5833L56.5705 7.17946H56.5769L52.3077 11.4423V11.4551L50 13.7628V14.7757L52.3077 12.4615V12.4487ZM52.3077 16.4872L61.6218 7.17946L63.6282 5.1667H62.6218L60.609 7.17946L52.3077 15.4744V15.4872L50 17.7949V18.8077L52.3077 16.5V16.4872ZM52.3077 40.7115L53.5513 39.4743H53.5449L76.5192 16.5V16.4872L85.8269 7.17946L87.8398 5.1667H86.8269L84.8205 7.17946L76.5192 15.4744V15.4872L52.532 39.4743H52.5384L52.3077 39.6988V39.7179L50 42.0257V43.0321L52.3077 40.7244V40.7115ZM52.3077 44.75L57.5833 39.4743L76.5192 20.5385V20.5257L89.8718 7.17946H89.8654L91.8718 5.1667H90.8654L88.8526 7.17946H88.859L76.5192 19.5192V19.5256L56.5705 39.4743H56.5769L52.3077 43.7372V43.75L50 46.0577V47.0705L52.3077 44.7628V44.75ZM37.8526 45.6282H38.8654L41.5833 42.9039V41.891L37.8526 45.6282ZM34.3397 41.0641L31.6667 43.7372V43.75L29.7884 45.6282H30.8013L31.6667 44.7628V44.75L35.3462 41.0641H34.3397V41.0641ZM38.3718 41.0641L33.8141 45.6282H34.8205L39.3846 41.0641H38.3718ZM18.2051 41.0641L13.6475 45.6282H14.6538L19.2179 41.0641H18.2051ZM30.3141 41.0641L25.7564 45.6282H26.7628L31.3269 41.0641H30.3141ZM26.2756 41.0641L21.718 45.6282H22.7243L27.2821 41.0641H26.2756ZM22.2436 41.0641L17.6795 45.6282H18.6859L23.25 41.0641H22.2436ZM10.1282 41.0641L9.37179 41.8205V42.8333L11.141 41.0641H10.1282ZM14.1667 41.0641L9.60255 45.6282H10.6154L15.1731 41.0641H14.1667ZM33.0321 30.2628L31.6667 31.6282V31.641L28.4871 34.8205H29.4936L31.6667 32.6475V32.6346L34.0384 30.2628H33.0321ZM32.5064 34.8205H33.5128L34.109 34.2308V33.2179L32.5064 34.8205ZM29.0064 30.2628L24.4423 34.8205H25.4551L30.0128 30.2628H29.0064ZM24.9679 30.2628L20.4102 34.8205H21.4167L25.9808 30.2628H24.9679ZM20.9295 30.2628L16.3718 34.8205H17.3846L21.9423 30.2628H20.9295ZM9.37179 30.2628V30.718L9.83331 30.2628H9.37179ZM12.859 30.2628L9.37179 33.7436V34.7564L13.8654 30.2628H12.859ZM16.891 30.2628L12.3333 34.8205H13.3398L17.9039 30.2628H16.891ZM24.3269 67.2372H25.3398L28.5385 64.0321V63.0256L24.3269 67.2372ZM24.8526 62.6731L20.2949 67.2372H21.3013L25.8654 62.6731H24.8526ZM20.8141 62.6731L16.2564 67.2372H17.2692L21.827 62.6731H20.8141ZM28.5385 67.2372V67.0641L28.3654 67.2372H28.5385ZM9.37179 62.6731V63.0129L9.71797 62.6731H9.37179ZM12.7436 62.6731L9.37179 66.0449V67.0513L13.75 62.6731H12.7436ZM16.7757 62.6731L12.218 67.2372H13.2244L17.782 62.6731H16.7757Z" fill="black"/>
</svg>
