<svg width="100" height="100" viewBox="0 0 100 100" fill="none" xmlns="http://www.w3.org/2000/svg">
<path fill-rule="evenodd" clip-rule="evenodd" d="M93.468 1.92308C94.6903 1.92325 95.8625 2.40889 96.7268 3.27321C97.5911 4.13752 98.0768 5.30969 98.0769 6.53201V93.468C98.0768 94.6903 97.5911 95.8625 96.7268 96.7268C95.8625 97.5911 94.6903 98.0768 93.468 98.0769H6.53201C5.30969 98.0768 4.13752 97.5911 3.27321 96.7268C2.40889 95.8625 1.92325 94.6903 1.92308 93.468V6.53201C1.92325 5.30969 2.40889 4.13752 3.27321 3.27321C4.13752 2.40889 5.30969 1.92325 6.53201 1.92308H93.468ZM93.468 2.83235e-07H6.53201C5.67414 -0.000252391 4.8247 0.168556 4.03208 0.496733C3.23946 0.824909 2.5192 1.30598 1.91259 1.91259C1.30598 2.5192 0.824909 3.23946 0.496733 4.03208C0.168556 4.8247 -0.000252391 5.67414 2.83235e-07 6.53201V93.468C-0.000252391 94.3259 0.168556 95.1753 0.496733 95.9679C0.824909 96.7605 1.30598 97.4808 1.91259 98.0874C2.5192 98.694 3.23946 99.1751 4.03208 99.5033C4.8247 99.8314 5.67414 100 6.53201 100H93.468C94.3259 100 95.1753 99.8314 95.9679 99.5033C96.7605 99.1751 97.4808 98.694 98.0874 98.0874C98.694 97.4808 99.1751 96.7605 99.5033 95.9679C99.8314 95.1753 100 94.3259 100 93.468V6.53201C100 5.67414 99.8314 4.8247 99.5033 4.03208C99.1751 3.23946 98.694 2.5192 98.0874 1.91259C97.4808 1.30598 96.7605 0.824909 95.9679 0.496733C95.1753 0.168556 94.3259 -0.000252391 93.468 2.83235e-07Z" fill="black"/>
<mask id="mask0_394_18386" style="mask-type:alpha" maskUnits="userSpaceOnUse" x="15" y="14" width="70" height="37">
<path fill-rule="evenodd" clip-rule="evenodd" d="M84.5621 50.0835L15.4414 36.0835V14.7354H84.5621V50.0835Z" fill="#13CE66"/>
</mask>
<g mask="url(#mask0_394_18386)">
<path fill-rule="evenodd" clip-rule="evenodd" d="M93.468 1.92308C94.6903 1.92325 95.8625 2.40889 96.7268 3.27321C97.5911 4.13752 98.0768 5.30969 98.0769 6.53201V93.468C98.0768 94.6903 97.5911 95.8625 96.7268 96.7268C95.8625 97.5911 94.6903 98.0768 93.468 98.0769H6.53201C5.30969 98.0768 4.13752 97.5911 3.27321 96.7268C2.40889 95.8625 1.92325 94.6903 1.92308 93.468V6.53201C1.92325 5.30969 2.40889 4.13752 3.27321 3.27321C4.13752 2.40889 5.30969 1.92325 6.53201 1.92308H93.468ZM93.468 2.83235e-07H6.53201C5.67414 -0.000252391 4.8247 0.168556 4.03208 0.496733C3.23946 0.824909 2.5192 1.30598 1.91259 1.91259C1.30598 2.5192 0.824909 3.23946 0.496733 4.03208C0.168556 4.8247 -0.000252391 5.67414 2.83236e-07 6.53201V93.468C-0.000252391 94.3259 0.168556 95.1753 0.496733 95.9679C0.824909 96.7605 1.30598 97.4808 1.91259 98.0874C2.5192 98.694 3.23946 99.1751 4.03208 99.5033C4.8247 99.8314 5.67414 100 6.53201 100H93.468C94.3259 100 95.1753 99.8314 95.9679 99.5033C96.7605 99.1751 97.4808 98.694 98.0874 98.0874C98.694 97.4808 99.1751 96.7605 99.5033 95.9679C99.8314 95.1753 100 94.3259 100 93.468V6.53201C100 5.67414 99.8314 4.8247 99.5033 4.03208C99.1751 3.23946 98.694 2.5192 98.0874 1.91259C97.4808 1.30598 96.7605 0.824909 95.9679 0.496733C95.1753 0.168556 94.3259 -0.000252391 93.468 2.83235e-07V2.83235e-07ZM94.109 29.141L89.8462 33.4038V33.4167L65.641 57.6282V57.6411L61.8397 61.4359L41.4295 81.8462V81.8589L29.5577 93.7372L28.4231 94.8718H29.4359L30.5705 93.7372H30.5641L41.4295 82.8718V82.859L62.8462 61.4359L65.641 58.6474V58.6346L89.8462 34.4295V34.4166L94.8718 29.391V28.3782L94.109 29.141V29.141ZM89.8462 21.3077L82.0128 29.141L65.641 45.5192V45.5321L49.7307 61.4359L41.4295 69.7372V69.75L17.4423 93.7372H17.4487L17.2179 93.9615V93.9743L16.3269 94.8718H17.3205L18.4616 93.7372H18.4552L41.4295 70.7564V70.75L50.7372 61.4359L65.641 46.5384V46.5256L83.0192 29.141L89.8462 22.3141V22.3013L94.8718 17.2756V16.2692L89.8462 21.2949V21.3077V21.3077ZM89.8462 25.3462L86.0513 29.141H86.0449L65.641 49.5513V49.5641L53.7628 61.4359H53.7692L41.4295 73.7756V73.7885L21.4808 93.7372H21.4872L20.3461 94.8718H21.3589L22.4936 93.7372L41.4295 74.8012V74.7885L54.782 61.4359H54.7756L65.641 50.5769V50.5577L87.0577 29.141L89.8462 26.3526V26.3397L94.8718 21.3141V20.3077L89.8462 25.3269V25.3462ZM90.0769 29.141L89.8462 29.3718V29.3846L65.641 53.5897V53.6026L57.8013 61.4359H57.8077L41.4295 77.8141V77.8269L25.5193 93.7372L24.3846 94.8718H25.3974L26.5321 93.7372L41.4295 78.8333V78.8205L58.8141 61.4359L65.641 54.6154V54.6026L89.8462 30.391V30.3782L91.0833 29.141H91.0769L94.8718 25.3462V24.3397L90.0705 29.141H90.0769V29.141ZM89.8462 17.2692L77.9744 29.141L65.641 41.4807V41.4936L45.6923 61.4359L41.4295 65.7051V65.7115L17.2179 89.9231V89.9359L13.423 93.7372L12.2885 94.8718H13.2949L14.4295 93.7372L17.2179 90.9487V90.9359L41.4295 66.7243V66.7115L46.7051 61.4359L65.641 42.5V42.4936L78.9872 29.141H78.9807L89.8462 18.2756V18.2628L94.8718 13.2372V12.2307L89.8462 17.2564V17.2692V17.2692ZM89.8462 13.2179V13.2308L73.9359 29.141L65.641 37.4423V37.4487L41.6538 61.4359H41.6603L41.4295 61.6666V61.6795L17.2179 85.8846V85.9039L9.38463 93.7372H9.39104L8.25 94.8718H9.25637L10.3974 93.7372L17.2179 86.9102V86.8975L41.4295 62.6859V62.6795L42.6667 61.4359H42.6603L65.641 38.4615V38.4487L74.9487 29.141L89.8462 14.2436V14.2243L94.8718 9.20512V8.19233L89.8462 13.2179ZM89.8462 41.4936L69.8975 61.4359H69.9039L65.641 65.7051V65.7115L41.4295 89.9231V89.9359L37.6282 93.7372L36.4936 94.8718H37.5L38.641 93.7372L41.4295 90.9487V90.9359L65.641 66.7243V66.7115L70.9103 61.4359L89.8462 42.5V42.4936L94.8718 37.4679V36.4551L89.8462 41.4807V41.4936V41.4936ZM94.109 61.4359L89.8462 65.7051V65.7115L65.641 89.9231V89.9359L61.8397 93.7372L60.7051 94.8718H61.7116L62.8462 93.7372L65.641 90.9487V90.9359L89.8462 66.7243V66.7115L94.8718 61.6859V60.6731L94.109 61.4359V61.4359ZM89.8462 53.6026L82.0128 61.4359L65.641 77.8141V77.8269L49.7307 93.7372L48.5962 94.8718H49.6026L50.7372 93.7372L65.641 78.8333V78.8205L83.0192 61.4359L89.8462 54.6154V54.6026L94.8718 49.5769V48.5641L89.8462 53.5897V53.6026ZM89.8462 57.6411L86.0513 61.4359H86.0449L65.641 81.8462V81.8589L53.7628 93.7372H53.7692L52.6346 94.8718H53.6474L54.782 93.7372H54.7756L65.641 82.8718V82.859L87.0577 61.4359L89.8462 58.6474V58.6346L94.8718 53.609V52.6026L89.8462 57.6282V57.6411ZM90.0769 61.4359L89.8462 61.6666V61.6795L65.641 85.8846V85.9039L57.8013 93.7372H57.8077L56.6667 94.8718H57.6795L58.8141 93.7372L65.641 86.9102V86.8975L89.8462 62.6859V62.6795L91.0833 61.4359H91.0769L94.8718 57.6475V56.6346L90.0705 61.4359H90.0769V61.4359ZM89.8462 49.5641L77.9744 61.4359L65.641 73.7756V73.7885L45.6923 93.7372L44.5577 94.8718H45.5641L46.7051 93.7372L65.641 74.8012V74.7885L78.9872 61.4359H78.9807L89.8462 50.5769V50.5577L94.8718 45.5385V44.5256L89.8462 49.5513V49.5641ZM89.8462 45.5321L73.9359 61.4359L65.641 69.7372V69.75L41.6538 93.7372H41.6603L41.4295 93.9615V93.9743L40.532 94.8718H41.5321L42.6667 93.7372H42.6603L65.641 70.7564V70.75L74.9487 61.4359L89.8462 46.5384V46.5256L94.8718 41.5V40.4936L89.8462 45.5192V45.5321V45.5321ZM89.8462 37.4487L65.859 61.4359H65.8654L65.641 61.6666V61.6795L41.4295 85.8846V85.9039L33.5962 93.7372L32.4615 94.8718H33.4679L34.6026 93.7372L41.4295 86.9102V86.8975L65.641 62.6859V62.6795L66.8782 61.4359H66.8718L89.8462 38.4615V38.4487L94.8718 33.4295V32.4166L89.8462 37.4423V37.4487ZM89.8462 73.7885L69.8975 93.7372H69.9039L68.7693 94.8718H69.7756L70.9103 93.7372L89.8462 74.8012V74.7885L94.8718 69.7628V68.75L89.8462 73.7756V73.7885ZM94.109 93.7372L93.1282 94.7244C93.6557 94.5416 94.1114 94.1958 94.4295 93.7372C94.5545 93.5459 94.6536 93.339 94.7244 93.1218L94.109 93.7372ZM89.8462 85.9039L82.0128 93.7372L80.8782 94.8718H81.8846L83.0192 93.7372L89.8462 86.9102V86.8975L94.8718 81.8718V80.8654L89.8462 85.8846V85.9039ZM89.8462 89.9359L86.0513 93.7372H86.0449L84.9102 94.8718H85.9231L87.0577 93.7372L89.8462 90.9487V90.9359L94.8718 85.9103V84.8974L89.8462 89.9231V89.9359V89.9359ZM90.0769 93.7372L89.8462 93.9615V93.9743L88.9487 94.8718H89.9487L91.0833 93.7372H91.0769L94.8718 89.9423V88.9295L90.0705 93.7372H90.0769ZM89.8462 81.8589L77.9744 93.7372L76.8397 94.8718H77.8525L78.9872 93.7372H78.9807L89.8462 82.8718V82.859L94.8718 77.8334V76.8205L89.8462 81.8462V81.8589ZM89.8462 77.8269L73.9359 93.7372L72.8013 94.8718H73.8141L74.9487 93.7372L89.8462 78.8333V78.8205L94.8718 73.7949V72.7885L89.8462 77.8141V77.8269ZM89.8462 69.75L65.859 93.7372H65.8654L65.641 93.9615V93.9743L64.7436 94.8718H65.7372L66.8782 93.7372H66.8718L89.8462 70.7564V70.75L94.8718 65.7244V64.7115L89.8462 69.7372V69.75V69.75ZM17.2179 14.2243L26.3206 5.12821H25.3141L17.2179 13.2179V13.2308L5.12821 25.3269V26.3333L17.2179 14.2436V14.2243ZM17.2179 10.1923L22.2885 5.12821H21.2756L17.2179 9.18587V9.19229L5.12821 21.2884V22.3013L17.2179 10.2052V10.1923ZM14.4295 29.141L17.2179 26.3526V26.3397L38.4295 5.12821H37.4231L17.2179 25.3269V25.3462L13.423 29.141L5.12821 37.4359V38.4423L14.4295 29.141ZM10.3974 29.141L17.2179 22.3141V22.3013L34.3975 5.12821H33.3846L17.2179 21.2949V21.3077L9.38463 29.141H9.39104L5.12821 33.4038V34.4103L10.3974 29.141ZM9.17945 5.12821L5.12821 9.17945V10.1859L10.1859 5.12821H9.17945V5.12821ZM13.2115 5.12821L5.12821 13.2115V14.2243L14.2243 5.12821H13.2115V5.12821ZM17.2179 6.15383L18.25 5.12821H17.2372L17.2179 5.14104V5.15387L5.12821 17.25V18.2564L17.2179 6.16666V6.15383V6.15383ZM6.359 29.141L17.2179 18.2756V18.2628L30.3525 5.12821H29.3462L17.2179 17.2564V17.2692L5.34613 29.141H5.35255L5.12821 29.3654V30.3782L6.36542 29.141H6.359V29.141ZM17.2179 46.5256L34.6026 29.141L41.4295 22.3141V22.3013L58.6026 5.12821H57.5961L41.4295 21.2949V21.3077L33.5962 29.141L17.2179 45.5192V45.5321L5.12821 57.6218V58.6282L17.2179 46.5384V46.5256V46.5256ZM17.2179 42.4936L30.5705 29.141H30.5641L41.4295 18.2756V18.2628L54.5641 5.12821H53.5577L41.4295 17.2564V17.2692L29.5577 29.141L17.2179 41.4807V41.4936L5.12821 53.5833V54.5962L17.2179 42.5V42.4936V42.4936ZM14.4295 61.4359L17.2179 58.6474V58.6346L41.4295 34.4295V34.4166L46.7051 29.141L65.641 10.2052V10.1923L70.7052 5.12821H69.6923L65.641 9.18587V9.19229L45.6923 29.141L41.4295 33.4038V33.4167L17.2179 57.6282V57.6411L13.423 61.4359L5.12821 69.7308V70.7436L14.4295 61.4359V61.4359ZM10.3974 61.4359L17.2179 54.6154V54.6026L41.4295 30.391V30.3782L42.6667 29.141H42.6603L65.641 6.16666V6.15383L66.6667 5.12821H65.6539L65.641 5.14104V5.15387L41.6538 29.141H41.6603L41.4295 29.3718V29.3846L17.2179 53.5897V53.6026L9.38463 61.4359H9.39104L5.12821 65.6987V66.7052L10.3974 61.4359ZM17.2179 30.3782L18.4616 29.141H18.4552L41.4295 6.16666V6.15383L42.4551 5.12821H41.4423L41.4295 5.14104V5.15387L17.4423 29.141H17.4487L17.2179 29.3718V29.3846L5.12821 41.4743V42.4808L17.2179 30.391V30.3782V30.3782ZM17.2179 34.4166L22.4936 29.141L41.4295 10.2052V10.1923L46.5 5.12821H45.4872L41.4295 9.18587V9.19229L21.4808 29.141H21.4872L17.2179 33.4038V33.4167L5.12821 45.5128V46.5192L17.2179 34.4295V34.4166V34.4166ZM17.2179 38.4487L26.5321 29.141L41.4295 14.2436V14.2243L50.532 5.12821H49.5192L41.4295 13.2179V13.2308L25.5193 29.141L17.2179 37.4423V37.4487L5.12821 49.5449V50.5513L17.2179 38.4615V38.4487V38.4487ZM6.359 61.4359L17.2179 50.5769V50.5577L38.641 29.141L41.4295 26.3526V26.3397L62.641 5.12821H61.6282L41.4295 25.3269V25.3462L37.6282 29.141L17.2179 49.5513V49.5641L5.34613 61.4359H5.35255L5.12821 61.6602V62.6731L6.36542 61.4359H6.359V61.4359ZM17.2179 82.8718V82.859L38.641 61.4359L41.4295 58.6474V58.6346L65.641 34.4295V34.4166L70.9103 29.141L89.8462 10.2052V10.1923L94.1346 5.91024C93.9637 5.73855 93.7695 5.59185 93.5577 5.47438L89.8462 9.18587V9.19229L69.8975 29.141H69.9039L65.641 33.4038V33.4167L41.4295 57.6282V57.6411L37.6282 61.4359L17.2179 81.8462V81.8589L5.49356 93.5897C5.51532 93.6408 5.54104 93.6901 5.57048 93.7372C5.67829 93.8897 5.8007 94.0314 5.9359 94.1603L6.36542 93.7372H6.359L17.2179 82.8718ZM17.2179 78.8205L34.6026 61.4359L41.4295 54.6154V54.6026L65.641 30.391V30.3782L66.8782 29.141H66.8718L89.8462 6.16666V6.15383L90.8718 5.12821H89.8654L89.8462 5.14104V5.15387L65.859 29.141H65.8654L65.641 29.3718V29.3846L41.4295 53.5897V53.6026L33.5962 61.4359L17.2179 77.8141V77.8269L5.12821 89.9167V90.9295L17.2179 78.8333V78.8205V78.8205ZM17.2179 74.7885L30.5705 61.4359H30.5641L41.4295 50.5769V50.5577L62.8462 29.141L65.641 26.3526V26.3397L86.8526 5.12821H85.8398L65.641 25.3269V25.3462L61.8397 29.141L41.4295 49.5513V49.5641L29.5577 61.4359L17.2179 73.7756V73.7885L5.12821 85.8846V86.8911L17.2179 74.8012V74.7885V74.7885ZM17.2179 62.6795L18.4616 61.4359H18.4552L41.4295 38.4615V38.4487L50.7372 29.141L65.641 14.2436V14.2243L74.7372 5.12821H73.7308L65.641 13.2179V13.2308L49.7307 29.141L41.4295 37.4423V37.4487L17.4423 61.4359H17.4487L17.2179 61.6666V61.6795L5.12821 73.7692V74.7821L17.2179 62.6859V62.6795V62.6795ZM17.2179 66.7115L22.4936 61.4359L41.4295 42.5V42.4936L54.782 29.141H54.7756L65.641 18.2756V18.2628L78.7757 5.12821H77.7629L65.641 17.2564V17.2692L53.7628 29.141H53.7692L41.4295 41.4807V41.4936L21.4808 61.4359H21.4872L17.2179 65.7051V65.7115L5.12821 77.8077V78.8205L17.2179 66.7243V66.7115V66.7115ZM17.2179 70.75L26.5321 61.4359L41.4295 46.5384V46.5256L58.8141 29.141L65.641 22.3141V22.3013L82.8141 5.12821H81.8013L65.641 21.2949V21.3077L57.8013 29.141H57.8077L41.4295 45.5192V45.5321L25.5193 61.4359L17.2179 69.7372V69.75L5.12821 81.8398V82.8526L17.2179 70.7564V70.75V70.75Z" fill="black"/>
</g>
<mask id="mask1_394_18386" style="mask-type:alpha" maskUnits="userSpaceOnUse" x="15" y="42" width="32" height="47">
<path fill-rule="evenodd" clip-rule="evenodd" d="M46.5621 48.084L15.4414 42.084V88.7358H46.5621V48.084Z" fill="#13CE66"/>
</mask>
<g mask="url(#mask1_394_18386)">
<path fill-rule="evenodd" clip-rule="evenodd" d="M93.468 1.92308C94.6903 1.92325 95.8625 2.40889 96.7268 3.27321C97.5911 4.13752 98.0768 5.30969 98.0769 6.53201V93.468C98.0768 94.6903 97.5911 95.8625 96.7268 96.7268C95.8625 97.5911 94.6903 98.0768 93.468 98.0769H6.53201C5.30969 98.0768 4.13752 97.5911 3.27321 96.7268C2.40889 95.8625 1.92325 94.6903 1.92308 93.468V6.53201C1.92325 5.30969 2.40889 4.13752 3.27321 3.27321C4.13752 2.40889 5.30969 1.92325 6.53201 1.92308H93.468ZM93.468 2.83235e-07H6.53201C5.67414 -0.000252391 4.8247 0.168556 4.03208 0.496733C3.23946 0.824909 2.5192 1.30598 1.91259 1.91259C1.30598 2.5192 0.824909 3.23946 0.496733 4.03208C0.168556 4.8247 -0.000252391 5.67414 2.83235e-07 6.53201V93.468C-0.000252391 94.3259 0.168556 95.1753 0.496733 95.9679C0.824909 96.7605 1.30598 97.4808 1.91259 98.0874C2.5192 98.694 3.23946 99.1751 4.03208 99.5033C4.8247 99.8314 5.67414 100 6.53201 100H93.468C94.3259 100 95.1753 99.8314 95.9679 99.5033C96.7605 99.1751 97.4808 98.694 98.0874 98.0874C98.694 97.4808 99.1751 96.7605 99.5033 95.9679C99.8314 95.1753 100 94.3259 100 93.468V6.53201C100 5.67414 99.8314 4.8247 99.5033 4.03208C99.1751 3.23946 98.694 2.5192 98.0874 1.91259C97.4808 1.30598 96.7605 0.824909 95.9679 0.496733C95.1753 0.168556 94.3259 -0.000252391 93.468 2.83235e-07V2.83235e-07ZM94.109 29.141L89.8462 33.4038V33.4167L65.641 57.6282V57.6411L61.8397 61.4359L41.4295 81.8462V81.8589L29.5577 93.7372L28.4231 94.8718H29.4359L30.5705 93.7372H30.5641L41.4295 82.8718V82.859L62.8462 61.4359L65.641 58.6474V58.6346L89.8462 34.4295V34.4166L94.8718 29.391V28.3782L94.109 29.141V29.141ZM89.8462 21.3077L82.0128 29.141L65.641 45.5192V45.5321L49.7307 61.4359L41.4295 69.7372V69.75L17.4423 93.7372H17.4487L17.2179 93.9615V93.9743L16.3269 94.8718H17.3205L18.4616 93.7372H18.4552L41.4295 70.7564V70.75L50.7372 61.4359L65.641 46.5384V46.5256L83.0192 29.141L89.8462 22.3141V22.3013L94.8718 17.2756V16.2692L89.8462 21.2949V21.3077V21.3077ZM89.8462 25.3462L86.0513 29.141H86.0449L65.641 49.5513V49.5641L53.7628 61.4359H53.7692L41.4295 73.7756V73.7885L21.4808 93.7372H21.4872L20.3461 94.8718H21.3589L22.4936 93.7372L41.4295 74.8012V74.7885L54.782 61.4359H54.7756L65.641 50.5769V50.5577L87.0577 29.141L89.8462 26.3526V26.3397L94.8718 21.3141V20.3077L89.8462 25.3269V25.3462ZM90.0769 29.141L89.8462 29.3718V29.3846L65.641 53.5897V53.6026L57.8013 61.4359H57.8077L41.4295 77.8141V77.827L25.5193 93.7372L24.3846 94.8718H25.3974L26.5321 93.7372L41.4295 78.8333V78.8205L58.8141 61.4359L65.641 54.6154V54.6026L89.8462 30.391V30.3782L91.0833 29.141H91.0769L94.8718 25.3462V24.3397L90.0705 29.141H90.0769V29.141ZM89.8462 17.2692L77.9744 29.141L65.641 41.4807V41.4936L45.6923 61.4359L41.4295 65.7051V65.7115L17.2179 89.9231V89.9359L13.423 93.7372L12.2885 94.8718H13.2949L14.4295 93.7372L17.2179 90.9487V90.9359L41.4295 66.7243V66.7115L46.7051 61.4359L65.641 42.5V42.4936L78.9872 29.141H78.9807L89.8462 18.2756V18.2628L94.8718 13.2372V12.2307L89.8462 17.2564V17.2692V17.2692ZM89.8462 13.2179V13.2308L73.9359 29.141L65.641 37.4423V37.4487L41.6538 61.4359H41.6603L41.4295 61.6666V61.6795L17.2179 85.8846V85.9039L9.38463 93.7372H9.39104L8.25 94.8718H9.25637L10.3974 93.7372L17.2179 86.9102V86.8975L41.4295 62.6859V62.6795L42.6667 61.4359H42.6603L65.641 38.4615V38.4487L74.9487 29.141L89.8462 14.2436V14.2243L94.8718 9.20512V8.19233L89.8462 13.2179ZM89.8462 41.4936L69.8975 61.4359H69.9039L65.641 65.7051V65.7115L41.4295 89.9231V89.9359L37.6282 93.7372L36.4936 94.8718H37.5L38.641 93.7372L41.4295 90.9487V90.9359L65.641 66.7243V66.7115L70.9103 61.4359L89.8462 42.5V42.4936L94.8718 37.4679V36.4551L89.8462 41.4807V41.4936V41.4936ZM94.109 61.4359L89.8462 65.7051V65.7115L65.641 89.9231V89.9359L61.8397 93.7372L60.7051 94.8718H61.7116L62.8462 93.7372L65.641 90.9487V90.9359L89.8462 66.7243V66.7115L94.8718 61.6859V60.6731L94.109 61.4359V61.4359ZM89.8462 53.6026L82.0128 61.4359L65.641 77.8141V77.827L49.7307 93.7372L48.5962 94.8718H49.6026L50.7372 93.7372L65.641 78.8333V78.8205L83.0192 61.4359L89.8462 54.6154V54.6026L94.8718 49.5769V48.5641L89.8462 53.5897V53.6026ZM89.8462 57.6411L86.0513 61.4359H86.0449L65.641 81.8462V81.8589L53.7628 93.7372H53.7692L52.6346 94.8718H53.6474L54.782 93.7372H54.7756L65.641 82.8718V82.859L87.0577 61.4359L89.8462 58.6474V58.6346L94.8718 53.609V52.6026L89.8462 57.6282V57.6411ZM90.0769 61.4359L89.8462 61.6666V61.6795L65.641 85.8846V85.9039L57.8013 93.7372H57.8077L56.6667 94.8718H57.6795L58.8141 93.7372L65.641 86.9102V86.8975L89.8462 62.6859V62.6795L91.0833 61.4359H91.0769L94.8718 57.6475V56.6346L90.0705 61.4359H90.0769V61.4359ZM89.8462 49.5641L77.9744 61.4359L65.641 73.7756V73.7885L45.6923 93.7372L44.5577 94.8718H45.5641L46.7051 93.7372L65.641 74.8012V74.7885L78.9872 61.4359H78.9807L89.8462 50.5769V50.5577L94.8718 45.5385V44.5256L89.8462 49.5513V49.5641ZM89.8462 45.5321L73.9359 61.4359L65.641 69.7372V69.75L41.6538 93.7372H41.6603L41.4295 93.9615V93.9743L40.532 94.8718H41.5321L42.6667 93.7372H42.6603L65.641 70.7564V70.75L74.9487 61.4359L89.8462 46.5384V46.5256L94.8718 41.5V40.4936L89.8462 45.5192V45.5321V45.5321ZM89.8462 37.4487L65.859 61.4359H65.8654L65.641 61.6666V61.6795L41.4295 85.8846V85.9039L33.5962 93.7372L32.4615 94.8718H33.4679L34.6026 93.7372L41.4295 86.9102V86.8975L65.641 62.6859V62.6795L66.8782 61.4359H66.8718L89.8462 38.4615V38.4487L94.8718 33.4295V32.4166L89.8462 37.4423V37.4487ZM89.8462 73.7885L69.8975 93.7372H69.9039L68.7692 94.8718H69.7756L70.9103 93.7372L89.8462 74.8012V74.7885L94.8718 69.7628V68.75L89.8462 73.7756V73.7885ZM94.109 93.7372L93.1282 94.7244C93.6557 94.5416 94.1114 94.1958 94.4295 93.7372C94.5545 93.5459 94.6536 93.339 94.7244 93.1218L94.109 93.7372ZM89.8462 85.9039L82.0128 93.7372L80.8782 94.8718H81.8846L83.0192 93.7372L89.8462 86.9102V86.8975L94.8718 81.8718V80.8654L89.8462 85.8846V85.9039ZM89.8462 89.9359L86.0513 93.7372H86.0449L84.9102 94.8718H85.9231L87.0577 93.7372L89.8462 90.9487V90.9359L94.8718 85.9103V84.8974L89.8462 89.9231V89.9359V89.9359ZM90.0769 93.7372L89.8462 93.9615V93.9743L88.9487 94.8718H89.9487L91.0833 93.7372H91.0769L94.8718 89.9423V88.9295L90.0705 93.7372H90.0769ZM89.8462 81.8589L77.9744 93.7372L76.8397 94.8718H77.8525L78.9872 93.7372H78.9807L89.8462 82.8718V82.859L94.8718 77.8334V76.8205L89.8462 81.8462V81.8589ZM89.8462 77.827L73.9359 93.7372L72.8012 94.8718H73.8141L74.9487 93.7372L89.8462 78.8333V78.8205L94.8718 73.7949V72.7885L89.8462 77.8141V77.827ZM89.8462 69.75L65.859 93.7372H65.8654L65.641 93.9615V93.9743L64.7436 94.8718H65.7372L66.8782 93.7372H66.8718L89.8462 70.7564V70.75L94.8718 65.7244V64.7115L89.8462 69.7372V69.75V69.75ZM17.2179 14.2243L26.3206 5.12821H25.3141L17.2179 13.2179V13.2308L5.12821 25.3269V26.3333L17.2179 14.2436V14.2243ZM17.2179 10.1923L22.2885 5.12821H21.2756L17.2179 9.18587V9.19229L5.12821 21.2884V22.3013L17.2179 10.2052V10.1923ZM14.4295 29.141L17.2179 26.3526V26.3397L38.4295 5.12821H37.4231L17.2179 25.3269V25.3462L13.423 29.141L5.12821 37.4359V38.4423L14.4295 29.141ZM10.3974 29.141L17.2179 22.3141V22.3013L34.3975 5.12821H33.3846L17.2179 21.2949V21.3077L9.38463 29.141H9.39104L5.12821 33.4038V34.4103L10.3974 29.141ZM9.17945 5.12821L5.12821 9.17945V10.1859L10.1859 5.12821H9.17945V5.12821ZM13.2115 5.12821L5.12821 13.2115V14.2243L14.2243 5.12821H13.2115V5.12821ZM17.2179 6.15383L18.25 5.12821H17.2372L17.2179 5.14104V5.15387L5.12821 17.25V18.2564L17.2179 6.16666V6.15383V6.15383ZM6.359 29.141L17.2179 18.2756V18.2628L30.3525 5.12821H29.3462L17.2179 17.2564V17.2692L5.34613 29.141H5.35255L5.12821 29.3654V30.3782L6.36542 29.141H6.359V29.141ZM17.2179 46.5256L34.6026 29.141L41.4295 22.3141V22.3013L58.6026 5.12821H57.5961L41.4295 21.2949V21.3077L33.5962 29.141L17.2179 45.5192V45.5321L5.12821 57.6218V58.6282L17.2179 46.5384V46.5256V46.5256ZM17.2179 42.4936L30.5705 29.141H30.5641L41.4295 18.2756V18.2628L54.5641 5.12821H53.5577L41.4295 17.2564V17.2692L29.5577 29.141L17.2179 41.4807V41.4936L5.12821 53.5833V54.5962L17.2179 42.5V42.4936V42.4936ZM14.4295 61.4359L17.2179 58.6474V58.6346L41.4295 34.4295V34.4166L46.7051 29.141L65.641 10.2052V10.1923L70.7052 5.12821H69.6923L65.641 9.18587V9.19229L45.6923 29.141L41.4295 33.4038V33.4167L17.2179 57.6282V57.6411L13.423 61.4359L5.12821 69.7308V70.7436L14.4295 61.4359V61.4359ZM10.3974 61.4359L17.2179 54.6154V54.6026L41.4295 30.391V30.3782L42.6667 29.141H42.6603L65.641 6.16666V6.15383L66.6667 5.12821H65.6539L65.641 5.14104V5.15387L41.6538 29.141H41.6603L41.4295 29.3718V29.3846L17.2179 53.5897V53.6026L9.38463 61.4359H9.39104L5.12821 65.6987V66.7052L10.3974 61.4359ZM17.2179 30.3782L18.4616 29.141H18.4552L41.4295 6.16666V6.15383L42.4551 5.12821H41.4423L41.4295 5.14104V5.15387L17.4423 29.141H17.4487L17.2179 29.3718V29.3846L5.12821 41.4743V42.4808L17.2179 30.391V30.3782V30.3782ZM17.2179 34.4166L22.4936 29.141L41.4295 10.2052V10.1923L46.5 5.12821H45.4872L41.4295 9.18587V9.19229L21.4808 29.141H21.4872L17.2179 33.4038V33.4167L5.12821 45.5128V46.5192L17.2179 34.4295V34.4166V34.4166ZM17.2179 38.4487L26.5321 29.141L41.4295 14.2436V14.2243L50.532 5.12821H49.5192L41.4295 13.2179V13.2308L25.5193 29.141L17.2179 37.4423V37.4487L5.12821 49.5449V50.5513L17.2179 38.4615V38.4487V38.4487ZM6.359 61.4359L17.2179 50.5769V50.5577L38.641 29.141L41.4295 26.3526V26.3397L62.641 5.12821H61.6282L41.4295 25.3269V25.3462L37.6282 29.141L17.2179 49.5513V49.5641L5.34613 61.4359H5.35255L5.12821 61.6602V62.6731L6.36542 61.4359H6.359V61.4359ZM17.2179 82.8718V82.859L38.641 61.4359L41.4295 58.6474V58.6346L65.641 34.4295V34.4166L70.9103 29.141L89.8462 10.2052V10.1923L94.1346 5.91024C93.9637 5.73855 93.7695 5.59185 93.5577 5.47438L89.8462 9.18587V9.19229L69.8975 29.141H69.9039L65.641 33.4038V33.4167L41.4295 57.6282V57.6411L37.6282 61.4359L17.2179 81.8462V81.8589L5.49356 93.5897C5.51532 93.6408 5.54104 93.6901 5.57048 93.7372C5.67829 93.8897 5.8007 94.0314 5.9359 94.1603L6.36542 93.7372H6.359L17.2179 82.8718ZM17.2179 78.8205L34.6026 61.4359L41.4295 54.6154V54.6026L65.641 30.391V30.3782L66.8782 29.141H66.8718L89.8462 6.16666V6.15383L90.8718 5.12821H89.8653L89.8462 5.14104V5.15387L65.859 29.141H65.8654L65.641 29.3718V29.3846L41.4295 53.5897V53.6026L33.5962 61.4359L17.2179 77.8141V77.827L5.12821 89.9167V90.9295L17.2179 78.8333V78.8205V78.8205ZM17.2179 74.7885L30.5705 61.4359H30.5641L41.4295 50.5769V50.5577L62.8462 29.141L65.641 26.3526V26.3397L86.8526 5.12821H85.8398L65.641 25.3269V25.3462L61.8397 29.141L41.4295 49.5513V49.5641L29.5577 61.4359L17.2179 73.7756V73.7885L5.12821 85.8846V86.8911L17.2179 74.8012V74.7885V74.7885ZM17.2179 62.6795L18.4616 61.4359H18.4552L41.4295 38.4615V38.4487L50.7372 29.141L65.641 14.2436V14.2243L74.7372 5.12821H73.7308L65.641 13.2179V13.2308L49.7307 29.141L41.4295 37.4423V37.4487L17.4423 61.4359H17.4487L17.2179 61.6666V61.6795L5.12821 73.7692V74.7821L17.2179 62.6859V62.6795V62.6795ZM17.2179 66.7115L22.4936 61.4359L41.4295 42.5V42.4936L54.782 29.141H54.7756L65.641 18.2756V18.2628L78.7757 5.12821H77.7629L65.641 17.2564V17.2692L53.7628 29.141H53.7692L41.4295 41.4807V41.4936L21.4808 61.4359H21.4872L17.2179 65.7051V65.7115L5.12821 77.8077V78.8205L17.2179 66.7243V66.7115V66.7115ZM17.2179 70.75L26.5321 61.4359L41.4295 46.5384V46.5256L58.8141 29.141L65.641 22.3141V22.3013L82.8141 5.12821H81.8013L65.641 21.2949V21.3077L57.8013 29.141H57.8077L41.4295 45.5192V45.5321L25.5193 61.4359L17.2179 69.7372V69.75L5.12821 81.8398V82.8526L17.2179 70.7564V70.75V70.75Z" fill="black"/>
</g>
<path fill-rule="evenodd" clip-rule="evenodd" d="M74.6391 82.8461V82.8653L74.0685 83.4294H75.0685L77.0813 81.4166V80.4038L74.6391 82.8461ZM74.6391 79.8268L75.5942 78.8717H74.5941L70.0365 83.4294H71.0429L74.6391 79.8333V79.8268ZM62.4852 78.8717L57.9211 83.4294H58.9339L63.4916 78.8717H62.4852ZM66.5172 78.8717L61.9596 83.4294H62.9659L67.5301 78.8717H66.5172ZM70.5557 78.8717L65.9916 83.4294H67.0044L71.5621 78.8717H70.5557ZM58.4467 78.8717L53.8826 83.4294H54.8954L59.4531 78.8717H58.4467ZM54.4083 78.8717L52.3506 80.9294V81.9422L55.4147 78.8717H54.4083ZM80.825 72.6281H81.8378L84.5621 69.9038V68.8909L80.825 72.6281ZM77.3121 68.064L74.6391 70.7371V70.7499L72.7608 72.6281H73.7737L74.6391 71.7627V71.7499L78.3185 68.064H77.3121ZM81.3442 68.064L76.7865 72.6281H77.7993L82.357 68.064H81.3442ZM61.1775 68.064L56.6198 72.6281H57.6326L62.1903 68.064H61.1775ZM73.2865 68.064L68.7288 72.6281H69.7352L74.2993 68.064H73.2865ZM69.248 68.064L64.6903 72.6281H65.6967L70.2545 68.064H69.248ZM65.2159 68.064L60.6518 72.6281H61.6647L66.2224 68.064H65.2159ZM53.1006 68.064L52.3506 68.8204V69.8332L54.1134 68.064H53.1006ZM57.139 68.064L52.5813 72.6281H53.5878L58.1519 68.064H57.139ZM76.0045 57.2627L74.6391 58.6281V58.6409L71.4595 61.8204H72.466L74.6391 59.6474V59.6345L77.0108 57.2627H76.0045ZM75.4788 61.8204H76.4916L77.0813 61.2307V60.2178L75.4788 61.8204ZM71.9788 57.2627L67.4147 61.8204H68.4275L72.9852 57.2627H71.9788ZM67.9403 57.2627L63.3826 61.8204H64.3891L68.9532 57.2627H67.9403ZM63.9083 57.2627L59.3442 61.8204H60.357L64.9147 57.2627H63.9083ZM52.3506 57.2627V57.7179L52.8057 57.2627H52.3506ZM55.8314 57.2627L52.3506 60.7435V61.7563L56.8442 57.2627H55.8314ZM59.8634 57.2627L55.3057 61.8204H56.3122L60.8763 57.2627H59.8634Z" fill="black"/>
</svg>
